<?xml version="1.0" encoding="utf-8"?>
<svg width="339" height="221.201" viewBox="0 0 339 221.201" fill="none" xmlns="http://www.w3.org/2000/svg">
  <defs>
    <clipPath id="clip_path_1">
      <rect width="339" height="221.201" />
    </clipPath>
    <clipPath id="clip_path_2">
      <rect width="338.999" height="221.201" />
    </clipPath>
    <clipPath id="clip_path_3">
      <rect width="335.412" height="175.939" />
    </clipPath>
    <mask id="mask_4" x="-53.93" y="-107.655" width="101.933" height="205.459">
      <path d="M14.223 0C6.3688 -0.000545502 0.00112915 6.3658 0 14.22C0 14.22 0 191.236 0 191.236C0 195.009 1.49866 198.627 4.16623 201.294C6.8338 203.961 10.4518 205.46 14.224 205.459C14.224 205.459 87.711 205.459 87.711 205.459C91.4833 205.46 95.1013 203.962 97.7686 201.294C100.436 198.626 101.934 195.008 101.933 191.236C101.933 191.236 101.933 14.22 101.933 14.22C101.933 6.36906 95.567 0.00170898 87.713 0C87.713 0 14.223 0 14.223 0Z" transform="translate(102.487 50.846)" />
    </mask>
    <linearGradient id="gradient_5" gradientUnits="userSpaceOnUse" x1="-84.706" y1="315.137" x2="-84.399" y2="315.137">
      <stop offset="0" stop-color="#510394" />
      <stop offset="0.141" stop-color="#4A0387" />
      <stop offset="0.397" stop-color="#380368" />
      <stop offset="0.736" stop-color="#1B0334" />
      <stop offset="1" stop-color="#030408" />
    </linearGradient>
    <clipPath id="clip_path_6">
      <rect width="310.666" height="21.796" />
    </clipPath>
    <mask id="mask_7" x="-169.5" y="88.812" width="310.669" height="21.795">
      <path d="M15.2103 8.17279C9.43829 8.84778 0.0602884 10.0858 0.000288025 11.8728C-0.053712 13.4808 7.50029 14.7988 10.1403 15.2598C40.3653 20.5349 46.9303 11.6909 86.9213 15.5089C107.896 17.5089 104.732 20.8328 123.333 21.6678C148.784 22.8109 187.576 15.8679 219.393 16.1838C232.968 16.3168 233.182 17.4409 251.657 18.3398C258.914 18.6929 309.749 21.1118 310.657 17.4158C310.821 16.7478 309.595 14.8858 287.612 10.3328C287.612 10.3328 182.659 -11.4042 15.2123 8.17682" transform="translate(0.054 11.411)" />
    </mask>
    <linearGradient id="gradient_8" gradientUnits="userSpaceOnUse" x1="0" y1="33.19" x2="0.311" y2="33.19">
      <stop offset="0" stop-color="#D3D6DB" />
      <stop offset="0.999" stop-color="#7A869B" />
      <stop offset="1" stop-color="#7A869B" />
    </linearGradient>
  </defs>
  <g clip-path="url(#clip_path_1)">
    <g transform="translate(0 -47.9)">
      <g transform="translate(0 47.9)">
        <g clip-path="url(#clip_path_2)">
          <g transform="translate(3.588 0)">
            <g>
              <g>
                <g clip-path="url(#clip_path_3)">
                  <path d="M2.16226 105.022C-13.7647 17.8002 62.3883 -9.25079 96.5833 2.65921C111.311 7.78921 108.069 24.4492 124.096 39.0262C169.87 80.6562 257.628 0.535213 306.596 36.8932C330.76 54.8352 342.744 99.1142 330.644 126.149C294.324 207.3 16.1003 181.361 2.16226 105.022C2.16226 105.022 2.16226 105.022 2.16226 105.022Z" fill="#F6F5FA" transform="translate(-0 -0)" />
                </g>
              </g>
            </g>
          </g>
        </g>
      </g>
      <g transform="translate(13.083 0)">
        <g mask="url(#mask_4)">
          <path d="M0 146.53L156.948 0L306.907 160.62L149.959 307.151L0 146.53Z" fill="url(#gradient_5)" fill-rule="evenodd" />
        </g>
      </g>
      <g transform="translate(0 47.9)">
        <g>
          <g transform="translate(0 8.501)">
            <path d="M79.545 0C79.545 0 9.745 0 9.745 0C7.1604 -0.000263214 4.68158 1.02635 2.85394 2.85395C1.02637 4.68155 -0.000244141 7.16038 0 9.745C0 9.745 0 183.094 0 183.094C0 185.68 1.02692 188.158 2.85468 189.986C4.68243 191.813 7.16138 192.84 9.74603 192.839C9.74603 192.839 79.546 192.839 79.546 192.839C82.1306 192.839 84.6094 191.813 86.4371 189.985C88.2646 188.157 89.2913 185.679 89.291 183.094C89.291 183.094 89.291 9.745 89.291 9.745C89.291 7.15939 88.2641 4.68066 86.4363 2.85325C84.6086 1.02583 82.1296 -0.000530243 79.545 0C79.545 0 79.545 0 79.545 0Z" fill="#FFFFFF" transform="translate(121.388 0)" />
            <path d="M10.304 2.9C10.304 2.9 1.45001 2.9 1.45001 2.9C0.64917 2.9 0 2.25081 0 1.45C0 0.649189 0.64917 0 1.45001 0C1.45001 0 10.304 0 10.304 0C11.1049 0 11.754 0.649189 11.754 1.45C11.754 2.25081 11.1049 2.9 10.304 2.9C10.304 2.9 10.304 2.9 10.304 2.9Z" fill="#510394" transform="translate(127.038 4.891)" />
            <path d="M1.84204 2.9C1.84204 2.9 1.45001 2.9 1.45001 2.9C0.64917 2.9 0 2.25081 0 1.45C0 0.649189 0.64917 0 1.45001 0C1.45001 0 1.84204 0 1.84204 0C2.64288 0 3.29205 0.649189 3.29205 1.45C3.29205 2.25081 2.64288 2.9 1.84204 2.9C1.84204 2.9 1.84204 2.9 1.84204 2.9Z" fill="#510394" transform="translate(193.923 4.891)" />
            <path d="M5.328 2.9C5.328 2.9 1.45001 2.9 1.45001 2.9C0.64917 2.9 0 2.25081 0 1.45C0 0.649189 0.64917 0 1.45001 0C1.45001 0 5.328 0 5.328 0C6.12885 0 6.77802 0.649189 6.77802 1.45C6.77802 2.25081 6.12885 2.9 5.328 2.9C5.328 2.9 5.328 2.9 5.328 2.9Z" fill="#510394" transform="translate(198.9 4.891)" />
            <path d="M4.91803 2.459C4.91803 3.45358 4.31891 4.35022 3.40009 4.73082C2.4812 5.11143 1.42352 4.90104 0.720276 4.19777C0.0169678 3.4945 -0.193359 2.43684 0.187256 1.51797C0.567871 0.599106 1.46448 -7.62939e-06 2.45905 0C3.81714 7.62939e-06 4.91803 1.10094 4.91803 2.459C4.91803 2.459 4.91803 2.459 4.91803 2.459Z" fill="#510394" transform="translate(164.077 3.882)" />
            <g transform="translate(0 190.904)">
              <g>
                <g clip-path="url(#clip_path_6)">
                  <g transform="translate(-0.054 -11.404)">
                    <g>
                      <g mask="url(#mask_7)">
                        <rect width="310.872" height="34.216" fill="url(#gradient_8)" fill-rule="evenodd" />
                      </g>
                    </g>
                  </g>
                </g>
              </g>
            </g>
          </g>
        </g>
      </g>
    </g>
  </g>
</svg>