<?xml version="1.0" encoding="utf-8"?>
<svg width="83" height="74.424" viewBox="0 0 83 74.424" fill="none" xmlns="http://www.w3.org/2000/svg">
  <g>
    <g transform="translate(8.112 0)">
      <path d="M0 0L8 0L8 21L0 21L0 0Z" fill="#B3B0B5" fill-rule="evenodd" transform="translate(28.888 52.212)" />
      <g transform="translate(13.888 10.212)">
        <path d="M29.2392 25.7441C29.2392 25.7441 2.95325 0.490064 2.95325 0.490064C1.84775 -0.571936 -0.0827525 0.209565 0.00274754 1.70956C0.343248 7.66907 2.96075 14.5991 9.08375 20.4806C11.7792 23.0711 14.3547 22.9511 15.9642 22.4561C17.1612 22.0886 18.4707 22.4471 19.3587 23.3006C19.3587 23.3006 25.5717 29.2691 25.5717 29.2691C26.5857 30.2426 28.2282 30.2426 29.2407 29.2691C30.2532 28.2956 30.2532 26.7176 29.2392 25.7441C29.2392 25.7441 29.2392 25.7441 29.2392 25.7441Z" fill="#FFFFFF" transform="translate(3 3)" />
        <path d="M6.9848 0.975761C6.8048 0.803261 6.6308 0.62776 6.4583 0.45076C5.8793 -0.147741 4.9238 -0.14924 4.3343 0.44026C4.3343 0.44026 0.806298 3.96826 0.806298 3.96826C-0.0742016 4.84876 -0.288702 6.26776 0.438798 7.27726C1.3658 8.56576 3.1733 8.67226 4.2473 7.59826C4.2473 7.59826 7.9223 3.92326 7.9223 3.92326C8.5658 3.27976 8.4743 2.24326 7.7678 1.67026C7.5083 1.45876 7.2473 1.22776 6.9848 0.975761C6.9848 0.975761 6.9848 0.975761 6.9848 0.975761Z" fill="#FFFFFF" transform="translate(3.02 24.668)" />
        <path d="M16.0598 9.43987C15.4733 8.85337 14.5253 8.85337 13.9388 9.43987C13.9388 9.43987 11.6888 11.6899 11.6888 11.6899C11.0318 12.3469 9.96675 12.3469 9.30975 11.6899C9.30975 11.6899 9.30975 11.6899 9.30975 11.6899C8.65275 11.0329 8.65275 9.96787 9.30975 9.31087C9.30975 9.31087 11.5598 7.06087 11.5598 7.06087C12.1463 6.47437 12.1463 5.52637 11.5598 4.93987C10.9733 4.35337 10.0252 4.35337 9.43875 4.93987C9.43875 4.93987 7.18875 7.18987 7.18875 7.18987C6.53175 7.84688 5.46675 7.84688 4.80975 7.18987C4.80975 7.18987 4.80975 7.18987 4.80975 7.18987C4.15275 6.53287 4.15275 5.46787 4.80975 4.81087C4.80975 4.81087 7.05975 2.56087 7.05975 2.56087C7.64625 1.97437 7.64625 1.02637 7.05975 0.439875C6.47325 -0.146625 5.52525 -0.146625 4.93875 0.439875C4.93875 0.439875 0.438751 4.93987 0.438751 4.93987C-0.14625 5.52487 -0.14625 6.47587 0.438751 7.06087C0.438751 7.06087 9.43875 16.0609 9.43875 16.0609C9.73125 16.3534 10.1152 16.5004 10.4993 16.5004C10.8833 16.5004 11.2673 16.3534 11.5598 16.0609C11.5598 16.0609 16.0598 11.5609 16.0598 11.5609C16.6463 10.9744 16.6463 10.0264 16.0598 9.43987C16.0598 9.43987 16.0598 9.43987 16.0598 9.43987Z" fill="#FFFFFF" transform="translate(16.501 3)" />
      </g>
    </g>
    <path d="M0 0L83 0L83 48L0 48L0 0Z" fill="#00B2CA" fill-rule="evenodd" fill-opacity="0.2" transform="translate(0 4.212)" />
  </g>
</svg>