<?xml version="1.0" encoding="utf-8"?>
<svg width="256" height="256" viewBox="0 0 256 256" fill="none" xmlns="http://www.w3.org/2000/svg">
  <g>
    <path d="M58.0986 0C39.794 0 24.9029 15.3114 24.9029 34.1346C24.9029 52.9579 39.794 68.2693 58.0986 68.2693C76.4032 68.2693 91.2939 52.9579 91.2939 34.1346C91.2939 15.3114 76.4032 0 58.0986 0C58.0986 0 58.0986 0 58.0986 0ZM58.0986 71.3894C31.8934 71.3894 8.99238 85.7066 1.10841 107.017C-3.21256 118.716 5.65151 131.077 18.133 131.077C18.133 131.077 64.7766 131.077 64.7766 131.077C52.8373 108.049 65.2708 84.798 82.4548 75.8056C74.9667 72.9683 66.7184 71.3894 58.0986 71.3894C58.0986 71.3894 58.0986 71.3894 58.0986 71.3894ZM101.657 82.0938C93.8917 82.0938 86.127 85.0192 80.2016 90.8677C68.3512 102.563 68.3539 121.527 80.2016 133.226C92.0501 144.925 111.261 144.925 123.112 133.226C134.963 121.531 134.963 102.566 123.112 90.8677C117.188 85.0192 109.423 82.0938 101.657 82.0938C101.657 82.0938 101.657 82.0938 101.657 82.0938ZM92.6126 97.6571C94.0279 97.6571 95.4439 98.1909 96.5245 99.2569C96.5245 99.2569 101.657 104.324 101.657 104.324C101.657 104.324 106.79 99.2569 106.79 99.2569C108.95 97.1241 112.453 97.1241 114.614 99.2569C116.774 101.39 116.774 104.847 114.614 106.98C114.614 106.98 109.48 112.047 109.48 112.047C109.48 112.047 114.614 117.119 114.614 117.119C116.774 119.252 116.774 122.709 114.614 124.842C112.453 126.975 108.95 126.975 106.79 124.842C106.79 124.842 101.657 119.77 101.657 119.77C101.657 119.77 96.5245 124.842 96.5245 124.842C94.364 126.975 90.8613 126.975 88.7007 124.842C86.5402 122.709 86.5402 119.252 88.7007 117.119C88.7007 117.119 93.8334 112.047 93.8334 112.047C93.8334 112.047 88.7007 106.98 88.7007 106.98C86.5402 104.847 86.5402 101.39 88.7007 99.2569C89.7814 98.1909 91.1966 97.6571 92.6126 97.6571C92.6126 97.6571 92.6126 97.6571 92.6126 97.6571Z" fill="#94D82D" transform="translate(62 57)" />
  </g>
</svg>