<?xml version="1.0" encoding="utf-8"?>
<svg width="254.264" height="200" viewBox="0 0 254.264 200" fill="none" xmlns="http://www.w3.org/2000/svg">
  <g transform="translate(0 0)">
    <path d="M11.2762 50.1944C19.2016 55.9974 29.4723 56.2894 39.4 55.5764C40.7863 55.4764 42.1628 55.3604 43.5265 55.2344C43.5347 55.2324 43.5455 55.2324 43.5539 55.2304C43.6194 55.2244 43.6851 55.2184 43.7478 55.2144C44.0293 55.1874 44.3109 55.1604 44.5897 55.1334C44.5897 55.1334 44.5239 55.2614 44.5239 55.2614C44.5239 55.2614 44.3171 55.6584 44.3171 55.6584C44.3914 55.5254 44.4656 55.3954 44.5399 55.2624C44.5618 55.2224 44.5863 55.1834 44.608 55.1434C47.1798 50.5944 49.7306 45.8784 50.3813 40.6834C51.0538 35.2924 49.1637 29.1874 44.4952 26.5374C43.883 26.1904 43.2346 25.9144 42.5621 25.7144C42.2829 25.6274 41.9999 25.5584 41.7137 25.4964C39.9628 25.1004 38.14 25.1864 36.4326 25.7454C34.7253 26.3034 33.195 27.3134 31.9992 28.6724C30.8034 30.0314 29.9852 31.6894 29.6287 33.4754C29.2722 35.2624 29.3904 37.1134 29.971 38.8384C26.0129 34.7124 26.7513 28.0204 28.1166 22.4274C29.4846 16.8344 31.1406 10.6104 28.3583 5.58739C26.8116 2.79039 24.0917 1.05539 21.0394 0.357376C20.9457 0.33638 20.8522 0.316391 20.7584 0.298386C17.1216 -0.450623 13.3407 0.222382 10.171 2.18338C4.33458 5.92238 1.33693 13.0104 0.364023 19.9534C-1.20352 31.1264 2.26547 43.5954 11.2762 50.1944Z" fill="#F2F2F2" transform="translate(0 144.101)" />
    <path d="M0.201295 31.9918C0.431395 34.4568 1.01379 36.8738 1.93019 39.1678C2.77479 41.1968 3.91319 43.0868 5.30759 44.7748C8.1561 48.2578 11.9225 50.8758 16.013 52.6208C19.1407 53.9228 22.4178 54.8178 25.7663 55.2848C27.1526 55.1848 28.529 55.0688 29.8928 54.9428C29.901 54.9408 29.9118 54.9408 29.9202 54.9388C29.9857 54.9328 30.0514 54.9268 30.1141 54.9228C30.3956 54.8958 30.6772 54.8688 30.956 54.8418C30.956 54.8418 30.8901 54.9698 30.8901 54.9698C30.8901 54.9698 30.6834 55.3668 30.6834 55.3668C30.7577 55.2338 30.8319 55.1038 30.9062 54.9708C30.9281 54.9308 30.9526 54.8918 30.9743 54.8518C28.4639 52.3098 26.5896 49.1928 25.5084 45.7628C24.4272 42.3318 24.1707 38.6888 24.7602 35.1368C25.3771 31.6098 26.8053 28.2818 28.9284 25.4228C28.6492 25.3358 28.3662 25.2658 28.08 25.2048C27.2731 26.3258 26.5654 27.5168 25.965 28.7648C23.8108 33.2158 23.1235 38.2528 24.005 43.1308C24.8244 47.5448 26.8659 51.6298 29.8898 54.9068C29.625 54.8878 29.3577 54.8658 29.0961 54.8418C24.1404 54.4148 19.1949 53.3318 14.7001 51.1138C10.858 49.2638 7.52239 46.4818 4.98719 43.0128C2.26489 39.1968 1.06539 34.6068 0.859295 29.9418C0.640795 24.9468 1.27839 19.8648 2.39979 15.0078C3.5449 10.0288 5.2851 5.20982 7.58169 0.660812C7.63309 0.556824 7.64339 0.43782 7.61069 0.326813C7.57789 0.216812 7.50449 0.122818 7.40569 0.0658112C7.32329 0.00881958 7.22229 -0.0121765 7.12469 0.00682068C7.07689 0.0198212 7.03259 0.0428162 6.99509 0.0758209C6.95759 0.108826 6.9278 0.149826 6.908 0.195816C6.62459 0.757813 6.34659 1.31982 6.07909 1.88882C3.85149 6.62582 2.21149 11.6258 1.19669 16.7738C0.211595 21.7398 -0.314205 26.9348 0.201295 31.9918Z" fill="#FFFFFF" transform="translate(13.634 144.392)" />
    <path d="M5.1 171.951C3.74799 171.95 2.452 171.403 1.49599 170.431C0.540001 169.46 0.0019989 168.142 0 166.768C0 166.768 0 5.18293 0 5.18293C0.0019989 3.8088 0.540001 2.4914 1.49599 1.51975C2.452 0.5481 3.74799 0.00154691 5.1 0C5.1 0 136.177 0 136.177 0C137.529 0.00154691 138.825 0.5481 139.781 1.51975C140.737 2.4914 141.274 3.8088 141.276 5.18293C141.276 5.18293 141.276 166.768 141.276 166.768C141.274 168.142 140.737 169.46 139.781 170.431C138.825 171.403 137.529 171.95 136.177 171.951C136.177 171.951 5.1 171.951 5.1 171.951ZM5.1 0.609756C3.907 0.611128 2.763 1.09338 1.92 1.95072C1.076 2.80806 0.601997 3.97047 0.599998 5.18293C0.599998 5.18293 0.599998 166.768 0.599998 166.768C0.601997 167.981 1.076 169.143 1.92 170.001C2.763 170.858 3.907 171.34 5.1 171.341C5.1 171.341 136.177 171.341 136.177 171.341C137.37 171.34 138.513 170.858 139.357 170.001C140.2 169.143 140.675 167.981 140.676 166.768C140.676 166.768 140.676 5.18293 140.676 5.18293C140.675 3.97047 140.2 2.80806 139.357 1.95072C138.513 1.09338 137.37 0.611128 136.177 0.609756C136.177 0.609756 5.1 0.609756 5.1 0.609756Z" fill="#3F3D56" transform="translate(112.988 0)" />
    <path d="M140.676 0C140.676 0 0 0 0 0L0 0.609699L140.676 0.609699C140.676 0.609699 140.676 0 140.676 0Z" fill="#3F3D56" transform="translate(113.288 12.68)" />
    <path d="M2.399 4.87805C3.724 4.87805 4.799 3.78606 4.799 2.43903C4.799 1.09199 3.724 0 2.399 0C1.07401 0 0 1.09199 0 2.43903C0 3.78606 1.07401 4.87805 2.399 4.87805Z" fill="#3F3D56" transform="translate(117.788 4.268)" />
    <path d="M2.4 4.87805C3.725 4.87805 4.799 3.78606 4.799 2.43903C4.799 1.09199 3.725 0 2.4 0C1.075 0 0 1.09199 0 2.43903C0 3.78606 1.075 4.87805 2.4 4.87805Z" fill="#3F3D56" transform="translate(125.286 4.268)" />
    <path d="M2.39999 4.87805C3.72501 4.87805 4.799 3.78606 4.799 2.43903C4.799 1.09199 3.72501 0 2.39999 0C1.07401 0 0 1.09199 0 2.43903C0 3.78606 1.07401 4.87805 2.39999 4.87805Z" fill="#3F3D56" transform="translate(132.785 4.268)" />
    <path d="M3.899 7.9268C2.86499 7.9268 1.873 7.5093 1.142 6.766C0.410995 6.0227 0 5.0146 0 3.9634C0 2.9123 0.410995 1.9042 1.142 1.1609C1.873 0.417601 2.86499 0 3.899 0C3.899 0 97.483 0 97.483 0C98.517 0 99.509 0.417601 100.24 1.1609C100.972 1.9042 101.382 2.9123 101.382 3.9634C101.382 5.0146 100.972 6.0227 100.24 6.766C99.509 7.5093 98.517 7.9268 97.483 7.9268C97.483 7.9268 3.899 7.9268 3.899 7.9268ZM3.899 0.6098C3.024 0.6098 2.185 0.9631 1.56599 1.592C0.947998 2.221 0.599991 3.074 0.599991 3.9634C0.599991 4.8529 0.947998 5.7059 1.56599 6.3348C2.185 6.9638 3.024 7.3171 3.899 7.3171C3.899 7.3171 97.483 7.3171 97.483 7.3171C98.358 7.3171 99.197 6.9638 99.816 6.3348C100.435 5.7059 100.783 4.8529 100.783 3.9634C100.783 3.074 100.435 2.221 99.816 1.592C99.197 0.9631 98.358 0.6098 97.483 0.6098C97.483 0.6098 3.899 0.6098 3.899 0.6098Z" fill="#3F3D56" transform="translate(131.363 28.963)" />
    <path d="M5.099 41.1585C3.74699 41.157 2.45099 40.6104 1.495 39.6388C0.538986 38.6671 0.000991821 37.3497 0 35.9756C0 35.9756 0 5.1829 0 5.1829C0.000991821 3.8088 0.538986 2.4914 1.495 1.5197C2.45099 0.5481 3.74699 0.00150299 5.099 0C5.099 0 41.992 0 41.992 0C43.344 0.00150299 44.64 0.5481 45.596 1.5197C46.552 2.4914 47.09 3.8088 47.092 5.1829C47.092 5.1829 47.092 35.9756 47.092 35.9756C47.09 37.3497 46.552 38.6671 45.596 39.6388C44.64 40.6104 43.344 41.157 41.992 41.1585C41.992 41.1585 5.099 41.1585 5.099 41.1585ZM5.099 0.609703C3.90599 0.611103 2.76199 1.0934 1.91899 1.9507C1.075 2.8081 0.600998 3.9705 0.599991 5.1829C0.599991 5.1829 0.599991 35.9756 0.599991 35.9756C0.600998 37.1881 1.075 38.3505 1.91899 39.2078C2.76199 40.0651 3.90599 40.5474 5.099 40.5488C5.099 40.5488 41.992 40.5488 41.992 40.5488C43.185 40.5474 44.329 40.0651 45.172 39.2078C46.016 38.3505 46.49 37.1881 46.492 35.9756C46.492 35.9756 46.492 5.1829 46.492 5.1829C46.49 3.9705 46.016 2.8081 45.172 1.9507C44.329 1.0934 43.185 0.611103 41.992 0.609703C41.992 0.609703 5.099 0.609703 5.099 0.609703Z" fill="#3F3D56" transform="translate(128.286 51.524)" />
    <path d="M4.799 0C2.14799 0 0 2.184 0 4.878C0 4.878 0 35.6707 0 35.6707C0 38.3648 2.14799 40.5488 4.799 40.5488C4.799 40.5488 41.692 40.5488 41.692 40.5488C44.343 40.5488 46.492 38.3648 46.492 35.6707C46.492 35.6707 46.492 4.878 46.492 4.878C46.492 2.184 44.343 0 41.692 0C41.692 0 4.799 0 4.799 0Z" fill="#F2F2F2" transform="translate(192.175 53.049)" />
    <path d="M5.099 41.159C3.74699 41.157 2.45099 40.611 1.495 39.639C0.538986 38.668 0.000991821 37.35 0 35.976C0 35.976 0 5.183 0 5.183C0.000991821 3.809 0.538986 2.492 1.495 1.52C2.45099 0.548996 3.74699 0.0019989 5.099 0C5.099 0 41.992 0 41.992 0C43.344 0.0019989 44.64 0.548996 45.596 1.52C46.552 2.492 47.09 3.809 47.092 5.183C47.092 5.183 47.092 35.976 47.092 35.976C47.09 37.35 46.552 38.668 45.596 39.639C44.64 40.611 43.344 41.157 41.992 41.159C41.992 41.159 5.099 41.159 5.099 41.159ZM5.099 0.609993C3.90599 0.612 2.76199 1.09399 1.91899 1.951C1.075 2.809 0.600998 3.97099 0.599991 5.183C0.599991 5.183 0.599991 35.976 0.599991 35.976C0.600998 37.189 1.075 38.351 1.91899 39.208C2.76199 40.066 3.90599 40.548 5.099 40.549C5.099 40.549 41.992 40.549 41.992 40.549C43.185 40.548 44.329 40.066 45.172 39.208C46.016 38.351 46.49 37.189 46.492 35.976C46.492 35.976 46.492 5.183 46.492 5.183C46.49 3.97099 46.016 2.809 45.172 1.951C44.329 1.09399 43.185 0.612 41.992 0.609993C41.992 0.609993 5.099 0.609993 5.099 0.609993Z" fill="#3F3D56" transform="translate(128.286 108.841)" />
    <path d="M4.799 0C2.14799 0 0 2.18401 0 4.87801C0 4.87801 0 35.671 0 35.671C0 38.365 2.14799 40.549 4.799 40.549C4.799 40.549 41.692 40.549 41.692 40.549C44.343 40.549 46.492 38.365 46.492 35.671C46.492 35.671 46.492 4.87801 46.492 4.87801C46.492 2.18401 44.343 0 41.692 0C41.692 0 4.799 0 4.799 0Z" fill="#F2F2F2" transform="translate(192.175 110.366)" />
    <path d="M7.367 14.9762C11.4357 14.9762 14.7341 11.6242 14.7341 7.4882C14.7341 3.3526 11.4357 0 7.367 0C3.2983 0 0 3.3526 0 7.4882C0 11.6242 3.2983 14.9762 7.367 14.9762Z" fill="#FFB8B8" transform="translate(51.171 92.845)" />
    <path d="M22.0358 3.39C21.9188 3.50999 21.8113 3.638 21.7142 3.775C21.7142 3.775 6.8481 3.241 6.8481 3.241L5.1478 0L0 1.969C0 1.969 2.46149 8.004 2.46149 8.004C2.66029 8.492 3.0094 8.90099 3.4563 9.169C3.9033 9.438 4.4239 9.55199 4.93999 9.495C4.93999 9.495 21.7625 7.617 21.7625 7.617C22.1533 8.132 22.689 8.51299 23.2981 8.71C23.9073 8.908 24.5612 8.91199 25.1728 8.72199C25.7844 8.533 26.3246 8.158 26.7218 7.64899C27.1189 7.14 27.3541 6.519 27.3961 5.87099C27.438 5.222 27.2847 4.576 26.9566 4.018C26.6284 3.461 26.141 3.018 25.5591 2.748C24.9772 2.479 24.3284 2.396 23.699 2.511C23.0697 2.625 22.4896 2.932 22.0358 3.39C22.0358 3.39 22.0358 3.39 22.0358 3.39Z" fill="#FFB8B8" transform="translate(64.559 119.719)" />
    <path d="M3.24042 13.7881C3.05102 13.7021 2.88212 13.5751 2.74532 13.4161C2.60852 13.2581 2.50702 13.0711 2.44781 12.8681C2.44781 12.8681 0.377117 5.80515 0.377117 5.80515C-0.0724831 4.82614 -0.122082 3.70715 0.239117 2.69214C0.600315 1.67614 1.34291 0.848145 2.30402 0.388145C3.26522 -0.0718613 4.36652 -0.124855 5.36652 0.239143C6.36642 0.603142 7.18342 1.35614 7.63842 2.33215C7.63842 2.33215 11.6493 8.50114 11.6493 8.50114C11.7638 8.67714 11.8396 8.87614 11.8715 9.08414C11.9035 9.29314 11.8908 9.50614 11.8344 9.70914C11.7781 9.91214 11.6793 10.1011 11.5448 10.2611C11.4104 10.4221 11.2434 10.5521 11.0553 10.6411C11.0553 10.6411 4.44362 13.7791 4.44362 13.7791C4.25552 13.8691 4.05062 13.9161 3.84302 13.9171C3.63531 13.9191 3.42982 13.8751 3.24042 13.7881Z" fill="#CCCCCC" transform="translate(59.338 110.814)" />
    <path d="M6.7815 15.3C6.7815 15.3 10.0113 13.513 10.0113 13.513L4.7667 0L0 2.638C0 2.638 6.7815 15.3 6.7815 15.3Z" fill="#FFB8B8" transform="translate(70.439 181.019)" />
    <path d="M0 4.09023C0 4.09023 6.3606 0.571228 6.3606 0.571228C6.3606 0.571228 6.36079 0.571228 6.36079 0.571228C6.8931 0.27623 7.47729 0.091217 8.07999 0.0262299C8.68269 -0.0387726 9.292 0.0172272 9.8733 0.192215C10.4546 0.366226 10.9964 0.655228 11.4678 1.04222C11.9392 1.42923 12.331 1.90723 12.6207 2.44823C12.6207 2.44823 12.6924 2.58223 12.6924 2.58223L2.2784 8.34422C2.2784 8.34422 0 4.09023 0 4.09023Z" fill="#2F2E41" transform="translate(73.823 188.613)" />
    <path d="M0.000900269 14.417C0.000900269 14.417 3.6779 14.417 3.6779 14.417L5.4275 0L0 0C0 0 0.000900269 14.417 0.000900269 14.417Z" fill="#FFB8B8" transform="translate(41.68 181.917)" />
    <path d="M0 0.000991821C0 0.000991821 7.2419 0 7.2419 0C7.2419 0 7.2422 0 7.2422 0C7.8483 0 8.4484 0.121994 9.0084 0.356995C9.5683 0.592987 10.0771 0.938995 10.5056 1.37399C10.9342 1.81 11.2741 2.327 11.5061 2.896C11.738 3.465 11.8574 4.075 11.8574 4.69099C11.8574 4.69099 11.8574 4.84399 11.8574 4.84399L0.000301361 4.84399C0.000301361 4.84399 0 0.000991821 0 0.000991821Z" fill="#2F2E41" transform="translate(40.742 192.113)" />
    <path d="M24.1443 2.75081C24.1443 2.75081 25.3441 17.3849 25.3441 17.3849C25.3441 17.3849 38.7273 58.195 38.7273 58.195C38.78 58.356 38.7992 58.526 38.7837 58.694C38.7683 58.862 38.7185 59.026 38.6376 59.174C38.5567 59.321 38.4464 59.451 38.3137 59.553C38.181 59.655 38.0289 59.728 37.867 59.767C37.867 59.767 33.7652 60.76 33.7652 60.76C33.5025 60.823 33.2265 60.795 32.9816 60.679C32.7368 60.564 32.5375 60.368 32.4159 60.122C32.4159 60.122 15.3057 25.6249 15.3057 25.6249C15.2499 25.5119 15.1613 25.4199 15.0519 25.3609C14.9425 25.3019 14.8179 25.2779 14.695 25.2939C14.5721 25.3099 14.457 25.3639 14.3654 25.4489C14.2739 25.5339 14.2105 25.6449 14.184 25.7679C14.184 25.7679 6.65424 60.635 6.65424 60.635C6.59554 60.906 6.44744 61.149 6.23425 61.324C6.02114 61.498 5.75584 61.593 5.48234 61.593C5.48234 61.593 1.66643 61.593 1.66643 61.593C1.50753 61.593 1.35013 61.561 1.20343 61.499C1.05683 61.436 0.923832 61.345 0.812233 61.23C0.700634 61.115 0.612732 60.979 0.553532 60.829C0.494431 60.679 0.465233 60.518 0.467632 60.357C0.817333 36.1809 4.91027 23.0651 6.74512 10.9048C8.12893 1.73383 6.05122 14.6417 6.05122 14.6417C6.05122 14.6417 -2.64459 65.1588 0.812233 61.593C1.84325 60.5294 4.09695 13.42 10.3466 0.311783C11.1606 -1.39546 1.16362 4.66881 10.3466 0.311798C10.3466 0.311798 10.3466 0.311798 10.3466 0.311798C10.3466 0.311798 24.1443 2.75081 24.1443 2.75081Z" fill="#2F2E41" transform="translate(40.387 129.595)" />
    <path d="M1.90368 20.4688C1.90368 20.4688 -0.63073 16.4243 0.357277 15.5238C2.36319 13.6955 0.357269 10.9638 0.357269 10.9638C0.101269 9.40478 0.235569 7.80578 0.74757 6.31378C1.25967 4.82078 -0.796921 3.48378 0.357281 2.42478C1.48558 1.37678 5.78538 0.633781 7.27058 0.264778C8.75568 -0.104218 10.3083 -0.0872192 11.7853 0.313782C11.8729 0.337784 17.6127 0.126701 15.7557 0.313782C17.573 0.842781 15.4796 1.99978 16.6719 3.49078C17.8642 4.98178 15.6747 22.0128 15.8127 23.9288C16.1078 28.0568 18.7467 18.8418 15.8127 23.9288C15.8127 23.9288 15.7557 24.0278 15.7557 24.0278C15.7557 24.0278 1.90368 20.4688 1.90368 20.4688Z" fill="#CCCCCC" transform="translate(48.398 110.476)" />
    <path d="M0.771072 34.067C0.465271 33.703 0.241772 33.275 0.116371 32.814C-0.00912857 32.352 -0.0334282 31.868 0.0449715 31.396C0.123371 30.924 0.30267 30.475 0.570271 30.081C0.837872 29.687 1.18717 29.357 1.59367 29.115C1.59367 29.115 7.98417 0 7.98417 0L14.4668 2.705C14.4668 2.705 6.14677 30.474 6.14677 30.474C6.50137 31.195 6.58357 32.023 6.37767 32.801C6.17167 33.58 5.69197 34.254 5.02937 34.697C4.36677 35.14 3.56727 35.321 2.78247 35.205C1.99767 35.089 1.28197 34.684 0.771072 34.067C0.771072 34.067 0.771072 34.067 0.771072 34.067Z" fill="#FFB8B8" transform="translate(37.137 118.948)" />
    <path d="M0.186382 11.4284C0.0843811 11.2444 0.02248 11.0404 0.00508118 10.8304C-0.0123177 10.6204 0.0150833 10.4084 0.0854797 10.2104C0.0854797 10.2104 2.54288 3.27539 2.54288 3.27539C2.75208 2.21639 3.36568 1.28539 4.24928 0.686394C5.13278 0.0863876 6.21418 -0.131607 7.25628 0.0773926C8.29828 0.287392 9.21598 0.908394 9.80818 1.80539C10.4003 2.70139 10.6186 3.80039 10.4151 4.85939C10.4151 4.85939 10.0417 12.2444 10.0417 12.2444C10.0311 12.4554 9.97578 12.6614 9.87978 12.8484C9.78378 13.0354 9.64918 13.1994 9.48518 13.3294C9.32128 13.4584 9.13178 13.5504 8.92968 13.5984C8.72758 13.6474 8.51758 13.6504 8.31408 13.6094C8.31408 13.6094 1.16018 12.1474 1.16018 12.1474C0.956581 12.1054 0.764183 12.0194 0.596081 11.8954C0.428082 11.7714 0.28828 11.6124 0.186382 11.4284Z" fill="#CCCCCC" transform="translate(43.402 112.697)" />
    <path d="M11.4755 5.81032C11.4755 5.81032 11.369 5.79532 11.369 5.79532C11.369 5.79532 11.7699 2.83131 11.7699 2.83131C11.8315 2.37632 11.7126 1.91531 11.4396 1.54932C11.1666 1.18332 10.7617 0.942314 10.314 0.879318C10.314 0.879318 4.13517 0.0163193 4.13517 0.0163193C3.68757 -0.0466843 3.23376 0.0743179 2.87366 0.352318C2.51366 0.629318 2.27677 1.04132 2.21527 1.49632C2.21527 1.49632 0.0158691 17.7583 0.0158691 17.7583C-0.0456314 18.2133 0.0731659 18.6743 0.346169 19.0403C0.61927 19.4063 1.02407 19.6473 1.47177 19.7103C1.47177 19.7103 7.65057 20.5733 7.65057 20.5733C8.09827 20.6353 8.55207 20.5153 8.91207 20.2373C9.27217 19.9603 9.50896 19.5483 9.57056 19.0933C9.57056 19.0933 11.0837 7.90532 11.0837 7.90532L11.1901 7.92032C11.1901 7.92032 11.4755 5.81032 11.4755 5.81032Z" fill="#3F3D56" transform="translate(85.472 114.05)" />
    <path d="M9.39571 0.839386C9.39571 0.839386 8.62651 0.731384 8.62651 0.731384C8.64991 0.825386 8.65051 0.922386 8.62811 1.01538C8.60571 1.10938 8.56111 1.19538 8.49821 1.26738C8.43521 1.33939 8.35591 1.39438 8.26711 1.42738C8.17841 1.46038 8.08301 1.47038 7.98931 1.45738C7.98931 1.45738 4.61301 0.986382 4.61301 0.986382C4.51931 0.973381 4.43021 0.936386 4.35361 0.880379C4.27701 0.824379 4.21521 0.749382 4.17361 0.663383C4.13211 0.576385 4.11201 0.481384 4.11531 0.385384C4.11851 0.289383 4.145 0.195381 4.19231 0.112381C4.19231 0.112381 3.47371 0.0113831 3.47371 0.0113831C3.31581 -0.0106201 3.1552 -0.000617981 3.00101 0.0403824C2.84691 0.0813828 2.70211 0.153381 2.57511 0.251381C2.4481 0.34938 2.34141 0.471382 2.26091 0.611382C2.1804 0.751381 2.12781 0.90538 2.10611 1.06638C2.10611 1.06638 0.0113068 16.5554 0.0113068 16.5554C-0.0103912 16.7154 -0.000793457 16.8784 0.0396042 17.0354C0.0800095 17.1924 0.150307 17.3394 0.246605 17.4684C0.342911 17.5974 0.46331 17.7064 0.600906 17.7874C0.73851 17.8694 0.890511 17.9234 1.04841 17.9454C1.04841 17.9454 6.97041 18.7724 6.97041 18.7724C7.28931 18.8174 7.61251 18.7314 7.86901 18.5334C8.1254 18.3354 8.2942 18.0424 8.33801 17.7184C8.33801 17.7184 10.4328 2.22939 10.4328 2.22939C10.4766 1.90538 10.392 1.57639 10.1975 1.31638C10.003 1.05538 9.71461 0.883385 9.39571 0.839386C9.39571 0.839386 9.39571 0.839386 9.39571 0.839386Z" fill="#FFFFFF" transform="translate(86.196 114.96)" />
    <path d="M0.29995 0.610001C0.2204 0.610001 0.14411 0.578003 0.0878601 0.520996C0.03161 0.464005 0 0.386002 0 0.305008C0 0.223999 0.03161 0.147003 0.0878601 0.0899963C0.14411 0.0319977 0.2204 0 0.29995 0C0.29995 0 114.58 0 114.58 0C114.66 0 114.736 0.0319977 114.793 0.0899963C114.849 0.147003 114.88 0.223999 114.88 0.305008C114.88 0.386002 114.849 0.464005 114.793 0.520996C114.736 0.578003 114.66 0.610001 114.58 0.610001C114.58 0.610001 0.29995 0.610001 0.29995 0.610001Z" fill="#3F3D56" transform="translate(7.221 199.39)" />
  </g>
</svg>