<?xml version="1.0" encoding="utf-8"?>
<svg width="339" height="248" viewBox="0 0 339 248" fill="none" xmlns="http://www.w3.org/2000/svg">
  <g>
    <g transform="translate(92.313 74.145)">
      <path d="M88.45 44.2333C88.45 25.2244 76.3098 8.34534 58.2936 2.30017C40.2772 -3.74512 20.4132 2.39502 8.95081 17.5524C-2.5116 32.7096 -3.00952 53.4951 7.71399 69.1838C9.98901 72.5038 26.072 92.2649 36.089 104.52C38.0638 106.937 41.0184 108.341 44.1395 108.346C47.2607 108.351 50.2197 106.956 52.202 104.545C62.291 92.2788 78.5231 72.4448 80.838 69.0448C85.8134 61.7301 88.4672 53.0851 88.453 44.2386C88.453 44.2386 88.45 44.2333 88.45 44.2333Z" fill="#011721" transform="translate(49.622 44.798)" />
      <path d="M88.45 44.2333C88.45 25.2244 76.3098 8.34534 58.2936 2.30017C40.2772 -3.74512 20.4132 2.39502 8.95081 17.5524C-2.5116 32.7096 -3.00952 53.4951 7.71399 69.1838C9.98901 72.5038 26.072 92.2649 36.089 104.52C38.0638 106.937 41.0184 108.341 44.1395 108.346C47.2607 108.351 50.2197 106.956 52.202 104.545C62.291 92.2788 78.5231 72.4448 80.838 69.0448C85.8134 61.7301 88.4672 53.0851 88.453 44.2386C88.453 44.2386 88.45 44.2333 88.45 44.2333Z" fill="#549C22" fill-opacity="0.88" transform="translate(49.622 44.798)" />
      <path d="M0 0.0202637C0 0.0202637 0.358032 0.00427246 0.358032 0.00427246C0.238525 -0.00488281 0.118286 0.000488281 0.00012207 0.0202637C0.00012207 0.0202637 0 0.0202637 0 0.0202637Z" fill="#05293C" transform="translate(56.009 0)" />
      <path d="M18.8732 83.3462C18.897 66.6418 26.7705 50.9221 40.132 40.9001C53.4935 30.8783 70.7888 27.72 86.8301 32.3726C82.1287 15.4729 67.8832 2.94934 50.5204 0.451904C33.1576 -2.04565 15.96 5.9552 6.68591 20.8446C-2.58801 35.7341 -2.18506 54.6975 7.71313 69.1797C9.61316 71.9576 21.1831 86.2417 30.7781 98.0107C26.8781 93.2238 22.6481 88.0227 18.8781 83.3468C18.8781 83.3468 18.8732 83.3462 18.8732 83.3462Z" fill="#549C22" transform="translate(49.606 44.799)" />
      <path d="M49.2661 24.6331C49.2661 38.2374 38.2375 49.266 24.6331 49.2661C11.0287 49.2661 0.00012207 38.2375 0 24.6332C0 11.0287 11.0286 0.00012207 24.6329 0C38.2373 0 49.266 11.0287 49.266 24.6331C49.266 24.6331 49.2661 24.6331 49.2661 24.6331Z" fill="#FFFFFF" transform="translate(69.213 64.398)" />
      <path d="M0.00012207 28.4761C8.06372 38.9739 22.9832 41.2202 33.7805 33.5623C44.5778 25.9041 47.3905 11.0811 40.1492 0C22.9144 2.35449 7.92053 12.989 0 28.4761C0 28.4761 0.00012207 28.4761 0.00012207 28.4761Z" fill="#011721" transform="translate(74.318 75.564)" />
      <path d="M0.00012207 28.4761C8.06372 38.9739 22.9832 41.2202 33.7805 33.5623C44.5778 25.9041 47.3905 11.0811 40.1492 0C22.9144 2.35449 7.92053 12.989 0 28.4761C0 28.4761 0.00012207 28.4761 0.00012207 28.4761Z" fill="#FFFFFF" fill-opacity="0.88" transform="translate(74.318 75.564)" />
      <path d="M145.896 0.355469C145.896 0.355469 0.191467 0.355469 0.191467 0.355469C0.124817 0.360596 0.0609741 0.327881 0.026123 0.270752C-0.00872803 0.213867 -0.00872803 0.14209 0.026123 0.0852051C0.0609741 0.0280762 0.124817 -0.00463867 0.191467 0.000488281C0.191467 0.000488281 145.896 0.000488281 145.896 0.000488281C145.963 -0.00463867 146.027 0.0280762 146.062 0.0852051C146.097 0.14209 146.097 0.213867 146.062 0.270752C146.027 0.327881 145.963 0.360596 145.896 0.355469C145.896 0.355469 145.896 0.355469 145.896 0.355469Z" fill="#011721" transform="translate(0 152.962)" />
    </g>
  </g>
</svg>