<?xml version="1.0" encoding="utf-8"?>
<svg width="339" height="221" viewBox="0 0 339 221" fill="none" xmlns="http://www.w3.org/2000/svg">
  <defs>
    <clipPath id="clip_path_1">
      <rect width="339" height="221" />
    </clipPath>
  </defs>
  <g clip-path="url(#clip_path_1)">
    <rect width="339" height="221" />
    <path d="M138.938 0L0 89.249L18.929 220.249L237.409 220.249L264.644 107.616L138.938 0Z" fill="#F6F5FA" transform="translate(37.178 0.303)" />
    <path d="M138.938 0L0 89.248L18.93 220.248L237.409 220.248L264.644 107.615L138.938 0Z" fill="#549C22" fill-opacity="0.1" transform="translate(37.178 0.303)" />
    <g transform="translate(48.69 94.414)">
      <path d="M72.684 3.74202C72.6896 2.75512 72.3029 1.80645 71.609 1.10469C70.9151 0.402931 69.9709 0.00556946 68.984 2.28882e-05C68.984 2.28882e-05 3.75 2.28882e-05 3.75 2.28882e-05C1.68611 -0.00717163 0.00717163 1.66013 0 3.72402C0 3.72402 0 44.907 0 44.907C0.00605774 46.9743 1.68273 48.6474 3.75 48.649C3.75 48.649 68.942 48.649 68.942 48.649C71.0053 48.6512 72.6798 46.9804 72.682 44.917C72.682 44.917 72.682 3.74202 72.682 3.74202C72.682 3.74202 72.684 3.74202 72.684 3.74202Z" fill="#549C22" fill-rule="evenodd" transform="translate(90 48)" />
      <path d="M55.448 3.109C55.4486 1.39257 54.0576 0.000591278 52.3411 0C52.3411 0 3.118 0 3.118 0C1.3988 -0.00165939 0.00331116 1.3898 0 3.109C0 3.109 0 35.952 0 35.952C0 35.952 24.518 54.441 24.518 54.441C26.4148 55.8751 29.0332 55.8751 30.93 54.441C30.93 54.441 55.448 35.952 55.448 35.952C55.448 35.952 55.448 3.109 55.448 3.109Z" fill="#FFFFFF" fill-rule="evenodd" transform="translate(98 19)" />
      <path d="M56.352 3.56C56.3488 1.59273 54.7527 -0.000429153 52.7853 5.72205e-06C52.7853 5.72205e-06 3.56704 5.72205e-06 3.56704 5.72205e-06C1.60036 -0.00330925 0.0033493 1.58832 3.8147e-05 3.55501C3.8147e-05 3.55501 3.8147e-05 36.403 3.8147e-05 36.403C-0.00193787 36.5449 0.0670929 36.6785 0.184036 36.759C0.184036 36.759 17.392 49.752 24.694 55.248C26.7503 56.8082 29.5938 56.8082 31.65 55.248C38.95 49.748 56.168 36.759 56.168 36.759C56.285 36.6785 56.354 36.545 56.352 36.403C56.352 36.403 56.352 3.56 56.352 3.56ZM55.452 3.56C55.452 3.56 55.452 36.18 55.452 36.18C53.614 37.562 37.979 49.361 31.118 54.533C29.3752 55.8412 26.9779 55.8412 25.235 54.533C25.235 54.533 0.901039 36.18 0.901039 36.18C0.901039 36.18 0.901039 3.56 0.901039 3.56C0.904877 2.08702 2.09801 0.893862 3.57102 0.890005C3.57102 0.890005 52.79 0.890005 52.79 0.890005C54.2611 0.89551 55.451 2.08898 55.452 3.56C55.452 3.56 55.452 3.56 55.452 3.56Z" fill="#549C22" fill-rule="evenodd" transform="translate(98 18)" />
      <path d="M0.164146 0.808105C0.164146 0.808105 23.3961 18.3301 32.0991 24.8831C34.1707 26.4461 37.0276 26.4461 39.0992 24.8831C47.7881 18.3301 71.0331 0.808105 71.0331 0.808105C71.2241 0.653778 71.261 0.377068 71.1172 0.178108C70.9671 -0.0197296 70.6852 -0.0586624 70.4872 0.0911102C70.4872 0.0911102 47.2552 17.6151 38.5632 24.1661C36.8081 25.491 34.3872 25.491 32.6322 24.1661C23.9402 17.6151 0.709152 0.0911102 0.709152 0.0911102C0.510864 -0.0472946 0.238708 -0.00469208 0.0922089 0.187698C-0.0542908 0.380081 -0.022995 0.65377 0.163155 0.808113C0.163155 0.808113 0.164146 0.808105 0.164146 0.808105Z" fill="#FFFFFF" fill-rule="evenodd" transform="translate(90 48)" />
      <path d="M0.450005 0.899994C0.450005 0.899994 20.105 0.899994 20.105 0.899994C20.3535 0.899994 20.555 0.698524 20.555 0.449997C20.555 0.201469 20.3535 0 20.105 0C20.105 0 0.450005 0 0.450005 0C0.201469 0 0 0.201469 0 0.449997C0 0.698524 0.201469 0.899994 0.450005 0.899994C0.450005 0.899994 0.450005 0.899994 0.450005 0.899994Z" fill="#549C22" fill-rule="evenodd" transform="translate(114.294 32.189)" />
      <path d="M0.457504 0.908997C0.457504 0.908997 38.2645 0.908997 38.2645 0.908997C38.5155 0.908997 38.719 0.705513 38.719 0.454498C38.719 0.203484 38.5155 0 38.2645 0C38.2645 0 0.454498 0 0.454498 0C0.203491 0 0 0.203484 0 0.454498C0 0.705513 0.203491 0.908997 0.454498 0.908997C0.454498 0.908997 0.457504 0.908997 0.457504 0.908997Z" fill="#549C22" fill-rule="evenodd" transform="translate(107.259 40.08)" />
      <path d="M0.436646 0.9095C0.436646 0.9095 38.2436 0.9095 38.2436 0.9095C38.4111 0.917374 38.5694 0.832504 38.6554 0.688644C38.7415 0.544777 38.7415 0.365227 38.6554 0.221359C38.5694 0.0774994 38.4111 -0.00737 38.2436 0.00050354C38.2436 0.00050354 0.43364 0.00050354 0.43364 0.00050354C0.190926 0.0119095 0 0.212021 0 0.455002C0 0.697983 0.190918 0.898094 0.43364 0.9095C0.43364 0.9095 0.436646 0.9095 0.436646 0.9095Z" fill="#549C22" fill-rule="evenodd" transform="translate(107.28 46.99)" />
      <path d="M0.455864 0.907997C0.455864 0.907997 38.2629 0.907997 38.2629 0.907997C38.5132 0.907364 38.7157 0.704285 38.7157 0.453995C38.7157 0.203705 38.5132 0.00062561 38.2629 0C38.2629 0 0.452858 0 0.452858 0C0.202568 0.00062561 0 0.203705 0 0.453995C0 0.704285 0.202568 0.907364 0.452858 0.90799C0.452858 0.90799 0.455864 0.907997 0.455864 0.907997Z" fill="#549C22" fill-rule="evenodd" transform="translate(107.261 53.887)" />
      <path d="M13.0594 12.4194C13.0594 12.4194 0.766418 0.13142 0.766418 0.13142C0.591042 -0.0438499 0.306808 -0.0438004 0.131493 0.131531C-0.0438156 0.306862 -0.0438309 0.591099 0.131454 0.766453C0.131454 0.766453 12.4234 13.0544 12.4234 13.0544C12.5368 13.1679 12.7022 13.2122 12.8572 13.1707C13.0121 13.1292 13.1332 13.0082 13.1747 12.8532C13.2162 12.6982 13.1719 12.5329 13.0585 12.4195C13.0585 12.4195 13.0594 12.4194 13.0594 12.4194Z" fill="#549C22" fill-rule="evenodd" transform="translate(84 3)" />
      <path d="M3.30873 9.38868C3.30873 9.38868 0.878731 0.318684 0.878731 0.318684C0.808395 0.086956 0.566963 -0.0472412 0.333023 0.015358C0.0990906 0.0779533 -0.0430603 0.314793 0.011734 0.550682C0.011734 0.550682 2.44173 9.62068 2.44173 9.62068C2.51207 9.85241 2.7535 9.9866 2.98744 9.924C3.22137 9.86141 3.36353 9.62457 3.30873 9.38868C3.30873 9.38868 3.30873 9.38868 3.30873 9.38868Z" fill="#549C22" fill-rule="evenodd" transform="translate(97 0)" />
      <path d="M10.3507 2.63773C10.3507 2.63773 0.55069 0.011734 0.55069 0.011734C0.314804 -0.0430565 0.0779572 0.0990906 0.015358 0.333027C-0.0472412 0.566967 0.0869598 0.808403 0.318695 0.878738C0.318695 0.878738 10.1187 3.50474 10.1187 3.50474C10.2734 3.55552 10.4434 3.51861 10.5631 3.40826C10.6828 3.29791 10.7334 3.13142 10.6953 2.97314C10.6572 2.81486 10.5365 2.68958 10.3797 2.64574C10.3797 2.64574 10.3507 2.63773 10.3507 2.63773L10.3507 2.63773Z" fill="#549C22" fill-rule="evenodd" transform="translate(82 16.251)" />
      <path d="M0.44835 0.899994C0.44835 0.899994 234.505 0.899994 234.505 0.899994C234.753 0.899078 234.954 0.697876 234.954 0.449997C234.954 0.202118 234.753 0.000915527 234.505 0C234.505 0 0.44835 0 0.44835 0C0.200468 0.000915527 9.53674e-07 0.202118 0 0.449997C-9.53674e-07 0.697876 0.200465 0.899078 0.448347 0.899994C0.448347 0.899994 0.44835 0.899994 0.44835 0.899994Z" fill="#000045" fill-rule="evenodd" transform="translate(0 125.689)" />
    </g>
  </g>
</svg>