<svg xmlns="http://www.w3.org/2000/svg" xmlns:xlink="http://www.w3.org/1999/xlink" width="255" height="255" viewBox="0 0 255 255">
  <defs>
    <clipPath id="clip-path">
      <rect id="back" width="255" height="255" transform="translate(60 183)" fill="#fff"/>
    </clipPath>
    <linearGradient id="linear-gradient" x1="0.488" y1="-0.011" x2="0.512" y2="1.041" gradientUnits="objectBoundingBox">
      <stop offset="0" stop-color="#faffff"/>
      <stop offset="0.55" stop-color="#faffff"/>
      <stop offset="1" stop-color="#e5f9f6"/>
    </linearGradient>
  </defs>
  <g id="no_data_found_illustrator" transform="translate(17345 5782)">
    <g id="no_data_found_illustrator-2" data-name="no_data_found_illustrator" transform="translate(-17405 -5965)" clip-path="url(#clip-path)">
      <g id="no_data_found" data-name="no data found" transform="translate(60.123 183)">
        <path id="Path_15401" data-name="Path 15401" d="M254.754,127.377h0a127.174,127.174,0,0,1-7.229,42.4q-.6,1.7-1.25,3.388-1.479,3.838-3.2,7.554-1.931,4.184-4.154,8.2a127.324,127.324,0,0,1-7.4,11.8l-.106.151-.144.2-.007.01-.1.138q-.274.385-.552.768a128.1,128.1,0,0,1-13.5,15.777q-.389.386-.781.768l-.037.036a126.957,126.957,0,0,1-88.92,36.175h0a126.873,126.873,0,0,1-82.79-30.572q-3.156-2.7-6.131-5.6l-.037-.036q-.392-.383-.781-.768A128.089,128.089,0,0,1,24.136,202q-.225-.309-.447-.62l-.106-.148A126.79,126.79,0,0,1,0,127.377H0A127.377,127.377,0,0,1,127.377,0h0A127.377,127.377,0,0,1,254.754,127.377Z" fill="url(#linear-gradient)"/>
        <g id="illustrator">
          <g id="search_files" data-name="search files" transform="translate(45 -7.5)">
            <g id="notfound">
              <circle id="Ellipse_256" data-name="Ellipse 256" cx="13.949" cy="13.949" r="13.949" transform="translate(50.251 96.784)" fill="#fff"/>
              <circle id="Ellipse_280" data-name="Ellipse 280" cx="13.949" cy="13.949" r="13.949" transform="translate(50.251 96.784)" fill="#FA5252"/>
              <path id="Path_15432" data-name="Path 15432" d="M67.593,117.78l-10.44-10.44a2.591,2.591,0,0,1,0-3.654h0a2.591,2.591,0,0,1,3.654,0l10.439,10.439a2.591,2.591,0,0,1,0,3.654h0a2.591,2.591,0,0,1-3.653,0Z" fill="#fff"/>
              <path id="Path_15433" data-name="Path 15433" d="M71.247,107.34,60.808,117.78a2.591,2.591,0,0,1-3.654,0h0a2.591,2.591,0,0,1,0-3.654l10.439-10.439a2.591,2.591,0,0,1,3.654,0h0a2.591,2.591,0,0,1,0,3.653Z" fill="#fff"/>            </g>
            <g id="magnifire">
              <path id="Path_15434" data-name="Path 15434" d="M93.362,95.8A32.76,32.76,0,1,0,76.75,141.559l4.135,7.764,6.024-3.208-4.135-7.764A32.763,32.763,0,0,0,93.362,95.8ZM77.177,135.1A27.086,27.086,0,1,1,88.354,98.465,27.086,27.086,0,0,1,77.177,135.1Z" fill="#549C22"/>
              <path id="Path_15435" data-name="Path 15435" d="M49.049,82.28a32.761,32.761,0,0,0-6.387,53.383l4.086-3.965A27.085,27.085,0,1,1,85.473,94.124l4.088-3.967a32.769,32.769,0,0,0-40.513-7.876Z"/>
              <path id="Path_16632" data-name="Path 16632" d="M49.049,82.28a32.761,32.761,0,0,0-6.387,53.383l4.086-3.965A27.085,27.085,0,1,1,85.473,94.124l4.088-3.967a32.769,32.769,0,0,0-40.513-7.876Z" fill="#549C22" opacity="0.71"/>
              <path id="Path_15436" data-name="Path 15436" d="M114.867,205.88h0a5.6,5.6,0,0,1-7.554-2.3l-28.99-54.441a1.479,1.479,0,0,1,.61-2l7.247-3.86a1.479,1.479,0,0,1,2,.61l28.99,54.441a5.6,5.6,0,0,1-2.3,7.554Z" fill="#549C22"/>
              <path id="Path_15437" data-name="Path 15437" d="M78.933,147.135a1.479,1.479,0,0,0-.61,2l28.99,54.441a5.6,5.6,0,0,0,7.554,2.3L82.557,145.2Z" fill="#549C22"/>
              <path id="Path_15438" data-name="Path 15438" d="M89.228,98a28.076,28.076,0,1,0-11.585,37.977A28.076,28.076,0,0,0,89.228,98Zm-12.05,37.1A27.086,27.086,0,1,1,88.354,98.465,27.086,27.086,0,0,1,77.178,135.1Z"/>
              <path id="Path_16633" data-name="Path 16633" d="M89.228,98a28.076,28.076,0,1,0-11.585,37.977A28.076,28.076,0,0,0,89.228,98Zm-12.05,37.1A27.086,27.086,0,1,1,88.354,98.465,27.086,27.086,0,0,1,77.178,135.1Z" fill="#549C22" opacity="0.7"/>
              <circle id="Ellipse_257" data-name="Ellipse 257" cx="27.086" cy="27.086" r="27.086" transform="translate(37.361 84.111)" fill="#fff" opacity="0.35"/>
              <path id="Path_15439" data-name="Path 15439" d="M51.25,86.415a28.076,28.076,0,0,0-5.216,45.976l.714-.693A27.085,27.085,0,1,1,85.473,94.124l.714-.693A28.082,28.082,0,0,0,51.25,86.415Z" fill="#549C22" opacity="0.7"/>
            </g>
          </g>

        </g>
      </g>
    </g>
  </g>
</svg>