<?xml version="1.0" encoding="utf-8"?>
<svg width="255" height="255" viewBox="0 0 255 255" fill="none" xmlns="http://www.w3.org/2000/svg">
  <defs>
    <linearGradient id="gradient_1" gradientUnits="userSpaceOnUse" x1="124.32" y1="-2.802" x2="130.434" y2="265.189">
      <stop offset="0" stop-color="#FAFFFF" />
      <stop offset="0.55" stop-color="#FAFFFF" />
      <stop offset="1" stop-color="#E5F9F6" />
    </linearGradient>
    <clipPath id="clip_path_2">
      <rect width="255" height="255" />
    </clipPath>
    <clipPath id="clip_path_3">
      <rect width="26.957" height="13.227" />
    </clipPath>
    <clipPath id="clip_path_4">
      <rect width="46.281" height="18.687" />
    </clipPath>
    <clipPath id="clip_path_5">
      <rect width="66.728" height="24.477" />
    </clipPath>
    <clipPath id="clip_path_6">
      <rect width="10.796" height="10.796" />
    </clipPath>
  </defs>
  <g>
    <path d="M254.754 127.377C254.769 141.82 252.324 156.159 247.525 169.779C247.125 170.912 246.708 172.042 246.275 173.167C245.289 175.726 244.222 178.243 243.075 180.721C241.787 183.51 240.403 186.243 238.921 188.921C236.671 192.986 234.201 196.925 231.521 200.721C231.521 200.721 231.415 200.872 231.415 200.872L231.271 201.072L231.264 201.082C231.264 201.082 231.163 201.22 231.163 201.22C230.981 201.477 230.797 201.733 230.611 201.988C226.546 207.604 222.031 212.88 217.111 217.765C216.852 218.022 216.592 218.278 216.33 218.533C216.33 218.533 216.293 218.569 216.293 218.569C192.53 241.8 160.606 254.788 127.373 254.744C127.373 254.744 127.373 254.744 127.373 254.744C97.0074 254.789 67.6323 243.942 44.5834 224.172C42.4794 222.372 40.4357 220.505 38.4524 218.572C38.4524 218.572 38.4154 218.536 38.4154 218.536C38.1541 218.281 37.8937 218.025 37.6344 217.768C32.7159 212.886 28.2016 207.612 24.1362 202C23.9862 201.794 23.8372 201.587 23.6892 201.38C23.6892 201.38 23.5832 201.232 23.5832 201.232C8.20362 179.68 -0.0430279 153.854 0.000169754 127.377C0.000169754 127.377 0.000162125 127.377 0.000162125 127.377C0.000169754 57.0286 57.0288 0 127.377 0C127.377 0 127.377 0 127.377 0C197.726 0 254.754 57.0286 254.754 127.377C254.754 127.377 254.754 127.377 254.754 127.377Z" fill="url(#gradient_1)" transform="translate(0.123 0)" />
    <path d="M41.3028 163.904C41.3028 163.904 136.414 163.904 136.414 163.904C169.81 142.744 185.207 102.062 174.19 64.0926C163.174 26.1229 128.394 0 88.8584 0C49.3228 0 14.5431 26.123 3.5265 64.0927C-7.4901 102.062 7.90684 142.744 41.3029 163.904C41.3029 163.904 41.3028 163.904 41.3028 163.904Z" fill="#FFFFFF" transform="translate(44.573 49.765)" />
    <path d="M8.39233e-05 88.8581C-0.0181885 102.079 2.92924 115.142 8.62551 127.08C8.62551 127.08 97.6205 127.08 97.6205 127.08C137.343 101.899 150.576 50.134 127.811 8.97971C100.268 -4.43993 67.7561 -2.72826 41.7751 13.5092C15.7942 29.7467 0.00769043 58.2204 9.15527e-05 88.8581C9.15527e-05 88.8581 8.39233e-05 88.8581 8.39233e-05 88.8581Z" fill="#549C22" fill-opacity="0.1" transform="translate(83.379 86.585)" />
    <g>
      <g clip-path="url(#clip_path_2)">
        <g transform="translate(36 81)">
          <path d="M209.645 0.338013C209.645 0.338013 0.261999 0.338013 0.261999 0.338013C0.116999 0.338013 0 0.262009 0 0.169006C0 0.076004 0.118 0 0.261999 0C0.261999 0 209.645 0 209.645 0C209.79 0 209.907 0.076004 209.907 0.169006C209.907 0.262009 209.789 0.338013 209.645 0.338013C209.645 0.338013 209.645 0.338013 209.645 0.338013Z" fill="#011721" transform="translate(0 196.71)" />
          <path d="M23.0704 13.2245C21.7028 13.2263 20.4347 12.5099 19.7304 11.3375C18.4192 9.13404 16.0445 7.78388 13.4804 7.78388C10.9164 7.78388 8.54172 9.13404 7.23045 11.3375C6.12228 13.1802 3.73014 13.7756 1.88744 12.6675C0.0447464 11.5593 -0.550713 9.16717 0.557442 7.32447C3.27737 2.78107 8.18362 0 13.4789 0C18.7743 0 23.6805 2.78107 26.4004 7.32447C27.123 8.52666 27.1432 10.0245 26.4533 11.2458C25.7634 12.467 24.4701 13.2228 23.0675 13.2245C23.0675 13.2245 23.0704 13.2245 23.0704 13.2245Z" fill="#000000" transform="translate(89.469 30.842)" />
          <path d="M42.3902 18.6824C41.0226 18.6843 39.7544 17.9678 39.0502 16.7954C35.6974 11.2063 29.6578 7.78629 23.1402 7.78629C16.6226 7.78629 10.5829 11.2063 7.23019 16.7954C6.1223 18.6381 3.73038 19.2338 1.88769 18.1259C0.0449905 17.018 -0.550697 14.6261 0.55719 12.7834C5.3181 4.85236 13.8904 0 23.1407 0C32.391 0 40.9633 4.85236 45.7242 12.7834C46.4468 13.9856 46.467 15.4835 45.7771 16.7047C45.0872 17.9259 43.7938 18.6818 42.3912 18.6834C42.3912 18.6834 42.3902 18.6824 42.3902 18.6824Z" fill="#000000" transform="translate(79.813 19.587)" />
          <path d="M3.88489 24.4713C2.48389 24.4659 1.19346 23.7094 0.504364 22.4896C-0.184731 21.2698 -0.166588 19.7741 0.551888 18.5713C7.46791 7.04941 19.9212 0 33.3594 0C46.7976 0 59.2509 7.04941 66.1669 18.5713C67.2748 20.414 66.6791 22.8059 64.8364 23.9138C62.9937 25.0217 60.6018 24.426 59.4939 22.5833C53.9861 13.4028 44.0653 7.78546 33.3594 7.78546C22.6535 7.78546 12.7326 13.4028 7.22488 22.5833C6.52024 23.7553 5.25237 24.4716 3.88489 24.4703C3.88489 24.4703 3.88489 24.4713 3.88489 24.4713Z" fill="#000000" transform="translate(69.593 7.664)" />
          <path d="M5.40001 0C8.38235 3.8147e-06 10.8 2.41766 10.8 5.4C10.8 8.38234 8.38235 10.8 5.4 10.8C2.41766 10.8 0 8.38234 0 5.4C0 2.41766 2.41766 0 5.4 0C5.4 0 5.40001 0 5.40001 0Z" fill="#000000" transform="translate(97.553 41.769)" />
          <g transform="translate(89.472 30.839)">
            <g>
              <g clip-path="url(#clip_path_3)">
                <path d="M23.0704 13.2245C21.7028 13.2263 20.4347 12.5099 19.7304 11.3375C18.4192 9.13404 16.0445 7.78388 13.4804 7.78388C10.9164 7.78388 8.54172 9.13404 7.23045 11.3375C6.12228 13.1802 3.73014 13.7756 1.88744 12.6675C0.0447464 11.5593 -0.550713 9.16717 0.557442 7.32447C3.27737 2.78107 8.18362 0 13.4789 0C18.7743 0 23.6805 2.78107 26.4004 7.32447C27.123 8.52665 27.1432 10.0245 26.4533 11.2458C25.7634 12.467 24.4701 13.2228 23.0675 13.2245C23.0675 13.2245 23.0704 13.2245 23.0704 13.2245Z" fill="#549C22" transform="translate(-0.003 0.003)" />
              </g>
            </g>
          </g>
          <g transform="translate(79.813 19.583)">
            <g>
              <g clip-path="url(#clip_path_4)">
                <path d="M42.3902 18.6824C41.0226 18.6843 39.7544 17.9678 39.0502 16.7954C35.6974 11.2063 29.6578 7.78629 23.1402 7.78629C16.6226 7.78629 10.5829 11.2063 7.23019 16.7954C6.1223 18.6381 3.73039 19.2338 1.88769 18.1259C0.0449905 17.018 -0.550697 14.6261 0.55719 12.7834C5.3181 4.85236 13.8904 0 23.1407 0C32.391 0 40.9633 4.85236 45.7242 12.7834C46.4468 13.9856 46.467 15.4835 45.7771 16.7047C45.0872 17.9259 43.7938 18.6818 42.3912 18.6834C42.3912 18.6834 42.3902 18.6824 42.3902 18.6824Z" fill="#549C22" transform="translate(-0 0.004)" />
              </g>
            </g>
          </g>
          <g transform="translate(69.589 7.658)">
            <g>
              <g clip-path="url(#clip_path_5)">
                <path d="M3.88489 24.4713C2.48389 24.4659 1.19346 23.7094 0.504364 22.4896C-0.184731 21.2698 -0.166588 19.7741 0.551888 18.5713C7.46791 7.04941 19.9212 0 33.3594 0C46.7976 0 59.2509 7.04941 66.1669 18.5713C67.2748 20.414 66.6791 22.8059 64.8364 23.9138C62.9937 25.0217 60.6018 24.426 59.4939 22.5833C53.9861 13.4028 44.0653 7.78546 33.3594 7.78546C22.6535 7.78546 12.7326 13.4028 7.22488 22.5833C6.52024 23.7553 5.25237 24.4716 3.88489 24.4703C3.88489 24.4703 3.88489 24.4713 3.88489 24.4713Z" fill="#549C22" transform="translate(0.004 0.006)" />
              </g>
            </g>
          </g>
          <g transform="translate(97.555 41.769)">
            <g>
              <g clip-path="url(#clip_path_6)">
                <path d="M5.40001 0C8.38235 3.8147e-06 10.8 2.41766 10.8 5.4C10.8 8.38234 8.38235 10.8 5.4 10.8C2.41766 10.8 0 8.38234 0 5.4C0 2.41766 2.41766 0 5.4 0C5.4 0 5.40001 0 5.40001 0Z" fill="#549C22" transform="translate(-0.002 0)" />
              </g>
            </g>
          </g>
          <path d="M5.28349 5.36664C5.28349 5.36664 6.88348 0.208641 6.88348 0.208641C4.07968 -0.591679 1.1469 0.978367 0.258217 3.75542C-0.630463 6.53247 0.845947 9.51349 3.59348 10.4896C3.59348 10.4896 5.28748 5.36664 5.28748 5.36664L5.28349 5.36664Z" fill="#549C22" transform="translate(97.67 41.801)" />
          <path d="M15.9814 8.23909C15.9814 8.23909 18.2894 0.777088 18.2894 0.777088C16.7385 0.260273 15.1142 -0.00211716 13.4794 8.7738e-05C8.17912 -0.0178566 3.2644 2.76812 0.557442 7.32509C-0.550713 9.16779 0.0447464 11.5599 1.88744 12.6681C3.73014 13.7762 6.12228 13.1808 7.23045 11.3381C9.01524 8.32604 12.6986 7.02123 15.9815 8.23809C15.9815 8.23809 15.9814 8.23909 15.9814 8.23909Z" fill="#549C22" transform="translate(89.473 30.841)" />
          <path d="M28.9762 8.716C28.9762 8.716 31.2672 1.308 31.2672 1.308C28.6443 0.445259 25.9013 0.00378036 23.1402 0C13.8985 0.0316391 5.34087 4.87566 0.55719 12.783C-0.55069 14.6257 0.0449982 17.0176 1.8877 18.1255C3.73039 19.2334 6.12231 18.6377 7.23019 16.795C10.5644 11.1869 16.6159 7.76028 23.1402 7.786C25.1225 7.78426 27.0924 8.09784 28.9762 8.71501C28.9762 8.71501 28.9762 8.716 28.9762 8.716Z" fill="#549C22" transform="translate(79.812 19.585)" />
          <path d="M42.7756 9.245C42.7756 9.245 45.0626 1.852 45.0626 1.852C41.3005 0.631435 37.3707 0.00655365 33.4156 0C19.9896 0.044281 7.55687 7.08165 0.608597 18.57C-0.141708 19.7493 -0.202408 21.2403 0.449562 22.4766C1.10152 23.713 2.36613 24.5051 3.76308 24.5521C5.16003 24.5991 6.47501 23.8938 7.2086 22.704C7.2336 22.664 7.2576 22.624 7.28159 22.583C12.7578 13.3702 22.6982 7.74088 33.4156 7.78301C36.5922 7.78206 39.7498 8.27391 42.7756 9.24101C42.7756 9.24101 42.7756 9.245 42.7756 9.245Z" fill="#549C22" transform="translate(69.536 7.664)" />
          <path d="M0.0644302 13.9831C0.0399933 13.9849 0.0169067 13.9717 0.00611877 13.9497C-0.00466919 13.9277 -0.000976563 13.9013 0.0154266 13.8831C0.0904236 13.7831 7.61543 3.51712 16.2154 0.00311279C16.2455 -0.00694275 16.2782 0.00810242 16.2901 0.0374756C16.302 0.0668335 16.289 0.100388 16.2604 0.114105C7.69542 3.61411 0.187424 13.8501 0.112419 13.9541C0.101089 13.9699 0.0828323 13.9792 0.0634155 13.9791C0.0634155 13.9791 0.0644302 13.9831 0.0644302 13.9831Z" fill="#549C22" transform="translate(70.956 161.18)" />
          <path d="M0.0603561 11.811C0.0603561 11.811 0.0533524 11.811 0.0533524 11.811C0.0205307 11.8073 -0.00315857 11.7778 0.000343323 11.745C0.414497 7.86465 0.571175 3.96109 0.469345 0.0599976C0.469353 0.0268555 0.496216 0 0.52935 0C0.562485 0 0.589355 0.0268555 0.589348 0.0599976C0.691353 3.96606 0.534348 7.87463 0.119354 11.76C0.116264 11.7907 0.0902863 11.8141 0.0593567 11.814C0.0593567 11.814 0.0603561 11.811 0.0603561 11.811Z" fill="#549C22" transform="translate(75.495 146.308)" />
          <path d="M6.58863 4.87265C6.57852 4.87283 6.56853 4.87042 6.55963 4.86565C4.18274 3.56577 1.98356 1.96454 0.0166168 0.101624C-0.00629425 0.0775909 -0.00540161 0.0395355 0.0186234 0.0166168C0.0426483 -0.00630188 0.0807037 -0.00540161 0.103622 0.018631C2.06174 1.87218 4.2508 3.46532 6.61662 4.75865C6.64111 4.77164 6.65352 4.79971 6.64663 4.82657C6.63973 4.85344 6.61533 4.87207 6.58761 4.87166C6.58761 4.87166 6.58863 4.87265 6.58863 4.87265Z" fill="#549C22" transform="translate(56.75 177.119)" />
          <path d="M1.049 0L1.383 0.106003L0.289001 8.716L0 8.716L1.049 0Z" fill="#011721" transform="translate(59.213 57.658)" />
          <path d="M1.92118 1.921C4.48266 -0.640381 8.63554 -0.640327 11.197 1.92111C13.7584 4.48256 13.7584 8.63544 11.1969 11.1969C8.63554 13.7583 4.48265 13.7584 1.92117 11.197C0.691071 9.96694 0 8.2986 0 6.559C0 4.8194 0.691071 3.15105 1.92117 1.921C1.92117 1.921 1.92118 1.921 1.92118 1.921Z" fill="#FA6E53" transform="translate(99 68)" />
          <path d="M0.302132 6.90324C0.302132 6.90324 0.302132 6.90324 0.302132 6.90324C-0.100716 6.49799 -0.100716 5.8435 0.302132 5.43825C0.302132 5.43825 5.42713 0.313248 5.42713 0.313248C5.68764 0.0457306 6.07195 -0.0608978 6.43306 0.0341492C6.79416 0.129196 7.07618 0.411217 7.17123 0.772316C7.26627 1.13342 7.15965 1.51774 6.89213 1.77824C6.89213 1.77824 1.77113 6.90324 1.77113 6.90324C1.57642 7.09823 1.31217 7.20779 1.03662 7.20779C0.76107 7.20779 0.496826 7.09823 0.302116 6.90324C0.302116 6.90324 0.302132 6.90324 0.302132 6.90324Z" fill="#FFFFFF" transform="translate(102 71)" />
          <path d="M6.90324 6.90324C6.90324 6.90324 6.90324 6.90324 6.90324 6.90324C6.49799 7.30609 5.8435 7.30609 5.43825 6.90324C5.43825 6.90324 0.313248 1.77824 0.313248 1.77824C0.0457306 1.51773 -0.0608978 1.13342 0.0341492 0.772316C0.129196 0.411217 0.411217 0.129196 0.772316 0.0341492C1.13342 -0.0608978 1.51774 0.0457306 1.77824 0.313248C1.77824 0.313248 6.90324 5.44025 6.90324 5.44025C7.30531 5.84504 7.30531 6.49845 6.90324 6.90324C6.90324 6.90324 6.90324 6.90324 6.90324 6.90324Z" fill="#FFFFFF" transform="translate(102 71)" />
          <path d="M5.33438 22.0986C5.2971 22.0986 5.26476 22.0729 5.25638 22.0366C5.25638 22.0366 0.00337219 0.102623 0.00337219 0.102623C-0.00279236 0.0820694 -0.000442505 0.0598984 0.00990295 0.0410919C0.0202484 0.0222855 0.0377045 0.00843048 0.0583649 0.00262451C0.0583649 0.00262451 0.0583649 0.00262451 0.0583649 0.00262451C0.0794525 -0.00283813 0.101852 0.000305176 0.120621 0.0113754C0.139374 0.0224457 0.152969 0.0405197 0.158371 0.0616226C0.158371 0.0616226 0.158371 0.0616226 0.158371 0.0616226C0.158371 0.0616226 5.41138 21.9956 5.41138 21.9956C5.41754 22.0162 5.41519 22.0383 5.40485 22.0571C5.3945 22.076 5.37704 22.0898 5.35638 22.0956C5.35638 22.0956 5.33339 22.0956 5.33339 22.0956C5.33339 22.0956 5.33438 22.0986 5.33438 22.0986Z" fill="#549C22" transform="translate(111.492 67.46)" />
          <path d="M9.55875 3.35426C9.55019 3.35626 9.5413 3.35626 9.53275 3.35426C9.53275 3.35426 0.0547485 0.154259 0.0547485 0.154259C0.0132828 0.14045 -0.0094223 0.095932 0.0037384 0.0542603C0.0183792 0.0135345 0.0621643 -0.00879669 0.103729 0.00325775C0.103729 0.00325775 9.58173 3.20325 9.58173 3.20325C9.62198 3.21828 9.64317 3.26244 9.62971 3.30325C9.61825 3.3344 9.58892 3.35542 9.55573 3.35625C9.55573 3.35625 9.55875 3.35426 9.55875 3.35426Z" fill="#549C22" transform="translate(80.508 89.926)" />
          <path d="M38.9532 17.2273C38.9262 17.2276 38.901 17.214 38.8863 17.1913C36.2223 13.6212 32.9771 10.5244 29.2862 8.03032C20.7394 2.15718 10.4178 -0.564619 0.086235 0.33032C0.044838 0.336281 0.00640869 0.307682 0.000236511 0.266321C0.000236511 0.266321 0.000236511 0.255322 0.000236511 0.255322C-0.00141144 0.233824 0.00557709 0.212557 0.0196533 0.196228C0.0337296 0.179899 0.0537338 0.169855 0.0752335 0.16832C10.4482 -0.732565 20.8115 2.00234 29.3892 7.90432C33.0934 10.4095 36.3501 13.5195 39.0232 17.1043C39.0354 17.1218 39.04 17.1434 39.0361 17.1642C39.0321 17.1851 39.0199 17.2036 39.0022 17.2153C39.0022 17.2153 39.0022 17.2153 39.0022 17.2153C38.989 17.2244 38.9733 17.2293 38.9572 17.2293C38.9572 17.2293 38.9532 17.2273 38.9532 17.2273Z" fill="#011721" transform="translate(100.559 0)" />
        </g>
      </g>
    </g>
  </g>
</svg>