<?xml version="1.0" encoding="utf-8"?>
<svg width="241" height="200" viewBox="0 0 241 200" fill="none" xmlns="http://www.w3.org/2000/svg">
  <defs>
    <clipPath id="clip_path_1">
      <rect width="239.211" height="200" />
    </clipPath>
  </defs>
  <g>
    <g clip-path="url(#clip_path_1)" transform="translate(0.894 0)">
      <g transform="matrix(1 0 0 1 0 -0)">
        <path d="M94.4725 9.662C146.647 9.662 188.945 7.49901 188.945 4.83101C188.945 2.16301 146.647 0 94.4725 0C42.2966 0 0 2.16301 0 4.83101C0 7.49901 42.2966 9.662 94.4725 9.662Z" fill="#F2F2F2" transform="translate(17.886 190.338)" />
        <path d="M97.3944 46.4167C97.3944 46.4167 96.3214 46.4167 96.3214 46.4167C96.3214 46.4167 96.3214 17.0162 96.3214 17.0162C96.3214 12.5032 94.5284 8.1751 91.3374 4.98394C88.1464 1.79278 83.8184 4.98269e-06 79.3054 3.05225e-11C79.3054 3.05225e-11 17.0162 3.05225e-11 17.0162 3.05225e-11C12.5033 -8.54161e-06 8.1751 1.79275 4.984 4.9839C1.7928 8.17505 0 12.5032 0 17.0162C0 17.0162 0 178.309 0 178.309C0 182.822 1.7928 187.151 4.9839 190.342C8.1751 193.533 12.5032 195.326 17.0162 195.326C17.0162 195.326 79.3054 195.326 79.3054 195.326C83.8184 195.326 88.1464 193.533 91.3374 190.342C94.5284 187.151 96.3214 182.823 96.3214 178.31C96.3214 178.31 96.3214 67.3444 96.3214 67.3444L97.3944 67.3444C97.3944 67.3444 97.3944 46.4167 97.3944 46.4167Z" fill="#3F3D56" transform="translate(70.158 0)" />
        <path d="M88.0038 173.764C88.0038 177.134 86.6648 180.367 84.2818 182.75C81.8988 185.133 78.6658 186.472 75.2958 186.472C75.2958 186.472 12.7081 186.472 12.7081 186.472C9.3377 186.472 6.1054 185.133 3.7221 182.75C1.3389 180.367 0 177.134 0 173.764C0 173.764 0 12.708 0 12.708C0 9.33775 1.3389 6.10535 3.7222 3.72218C6.1054 1.33896 9.3377 6.00815e-05 12.7081 0C12.7081 0 20.3007 0 20.3007 0C19.9276 0.9168 19.7855 1.91123 19.887 2.89583C19.9884 3.88042 20.3302 4.82501 20.8824 5.64645C21.4346 6.46795 22.1801 7.14115 23.0535 7.60685C23.9269 8.07265 24.9018 8.31655 25.8908 8.31725C25.8908 8.31725 61.5758 8.31725 61.5758 8.31725C62.5658 8.31655 63.5398 8.07255 64.4138 7.60685C65.2868 7.14115 66.0328 6.46795 66.5848 5.64645C67.1368 4.82499 67.4788 3.88041 67.5798 2.89582C67.6818 1.91123 67.5398 0.9168 67.1668 0C67.1668 0 75.2958 0 75.2958 0C78.6658 6.00815e-05 81.8988 1.33896 84.2818 3.72218C86.6648 6.10535 88.0038 9.33775 88.0038 12.708C88.0038 12.708 88.0038 173.764 88.0038 173.764Z" fill="#FFFFFF" transform="translate(74.854 4.427)" />
        <path d="M23.175 6.21039C22.759 6.42779 22.336 6.63359 21.906 6.82769C21.514 7.00489 21.116 7.17129 20.711 7.32689C20.564 7.38329 20.414 7.43969 20.263 7.49599C19.075 7.92699 17.855 8.26349 16.613 8.50249C15.999 8.62319 15.376 8.71809 14.745 8.78699C14.225 8.84599 13.699 8.88799 13.167 8.91309C12.789 8.93189 12.41 8.93989 12.029 8.93989C10.52 8.94059 9.01399 8.79949 7.531 8.51859C7.144 8.44879 6.766 8.36559 6.388 8.27429C4.557 7.83569 2.785 7.18159 1.109 6.32589C0.958 6.25069 0.807999 6.17019 0.657997 6.09239C0.434998 5.97429 0.218002 5.85079 0 5.72199C0.104996 5.57709 0.218002 5.43479 0.333 5.29519C1.589 3.73889 3.158 2.46469 4.93999 1.55559C6.721 0.646492 8.674 0.122993 10.671 0.0191879C12.668 -0.08461 14.665 0.233589 16.531 0.952988C18.397 1.67249 20.09 2.77709 21.501 4.19489C21.99 4.68609 22.444 5.21169 22.859 5.76759C22.969 5.91249 23.073 6.06019 23.175 6.21039Z" fill="#549C22" transform="translate(119.52 80.371)" />
        <path d="M12.9798 16.469C17.2308 14.1455 18.7928 8.81615 16.4688 4.56565C14.1458 0.315052 8.81683 -1.24705 4.56583 1.07655C0.314827 3.40005 -1.24717 8.72935 1.07683 12.9799C3.39983 17.2304 8.72984 18.7926 12.9798 16.469Z" fill="#A0616A" transform="translate(122.239 58.34)" />
        <path d="M24.1542 0C18.8862 -0.000797272 13.7632 1.7208 9.56423 4.9024C5.36623 8.084 2.32323 12.5511 0.899239 17.6228C-0.524765 22.6946 -0.251762 28.0928 1.67724 32.9948C3.60623 37.8968 7.08524 42.0336 11.5832 44.7749C11.5832 44.7749 11.7392 44.8661 11.7392 44.8661C11.8682 44.944 11.9962 45.0191 12.1252 45.0916C12.3432 45.2204 12.5602 45.3439 12.7832 45.462C12.9332 45.5398 13.0832 45.6203 13.2342 45.6954C14.9102 46.5512 16.6822 47.2052 18.5132 47.6439C18.8912 47.7352 19.2702 47.8184 19.6562 47.8882C21.1392 48.1691 22.6452 48.3102 24.1542 48.3095C24.5352 48.3095 24.9142 48.3015 25.2922 48.2827C25.8242 48.2585 26.3502 48.2165 26.8702 48.1565C27.5012 48.0868 28.1242 47.9919 28.7382 47.8721C29.9802 47.6331 31.2002 47.2966 32.3882 46.8656C32.5392 46.8092 32.6892 46.7529 32.8372 46.6965C33.2422 46.5409 33.6402 46.3745 34.0312 46.1973C34.4602 46.0041 34.8832 45.7983 35.3002 45.58C39.4782 43.3919 42.9322 40.0384 45.2412 35.9262C45.2522 35.9047 45.2662 35.8832 45.2762 35.8618C46.5082 33.6506 47.3832 31.2583 47.8662 28.7737C48.5452 25.2759 48.4422 21.6713 47.5652 18.2179C46.6882 14.7646 45.0582 11.5479 42.7922 8.7982C40.5262 6.0485 37.6802 3.8339 34.4582 2.3128C31.2362 0.791801 27.7172 0.00200272 24.1542 0C24.1542 0 24.1542 0 24.1542 0ZM44.8362 35.5478C44.8152 35.5853 44.7962 35.6229 44.7742 35.6578C42.5112 39.7093 39.1062 43.0058 34.9842 45.1372C34.5732 45.3519 34.1552 45.5532 33.7302 45.7411C33.3792 45.8994 33.0192 46.0497 32.6572 46.1893C32.5042 46.2483 32.3482 46.3074 32.1922 46.361C31.1662 46.736 30.1142 47.0374 29.0442 47.2628C28.2512 47.4317 27.4492 47.5581 26.6422 47.6412C26.1462 47.6949 25.6412 47.7325 25.1342 47.7513C24.8092 47.7647 24.4822 47.7728 24.1542 47.7728C22.6942 47.7745 21.2362 47.6388 19.8012 47.3675C18.9282 47.2065 18.0652 46.995 17.2162 46.7341C15.9242 46.3347 14.6682 45.8256 13.4622 45.2123C13.3222 45.1399 13.1832 45.0674 13.0462 44.9923C12.8502 44.8876 12.6512 44.7802 12.4582 44.6648C12.3132 44.5843 12.1682 44.4984 12.0262 44.4126C11.9432 44.3642 11.8592 44.3133 11.7762 44.2623C7.83224 41.8402 4.68623 38.3134 2.72823 34.1195C0.770233 29.9256 0.0872345 25.2492 0.762238 20.6704C1.43823 16.0916 3.44324 11.8119 6.52924 8.3622C9.61523 4.9126 13.6452 2.4448 18.1212 1.2651C22.5962 0.0853004 27.3202 0.245502 31.7052 1.7258C36.0902 3.2061 39.9442 5.9413 42.7892 9.5921C45.6342 13.2429 47.3452 17.6487 47.7092 22.2627C48.0732 26.8768 47.0742 31.4962 44.8362 35.5478C44.8362 35.5478 44.8362 35.5478 44.8362 35.5478Z" fill="#3F3D56" transform="translate(107.395 41.002)" />
        <path d="M89.7977 48.8801C89.6306 48.8799 89.4654 48.8449 89.3125 48.7772C89.1597 48.7096 89.0227 48.6107 88.9103 48.4871C88.9103 48.4871 75.5924 33.9585 75.5924 33.9585C75.4413 33.794 75.2577 33.6626 75.0532 33.5726C74.8487 33.4827 74.6278 33.4361 74.4044 33.4358C74.4044 33.4358 4.02828 33.4358 4.02828 33.4358C2.96028 33.4346 1.93637 33.0098 1.18118 32.2546C0.425993 31.4995 0.00119901 30.4755 0 29.4075C0 29.4075 0 4.0283 0 4.0283C0.00119799 2.9603 0.425993 1.9364 1.18118 1.1812C1.93637 0.426001 2.96028 0.00119972 4.02828 0C4.02828 0 95.2059 0 95.2059 0C96.2739 0.00119972 97.2978 0.426001 98.053 1.1812C98.8082 1.9364 99.2327 2.9603 99.2337 4.0283C99.2337 4.0283 99.2337 29.4076 99.2337 29.4076C99.2327 30.4756 98.8082 31.4995 98.053 32.2547C97.2978 33.0098 96.2739 33.4346 95.2059 33.4358C95.2059 33.4358 92.621 33.4358 92.621 33.4358C92.1937 33.4363 91.7841 33.6063 91.4819 33.9084C91.1798 34.2106 91.0099 34.6202 91.0094 35.0475C91.0094 35.0475 91.0094 47.6705 91.0094 47.6705C91.0104 47.9142 90.9373 48.1525 90.7997 48.3536C90.6621 48.5548 90.4666 48.7093 90.2391 48.7966C90.0985 48.8517 89.9488 48.88 89.7977 48.8801Z" fill="#FFFFFF" transform="translate(0 25.93)" />
        <path d="M89.7977 48.8801C89.6306 48.8799 89.4654 48.8449 89.3125 48.7772C89.1597 48.7096 89.0227 48.6107 88.9103 48.4871C88.9103 48.4871 75.5924 33.9585 75.5924 33.9585C75.4413 33.794 75.2577 33.6626 75.0532 33.5726C74.8487 33.4827 74.6278 33.4361 74.4044 33.4358C74.4044 33.4358 4.02828 33.4358 4.02828 33.4358C2.96028 33.4346 1.93637 33.0098 1.18118 32.2546C0.425993 31.4995 0.00119901 30.4755 0 29.4075C0 29.4075 0 4.0283 0 4.0283C0.00119799 2.9603 0.425993 1.9364 1.18118 1.1812C1.93637 0.426001 2.96028 0.00119972 4.02828 0C4.02828 0 95.2059 0 95.2059 0C96.2739 0.00119972 97.2978 0.426001 98.053 1.1812C98.8082 1.9364 99.2327 2.9603 99.2337 4.0283C99.2337 4.0283 99.2337 29.4076 99.2337 29.4076C99.2327 30.4756 98.8082 31.4995 98.053 32.2547C97.2978 33.0098 96.2739 33.4346 95.2059 33.4358C95.2059 33.4358 92.621 33.4358 92.621 33.4358C92.1937 33.4363 91.7841 33.6063 91.4819 33.9084C91.1798 34.2106 91.0099 34.6202 91.0094 35.0475C91.0094 35.0475 91.0094 47.6705 91.0094 47.6705C91.0104 47.9142 90.9373 48.1525 90.7997 48.3536C90.6621 48.5548 90.4666 48.7093 90.2391 48.7966C90.0985 48.8517 89.9488 48.88 89.7977 48.8801ZM4.02828 0.5368C3.1026 0.5378 2.21512 0.906 1.56056 1.5605C0.906003 2.2151 0.537813 3.1026 0.536773 4.0283C0.536773 4.0283 0.536773 29.4076 0.536773 29.4076C0.537823 30.3332 0.906013 31.2207 1.56057 31.8753C2.21513 32.5298 3.1026 32.898 4.02828 32.8991C4.02828 32.8991 74.4044 32.8991 74.4044 32.8991C74.7022 32.8994 74.9967 32.9615 75.2693 33.0814C75.5418 33.2013 75.7866 33.3764 75.988 33.5957C75.988 33.5957 89.3059 48.1244 89.3059 48.1244C89.3974 48.2241 89.5168 48.2939 89.6486 48.3246C89.7804 48.3553 89.9184 48.3455 90.0445 48.2964C90.1706 48.2474 90.2789 48.1614 90.3553 48.0497C90.4317 47.938 90.4726 47.8059 90.4726 47.6705C90.4726 47.6705 90.4726 35.0475 90.4726 35.0475C90.4733 34.4779 90.6998 33.9318 91.1025 33.529C91.5053 33.1263 92.0514 32.8997 92.621 32.8991C92.621 32.8991 95.2059 32.8991 95.2059 32.8991C96.1316 32.898 97.019 32.5298 97.6736 31.8753C98.3282 31.2207 98.6963 30.3332 98.6974 29.4076C98.6974 29.4076 98.6974 4.0283 98.6974 4.0283C98.6963 3.1026 98.3282 2.2151 97.6736 1.5605C97.019 0.906 96.1316 0.5378 95.2059 0.5368C95.2059 0.5368 4.02828 0.5368 4.02828 0.5368Z" fill="#3F3D56" transform="translate(0 25.93)" />
        <path d="M3.52489 7.0498C5.47169 7.0498 7.04979 5.4717 7.04979 3.5249C7.04979 1.5782 5.47169 0 3.52489 0C1.57815 0 0 1.5782 0 3.5249C0 5.4717 1.57815 7.0498 3.52489 7.0498Z" fill="#549C22" transform="translate(6.356 30.075)" />
        <path d="M1.8822 3.7599C1.63513 3.7602 1.39043 3.7118 1.16209 3.6175C0.93374 3.5231 0.72623 3.3847 0.55142 3.2101C0.37661 3.0355 0.23794 2.8281 0.14332 2.5999C0.0486999 2.3717 0 2.127 0 1.88C0 1.6329 0.0486999 1.3882 0.14332 1.16C0.23794 0.931801 0.37661 0.7244 0.55142 0.549801C0.72623 0.375202 0.93374 0.236801 1.16209 0.142502C1.39043 0.0480995 1.63513 -0.000297546 1.8822 0C1.8822 0 84.835 0 84.835 0C85.3332 0.000602722 85.8108 0.198902 86.1629 0.551399C86.515 0.9039 86.7127 1.3818 86.7127 1.88C86.7127 2.3782 86.515 2.856 86.1629 3.2085C85.8108 3.561 85.3332 3.7593 84.835 3.7599C84.835 3.7599 1.8822 3.7599 1.8822 3.7599Z" fill="#E6E6E6" transform="translate(6.258 49.345)" />
        <path d="M1.8822 3.7599C1.63513 3.7602 1.39043 3.7118 1.16209 3.6175C0.93374 3.5231 0.72623 3.3847 0.55142 3.2101C0.37661 3.0355 0.23794 2.8281 0.14332 2.5999C0.0486999 2.3717 0 2.127 0 1.88C0 1.6329 0.0486999 1.3883 0.14332 1.16C0.23794 0.931801 0.37661 0.7244 0.55142 0.549801C0.72623 0.375202 0.93374 0.236801 1.16209 0.142502C1.39043 0.0480995 1.63513 -0.000301361 1.8822 0C1.8822 0 57.8107 0 57.8107 0C58.3093 0 58.7875 0.198101 59.14 0.550602C59.4926 0.903202 59.6907 1.3814 59.6907 1.88C59.6907 2.3786 59.4926 2.8567 59.14 3.2093C58.7875 3.5619 58.3093 3.7599 57.8107 3.7599C57.8107 3.7599 1.8822 3.7599 1.8822 3.7599Z" fill="#E6E6E6" transform="translate(6.258 41.355)" />
        <path d="M8.99501 48.796C8.76701 48.709 8.57201 48.554 8.43401 48.353C8.29601 48.152 8.22301 47.914 8.224 47.67C8.224 47.67 8.224 35.047 8.224 35.047C8.224 34.62 8.054 34.21 7.752 33.908C7.45001 33.606 7.04001 33.436 6.61301 33.435C6.61301 33.435 4.028 33.435 4.028 33.435C2.96001 33.434 1.936 33.009 1.181 32.254C0.425003 31.499 0.00100708 30.475 0 29.407C0 29.407 0 4.028 0 4.028C0.00100708 2.96 0.425003 1.936 1.181 1.181C1.936 0.426003 2.96001 0.000999451 4.028 0C4.028 0 95.205 0 95.205 0C96.273 0.000999451 97.297 0.426003 98.053 1.181C98.808 1.936 99.233 2.96 99.234 4.028C99.234 4.028 99.234 29.407 99.234 29.407C99.233 30.475 98.808 31.499 98.053 32.254C97.297 33.009 96.273 33.434 95.205 33.435C95.205 33.435 24.829 33.435 24.829 33.435C24.606 33.436 24.385 33.482 24.18 33.572C23.976 33.662 23.792 33.794 23.641 33.958C23.641 33.958 10.323 48.487 10.323 48.487C10.211 48.61 10.074 48.709 9.92101 48.777C9.76801 48.845 9.60301 48.88 9.436 48.88C9.285 48.88 9.13501 48.851 8.99501 48.796Z" fill="#FFFFFF" transform="translate(139.978 112.082)" />
        <path d="M8.99501 48.796C8.76701 48.709 8.57201 48.554 8.43401 48.353C8.29601 48.152 8.22301 47.914 8.224 47.67C8.224 47.67 8.224 35.047 8.224 35.047C8.224 34.62 8.054 34.21 7.752 33.908C7.45001 33.606 7.04001 33.436 6.61301 33.435C6.61301 33.435 4.028 33.435 4.028 33.435C2.96001 33.434 1.936 33.009 1.181 32.254C0.425003 31.499 0.00100708 30.475 0 29.407C0 29.407 0 4.028 0 4.028C0.00100708 2.96 0.425003 1.936 1.181 1.181C1.936 0.426003 2.96001 0.000999451 4.028 0C4.028 0 95.205 0 95.205 0C96.273 0.000999451 97.297 0.426003 98.053 1.181C98.808 1.936 99.233 2.96 99.234 4.028C99.234 4.028 99.234 29.407 99.234 29.407C99.233 30.475 98.808 31.499 98.053 32.254C97.297 33.009 96.273 33.434 95.205 33.435C95.205 33.435 24.829 33.435 24.829 33.435C24.606 33.436 24.385 33.482 24.18 33.572C23.976 33.662 23.792 33.794 23.641 33.958C23.641 33.958 10.323 48.487 10.323 48.487C10.211 48.61 10.074 48.709 9.92101 48.777C9.76801 48.845 9.60301 48.88 9.436 48.88C9.285 48.88 9.13501 48.851 8.99501 48.796ZM4.028 0.535995C3.10201 0.537003 2.21501 0.905998 1.56001 1.56C0.906006 2.215 0.537003 3.102 0.536011 4.028C0.536011 4.028 0.536011 29.407 0.536011 29.407C0.537003 30.333 0.906006 31.22 1.56001 31.875C2.21501 32.529 3.10201 32.898 4.028 32.899C4.028 32.899 6.61301 32.899 6.61301 32.899C7.18201 32.899 7.72801 33.126 8.13101 33.529C8.53401 33.931 8.76001 34.477 8.761 35.047C8.761 35.047 8.761 47.67 8.761 47.67C8.761 47.805 8.802 47.938 8.87801 48.049C8.955 48.161 9.063 48.247 9.18901 48.296C9.315 48.345 9.453 48.355 9.58501 48.324C9.71701 48.294 9.836 48.224 9.92801 48.124C9.92801 48.124 23.246 33.595 23.246 33.595C23.447 33.376 23.692 33.201 23.964 33.081C24.237 32.961 24.531 32.899 24.829 32.899C24.829 32.899 95.205 32.899 95.205 32.899C96.131 32.898 97.019 32.529 97.673 31.875C98.328 31.22 98.696 30.333 98.697 29.407C98.697 29.407 98.697 4.028 98.697 4.028C98.696 3.102 98.328 2.215 97.673 1.56C97.019 0.905998 96.131 0.537003 95.205 0.535995C95.205 0.535995 4.028 0.535995 4.028 0.535995Z" fill="#3F3D56" transform="translate(139.978 112.082)" />
        <path d="M25.134 7.21951C21.395 9.61452 17.063 10.9195 12.624 10.9905C8.185 11.0605 3.813 9.89351 0 7.61951C0.670799 6.37051 1.5208 5.22751 2.5229 4.22452C4.069 2.67151 5.951 1.49251 8.02399 0.77951C10.096 0.0665131 12.305 -0.161484 14.48 0.112518C16.654 0.38652 18.737 1.15552 20.569 2.35951C22.4 3.56451 23.931 5.17252 25.043 7.06151C25.073 7.11252 25.105 7.16652 25.134 7.21951Z" fill="#549C22" transform="translate(95.419 161.518)" />
        <path d="M16.5784 13.0658C18.9174 8.78778 17.3454 3.42279 13.0664 1.08379C8.78741 -1.25522 3.42242 0.316788 1.08342 4.59578C-1.25528 8.87479 0.317421 14.2398 4.59642 16.5788C8.87442 18.9178 14.2394 17.3448 16.5784 13.0658Z" fill="#FFB8B8" transform="translate(99.185 139.341)" />
        <path d="M24.14 48.2943C18.33 48.2923 12.7154 46.1963 8.32632 42.3893C3.93712 38.5833 1.06751 33.3213 0.243912 27.5703C-0.579681 21.8193 0.697914 15.9633 3.84232 11.0783C6.98682 6.19234 11.7872 2.60534 17.363 0.972343C22.939 -0.65966 28.916 -0.226654 34.199 2.19135C39.482 4.61034 43.715 8.85235 46.123 14.1393C48.531 19.4273 48.952 25.4053 47.308 30.9783C45.665 36.5503 42.067 41.3433 37.176 44.4783C33.286 46.9723 28.761 48.2973 24.14 48.2943ZM24.14 0.521339C19.468 0.521339 14.9009 1.90634 11.0163 4.50134C7.13161 7.09634 4.10381 10.7853 2.31582 15.1023C0.527718 19.4183 0.0598145 24.1673 0.971115 28.7493C1.88242 33.3313 4.13212 37.5403 7.43562 40.8443C10.739 44.1473 14.948 46.3973 19.53 47.3083C24.112 48.2193 28.862 47.7523 33.178 45.9633C37.494 44.1753 41.183 41.1483 43.778 37.2633C46.373 33.3783 47.758 28.8113 47.758 24.1393C47.751 17.8783 45.26 11.8743 40.832 7.44735C36.405 3.01934 30.402 0.528343 24.14 0.521339Z" fill="#3F3D56" transform="translate(83.523 124.485)" />
        <path d="M3.52499 7.05C5.472 7.05 7.05 5.472 7.05 3.525C7.05 1.578 5.472 0 3.52499 0C1.578 0 0 1.578 0 3.525C0 5.472 1.578 7.05 3.52499 7.05Z" fill="#549C22" transform="translate(147.796 115.959)" />
        <path d="M1.88301 3.76001C1.636 3.761 1.39101 3.71201 1.162 3.618C0.934006 3.524 0.727005 3.38501 0.552002 3.211C0.376999 3.03601 0.238007 2.82901 0.143997 2.60001C0.0490112 2.37201 0 2.127 0 1.88C0 1.633 0.0490112 1.38901 0.143997 1.16C0.238007 0.932007 0.376999 0.725006 0.552002 0.550003C0.727005 0.376007 0.934006 0.237 1.162 0.143005C1.39101 0.048996 1.636 0 1.88301 0C1.88301 0 84.835 0 84.835 0C85.334 0 85.812 0.197998 86.165 0.55101C86.517 0.904007 86.715 1.382 86.715 1.88C86.715 2.379 86.517 2.85701 86.165 3.21001C85.812 3.562 85.334 3.76001 84.835 3.76001C84.835 3.76001 1.88301 3.76001 1.88301 3.76001Z" fill="#E6E6E6" transform="translate(147.698 135.228)" />
        <path d="M1.88301 3.76001C1.636 3.76001 1.39101 3.71101 1.162 3.61702C0.934006 3.52301 0.727005 3.38402 0.552002 3.21002C0.376999 3.03502 0.238007 2.82802 0.143997 2.60002C0.0490112 2.37102 0 2.12701 0 1.88002C0 1.63301 0.0490112 1.38802 0.143997 1.16002C0.238007 0.931015 0.376999 0.724014 0.552002 0.549019C0.727005 0.375015 0.934006 0.236015 1.162 0.142014C1.39101 0.0480194 1.636 -0.000984192 1.88301 1.52588e-05C1.88301 1.52588e-05 57.811 1.52588e-05 57.811 1.52588e-05C58.309 1.52588e-05 58.787 0.19902 59.139 0.551018C59.491 0.904022 59.689 1.38101 59.689 1.88002C59.689 2.37802 59.491 2.85602 59.139 3.20802C58.787 3.56102 58.309 3.75902 57.811 3.76001C57.811 3.76001 1.88301 3.76001 1.88301 3.76001Z" fill="#E6E6E6" transform="translate(147.698 127.239)" />
        <path d="M6.576 1.46001C10.208 1.46001 13.153 1.133 13.153 0.729996C13.153 0.326996 10.208 0 6.576 0C2.944 0 0 0.326996 0 0.729996C0 1.133 2.944 1.46001 6.576 1.46001Z" fill="#F2F2F2" transform="translate(142.283 161.821)" />
        <path d="M6.5765 1.4598C10.2086 1.4598 13.1531 1.133 13.1531 0.729904C13.1531 0.326797 10.2086 0 6.5765 0C2.9444 0 0 0.326797 0 0.729904C0 1.133 2.9444 1.4598 6.5765 1.4598Z" fill="#F2F2F2" transform="translate(83.506 75.938)" />
      </g>
    </g>
  </g>
</svg>