<?xml version="1.0" encoding="utf-8"?>
<svg width="209" height="200" viewBox="0 0 209 200" fill="none" xmlns="http://www.w3.org/2000/svg">
  <defs>
    <clipPath id="clip_path_1">
      <rect width="208.429" height="200" />
    </clipPath>
  </defs>
  <g>
    <g clip-path="url(#clip_path_1)" transform="translate(0.286 0)">
      <g>
        <path d="M0.597 31.8713C1.386 31.9213 1.823 30.9403 1.226 30.3683C1.226 30.3683 1.166 30.1323 1.166 30.1323C1.174 30.1133 1.18201 30.0943 1.19 30.0763C1.98801 28.1723 4.69299 28.1853 5.48399 30.0913C6.187 31.7833 7.08099 33.4783 7.30099 35.2673C7.39999 36.0563 7.356 36.8613 7.17999 37.6353C8.826 34.0403 9.692 30.1143 9.692 26.1663C9.692 25.1743 9.638 24.1823 9.52699 23.1933C9.436 22.3833 9.31 21.5793 9.147 20.7823C8.26601 16.4743 6.35899 12.3703 3.60699 8.9433C2.285 8.22029 1.18201 7.08929 0.516006 5.73529C0.276001 5.24629 0.0890045 4.7213 0 4.1853C0.149994 4.20529 0.567001 1.91229 0.453995 1.77229C0.664001 1.4543 1.039 1.2953 1.26801 0.985291C2.408 -0.559708 3.97701 -0.289703 4.797 1.8093C6.547 2.69229 6.564 4.15829 5.49001 5.56729C4.80701 6.46429 4.713 7.67729 4.11301 8.6373C4.175 8.71629 4.239 8.7923 4.30099 8.87129C5.43201 10.3223 6.41 11.8823 7.235 13.5203C7.002 11.6993 7.34599 9.50529 7.933 8.09129C8.601 6.4803 9.853 5.12329 10.955 3.7303C12.279 2.0573 14.995 2.78729 15.228 4.90829C15.23 4.92929 15.232 4.9493 15.235 4.97029C15.071 5.0623 14.91 5.16029 14.754 5.2643C13.86 5.8553 14.169 7.2413 15.228 7.4043C15.228 7.4043 15.252 7.40829 15.252 7.40829C15.193 7.9973 15.091 8.58229 14.943 9.1573C16.358 14.6273 13.304 16.6193 8.94499 16.7083C8.849 16.7573 8.755 16.8073 8.658 16.8543C9.10001 18.0973 9.453 19.3733 9.715 20.6663C9.94901 21.8083 10.112 22.9633 10.203 24.1233C10.317 25.5863 10.307 27.0573 10.183 28.5183C10.183 28.5183 10.191 28.4663 10.191 28.4663C10.504 26.8573 11.378 25.3543 12.646 24.3133C14.536 22.7613 17.205 22.1893 19.243 20.9423C20.225 20.3413 21.482 21.1173 21.311 22.2553C21.311 22.2553 21.302 22.3093 21.302 22.3093C20.999 22.4333 20.703 22.5763 20.416 22.7363C20.253 22.8293 20.092 22.9273 19.936 23.0303C19.042 23.6223 19.351 25.0073 20.41 25.1713C20.41 25.1713 20.434 25.1743 20.434 25.1743C20.451 25.1773 20.466 25.1793 20.483 25.1823C19.962 26.4183 19.237 27.5653 18.329 28.5553C17.445 33.3293 13.647 33.7823 9.584 32.3923C9.584 32.3923 9.58099 32.3923 9.58099 32.3923C9.13699 34.3263 8.48801 36.2173 7.65401 38.0183C7.65401 38.0183 0.770004 38.0183 0.770004 38.0183C0.744995 37.9413 0.722992 37.8623 0.701004 37.7863C1.33701 37.8253 1.979 37.7883 2.606 37.6723C2.095 37.0463 1.584 36.4143 1.073 35.7873C1.061 35.7753 1.05099 35.7633 1.041 35.7503C0.781998 35.4293 0.520004 35.1113 0.261002 34.7903C0.261002 34.7903 0.261002 34.7903 0.261002 34.7903C0.244995 33.8053 0.363007 32.8243 0.597 31.8713C0.597 31.8713 0.597 31.8713 0.597 31.8713C0.597 31.8713 0.597 31.8713 0.597 31.8713Z" fill="#F2F2F2" transform="translate(187.102 161.889)" />
        <path d="M0 0.453995C0 0.707001 0.202499 0.908997 0.4547 0.908997C0.4547 0.908997 146.888 0.908997 146.888 0.908997C147.14 0.908997 147.343 0.707001 147.343 0.453995C147.343 0.201996 147.14 0 146.888 0C146.888 0 0.4547 0 0.4547 0C0.202499 0 0 0.201996 0 0.453995Z" fill="#CCCCCC" transform="translate(61.033 199.091)" />
        <path d="M14.9048 174.661C6.68631 174.661 0 167.975 0 159.756C0 159.756 0 14.9048 0 14.9048C0 6.6863 6.68631 0 14.9048 0C14.9048 0 82.3068 0 82.3068 0C90.5251 0 97.2114 6.6863 97.2114 14.9048C97.2114 14.9048 97.2114 159.756 97.2114 159.756C97.2114 167.975 90.5251 174.661 82.3068 174.661C82.3068 174.661 14.9048 174.661 14.9048 174.661Z" fill="#3F3D56" transform="translate(0.946 25.145)" />
        <path d="M0.630501 0C0.282799 0 0 0.282799 0 0.6306C0 0.6306 0 20.808 0 20.808C0 21.1558 0.282799 21.4386 0.630501 21.4386C0.978294 21.4386 1.2611 21.1558 1.2611 20.808C1.2611 20.808 1.2611 0.6306 1.2611 0.6306C1.2611 0.282799 0.978294 0 0.630501 0Z" fill="#3F3D56" transform="translate(97.527 78.426)" />
        <path d="M94.3739 158.336C94.3739 165.489 88.8062 171.341 81.7662 171.795C81.7662 171.795 81.763 171.795 81.763 171.795C81.659 171.801 81.5549 171.807 81.4477 171.811C81.2617 171.82 81.0757 171.823 80.8866 171.823C80.8866 171.823 80.1929 171.773 78.9255 171.678C77.6455 171.584 75.7823 171.442 73.4587 171.256C72.762 171.202 72.0274 171.142 71.2518 171.079C69.707 170.953 68.0108 170.814 66.1917 170.657C65.4666 170.597 64.7162 170.531 63.9501 170.464C60.0344 170.127 55.649 169.733 51.0239 169.285C50.242 169.213 49.4539 169.137 48.6594 169.058C48.4513 169.036 48.24 169.017 48.0288 168.995C44.7311 168.671 0 160.026 0 158.336C0 158.336 0 13.4873 0 13.4873C0 6.0374 6.03748 0 13.4874 0C13.4874 0 21.5394 0 21.5394 0C22.8257 0 23.8598 1.0025 23.9702 2.2857C23.9796 2.3708 23.9891 2.4559 24.0048 2.5411C24.2381 3.8305 25.4204 4.7291 26.7319 4.7291C26.7319 4.7291 67.6419 4.7291 67.6419 4.7291C68.9535 4.7291 70.1357 3.8305 70.369 2.5411C70.3848 2.4559 70.3943 2.3708 70.4037 2.2857C70.5141 1.0025 71.5482 0 72.8345 0C72.8345 0 80.8866 0 80.8866 0C88.3364 0 94.3739 6.0374 94.3739 13.4873C94.3739 13.4873 94.3739 158.336 94.3739 158.336Z" fill="#FFFFFF" transform="translate(2.365 26.563)" />
        <path d="M0.630544 0C0.282789 0 0 0.282799 0 0.630497C0 0.630497 0 5.6749 0 5.6749C0 6.0226 0.282792 6.3054 0.630544 6.3054C0.978297 6.3054 1.26109 6.0226 1.26109 5.6749C1.26109 5.6749 1.26109 0.630497 1.26109 0.630497C1.26109 0.2827 0.978297 0 0.630544 0Z" fill="#3F3D56" transform="translate(0 63.293)" />
        <path d="M0.630544 0C0.282789 0 0 0.282799 0 0.6306C0 0.6306 0 10.404 0 10.404C0 10.7518 0.282792 11.0346 0.630544 11.0346C0.978297 11.0346 1.26109 10.7518 1.26109 10.404C1.26109 10.404 1.26109 0.6306 1.26109 0.6306C1.26109 0.282799 0.978297 0 0.630544 0Z" fill="#3F3D56" transform="translate(0 78.426)" />
        <path d="M0.630544 0C0.282789 0 0 0.282799 0 0.6306C0 0.6306 0 10.4038 0 10.4038C0 10.7518 0.282792 11.0348 0.630544 11.0348C0.978297 11.0348 1.26109 10.7518 1.26109 10.4038C1.26109 10.4038 1.26109 0.6306 1.26109 0.6306C1.26109 0.282799 0.978297 0 0.630544 0Z" fill="#3F3D56" transform="translate(0 92.298)" />
        <path d="M0.1185 0C0.0530996 0 0 0.0531006 0 0.1185C0 0.1185 0 1.4579 0 1.4579C0 1.5233 0.0530996 1.5764 0.1185 1.5764C0.1185 1.5764 12.1771 1.5764 12.1771 1.5764C12.2426 1.5764 12.2956 1.5233 12.2956 1.4579C12.2956 1.4579 12.2956 0.1185 12.2956 0.1185C12.2956 0.0531006 12.2426 0 12.1771 0C12.1771 0 0.1185 0 0.1185 0Z" fill="#E6E6E6" transform="translate(11.507 28.771)" />
        <path d="M1.26109 2.5222C1.9576 2.5222 2.52219 1.9576 2.52219 1.2611C2.52219 0.5646 1.9576 0 1.26109 0C0.564598 0 0 0.5646 0 1.2611C0 1.9576 0.564598 2.5222 1.26109 2.5222Z" fill="#E6E6E6" transform="translate(75.93 27.825)" />
        <path d="M1.2611 2.5222C1.9576 2.5222 2.5222 1.9576 2.5222 1.2611C2.5222 0.5646 1.9576 0 1.2611 0C0.564598 0 0 0.5646 0 1.2611C0 1.9576 0.564598 2.5222 1.2611 2.5222Z" fill="#E6E6E6" transform="translate(79.398 27.825)" />
        <path d="M1.2611 2.5222C1.9576 2.5222 2.5222 1.9576 2.5222 1.2611C2.5222 0.5646 1.9576 0 1.2611 0C0.564697 0 0 0.5646 0 1.2611C0 1.9576 0.564697 2.5222 1.2611 2.5222Z" fill="#E6E6E6" transform="translate(82.866 27.825)" />
        <path d="M1.5282 3.056C0.6856 3.056 0 2.37 0 1.528C0 0.685005 0.6856 0 1.5282 0C1.5282 0 55.0143 0 55.0143 0C55.8569 0 56.5424 0.685005 56.5424 1.528C56.5424 2.37 55.8569 3.056 55.0143 3.056C55.0143 3.056 1.5282 3.056 1.5282 3.056Z" fill="#E6E6E6" transform="translate(21.123 110.99)" />
        <path d="M7.2665 0C3.2588 0 0 3.25882 0 7.26645C0 7.26645 0 82.1317 0 82.1317C0 86.1393 3.2588 89.3982 7.2665 89.3982C7.2665 89.3982 116.515 89.3982 116.515 89.3982C120.523 89.3982 123.782 86.1393 123.782 82.1317C123.782 82.1317 123.782 7.26645 123.782 7.26645C123.782 3.25882 120.523 0 116.515 0C116.515 0 7.2665 0 7.2665 0Z" fill="#FFFFFF" transform="translate(50.47 0)" />
        <path d="M7.2665 0C3.2588 0 0 3.25882 0 7.26645C0 7.26645 0 82.1317 0 82.1317C0 86.1393 3.2588 89.3982 7.2665 89.3982C7.2665 89.3982 116.515 89.3982 116.515 89.3982C120.523 89.3982 123.782 86.1393 123.782 82.1317C123.782 82.1317 123.782 7.26645 123.782 7.26645C123.782 3.25882 120.523 0 116.515 0C116.515 0 7.2665 0 7.2665 0ZM123.018 82.1317C123.018 85.7191 120.103 88.6341 116.515 88.6341C116.515 88.6341 7.2665 88.6341 7.2665 88.6341C3.6791 88.6341 0.764099 85.7191 0.764099 82.1317C0.764099 82.1317 0.764099 7.26645 0.764099 7.26645C0.764099 3.67908 3.6791 0.764087 7.2665 0.764087C7.2665 0.764087 116.515 0.764087 116.515 0.764087C120.103 0.764087 123.018 3.67908 123.018 7.26645C123.018 7.26645 123.018 82.1317 123.018 82.1317Z" fill="#3F3D56" transform="translate(50.47 0)" />
        <path d="M0.977997 0C0.439301 0 0 0.43935 0 0.97803C0 1.52052 0.439301 1.95988 0.977997 1.95988C0.977997 1.95988 11.6984 1.95988 11.6984 1.95988C12.2364 1.95988 12.6764 1.52053 12.6764 0.97803C12.6764 0.43936 12.2364 0 11.6984 0C11.6984 0 0.977997 0 0.977997 0Z" fill="#E6E6E6" transform="translate(88.067 7.393)" />
        <path d="M0.978004 0C0.439003 0 0 0.43935 0 0.97803C0 1.52052 0.439003 1.95988 0.978004 1.95988C0.978004 1.95988 11.698 1.95988 11.698 1.95988C12.237 1.95988 12.676 1.52053 12.676 0.97803C12.676 0.43936 12.237 0 11.698 0C11.698 0 0.978004 0 0.978004 0Z" fill="#E6E6E6" transform="translate(106.023 7.393)" />
        <path d="M0.977997 0C0.439003 0 0 0.43935 0 0.97803C0 1.52052 0.439003 1.95988 0.977997 1.95988C0.977997 1.95988 11.698 1.95988 11.698 1.95988C12.237 1.95988 12.676 1.52053 12.676 0.97803C12.676 0.43936 12.237 0 11.698 0C11.698 0 0.977997 0 0.977997 0Z" fill="#E6E6E6" transform="translate(123.979 7.393)" />
        <path d="M6.1852 0C2.7736 0 0 2.7736 0 6.1853C0 6.1853 0 11.7707 0 11.7707C0 15.1824 2.7736 17.956 6.1852 17.956C6.1852 17.956 88.1796 17.956 88.1796 17.956C91.5906 17.956 94.3646 15.1824 94.3646 11.7707C94.3646 11.7707 94.3646 6.1853 94.3646 6.1853C94.3646 2.7736 91.5906 0 88.1796 0C88.1796 0 6.1852 0 6.1852 0Z" fill="#549C22" transform="translate(65.179 51.391)" />
        <path d="M0 16.4575C1.2896 18.2572 2.4009 21.068 2.9958 23.3046C4.003 21.2212 5.6268 18.6719 7.2341 17.1492C7.2341 17.1492 3.911 18.0041 3.911 18.0041C5.9587 7.9686 13.6604 0.764099 22.48 0.764099C22.48 0.764099 22.48 0 22.48 0C13.2677 0 5.2349 7.5062 3.1442 17.9469C3.1442 17.9469 0 16.4575 0 16.4575Z" fill="#3F3D56" transform="translate(24.813 62.852)" />
        <path d="M1.5282 3.0564C0.685501 3.0564 0 2.3708 0 1.5282C0 0.6856 0.685501 0 1.5282 0C1.5282 0 21.3944 0 21.3944 0C22.237 0 22.9226 0.6856 22.9226 1.5282C22.9226 2.3708 22.237 3.0564 21.3944 3.0564C21.3944 3.0564 1.5282 3.0564 1.5282 3.0564Z" fill="#E6E6E6" transform="translate(21.035 93.034)" />
      </g>
      <g transform="translate(91 11)">
        <path d="M0 2.5C0 1.11929 0.932741 0 2.08334 0C3.23393 0 4.16667 1.11929 4.16667 2.5C4.16667 3.88071 3.23393 5 2.08334 5C0.932741 5 0 3.88071 0 2.5Z" fill="#212121" fill-rule="evenodd" transform="translate(30 12.5)" />
        <path d="M0 0.833333C0 0.373096 0.373095 0 0.833334 0C1.29357 0 1.66667 0.373096 1.66667 0.833333C1.66667 1.29357 1.29357 1.66667 0.833334 1.66667C0.373095 1.66667 0 1.29357 0 0.833333Z" fill="#424242" fill-rule="evenodd" transform="translate(31.667 13.333)" />
        <path d="M0 2.5C0 1.11929 0.93274 0 2.08333 0C3.23393 0 4.16667 1.11929 4.16667 2.5C4.16667 3.88071 3.23393 5 2.08333 5C0.93274 5 0 3.88071 0 2.5Z" fill="#212121" fill-rule="evenodd" transform="translate(15.833 10.833)" />
        <path d="M11.9792 4.16583C11.9792 2.78583 10.86 1.66667 9.48 1.66667C9.11167 1.66667 8.765 1.75083 8.45 1.89417C8.17833 0.8075 7.20333 0 6.0325 0C4.8475 0 3.86 0.8275 3.60333 1.93417C3.26917 1.76833 2.8975 1.66667 2.49917 1.66667C1.11917 1.66667 0 2.78583 0 4.16583C0 4.89667 0.319167 5.54833 0.82 6.00583C0.793334 6.18834 0.775833 6.3725 0.775833 6.56C0.775833 9.035 3.12917 11.0417 6.0325 11.0417C8.93583 11.0417 11.2892 9.035 11.2892 6.56C11.2892 6.35 11.2667 6.14584 11.2333 5.94334C11.6933 5.49084 11.9792 4.86167 11.9792 4.16583Z" fill="#AED581" transform="translate(6.25 10)" />
        <path d="M11.9792 4.16583C11.9792 2.78583 10.86 1.66667 9.48 1.66667C9.11166 1.66667 8.765 1.75083 8.45 1.89417C8.17833 0.8075 7.20333 0 6.0325 0C4.8475 0 3.86 0.8275 3.60333 1.93417C3.26917 1.76833 2.8975 1.66667 2.49917 1.66667C1.11917 1.66667 0 2.78583 0 4.16583C0 4.89667 0.319166 5.54833 0.82 6.00583C0.793333 6.18834 0.775833 6.3725 0.775833 6.56C0.775833 9.035 3.12917 11.0417 6.0325 11.0417C8.93583 11.0417 11.2892 9.035 11.2892 6.56C11.2892 6.35 11.2667 6.14584 11.2333 5.94334C11.6933 5.49084 11.9792 4.86167 11.9792 4.16583Z" fill="#689F38" transform="translate(18.75 10)" />
        <path d="M0.380072 3.87424C0.0600719 3.73507 -0.0865974 3.36257 0.0525703 3.04257C0.0525703 3.04257 1.20924 0.380071 1.20924 0.380071C1.3484 0.06007 1.7209 -0.0865955 2.0409 0.0525713C2.0409 0.0525713 5.46757 1.5409 5.46757 1.5409C5.78757 1.68007 5.93424 2.05257 5.79507 2.37257C5.79507 2.37257 4.63841 5.03507 4.63841 5.03507C4.49924 5.35507 4.12674 5.50174 3.80674 5.36257C3.80674 5.36257 0.380072 3.87424 0.380072 3.87424Z" fill="#FFF3E0" transform="translate(27.077 14.376)" />
        <path d="M2.18399 5.43732C1.86566 5.59232 1.48149 5.45982 1.32649 5.14149C1.32649 5.14149 0.0648232 2.54899 0.0648232 2.54899C-0.0901775 2.23066 0.0423222 1.84649 0.360656 1.69149C0.360656 1.69149 3.70316 0.0648232 3.70316 0.0648232C4.02149 -0.0901775 4.40566 0.0423222 4.56066 0.360656C4.56066 0.360656 5.82232 2.95316 5.82232 2.95316C5.97816 3.27149 5.84566 3.65566 5.52649 3.81066C5.52649 3.81066 2.18399 5.43732 2.18399 5.43732Z" fill="#FFF3E0" transform="translate(10.389 12.666)" />
        <path d="M0 7.225C1.995 10.8542 6.55583 12.18 10.185 10.185C13.8142 8.19 15.14 3.62917 13.145 0C13.145 0 0 7.225 0 7.225Z" fill="#BF360C" transform="translate(20.336 15.359)" />
        <path d="M3.8147e-06 5.61917C1.55334 8.445 5.09584 9.475 7.92167 7.92167C10.7475 6.36833 11.7775 2.82583 10.2242 0C10.2242 0 3.8147e-06 5.61917 3.8147e-06 5.61917Z" fill="#FF3D00" transform="translate(21.797 16.162)" />
        <path d="M0 2.40833C0.666666 3.62083 2.1825 4.06166 3.395 3.395C4.6075 2.72833 5.04833 1.2125 4.38166 0C4.38166 0 0 2.40833 0 2.40833Z" fill="#FF7043" transform="translate(24.718 17.768)" />
        <path d="M0.177513 0.958258C-0.0441875 0.554939 -0.0604305 0.138121 0.14123 0.0272713C0.342888 -0.08358 0.68609 0.153515 0.907791 0.556837C1.12949 0.960155 1.14573 1.37697 0.944075 1.48782C0.742414 1.59867 0.399214 1.36158 0.177513 0.958258Z" fill="#FFB74D" fill-rule="evenodd" transform="translate(28.738 21.663)" />
        <path d="M0.000213623 0.83988C-0.00710297 0.3797 0.173489 0.003685 0.403578 2.67029e-05C0.633667 -0.00363159 0.826124 0.366451 0.833443 0.82663C0.840759 1.28681 0.660166 1.66282 0.430077 1.66648C0.199989 1.67014 0.00753212 1.30006 0.000213623 0.83988Z" fill="#FFB74D" fill-rule="evenodd" transform="translate(26.272 22.062)" />
        <path d="M0.504326 0.923325C0.11974 0.670517 -0.0895557 0.309692 0.0368462 0.117401C0.16325 -0.074892 0.577492 -0.025835 0.962076 0.226973C1.34666 0.47978 1.55596 0.840605 1.42956 1.0329C1.30315 1.22519 0.88891 1.17613 0.504326 0.923325Z" fill="#FFB74D" fill-rule="evenodd" transform="translate(30.149 20.017)" />
        <path d="M0.824448 0.833523C0.364313 0.82386 -0.00478363 0.62952 4.76837e-05 0.399454C0.004879 0.169386 0.381809 -0.00928879 0.841946 0.00037384C1.30208 0.0100365 1.67118 0.204376 1.66635 0.434444C1.66152 0.664513 1.28458 0.843187 0.824448 0.833523Z" fill="#FFB74D" fill-rule="evenodd" transform="translate(29.976 18.311)" />
        <path d="M1.12156 3.22535C4.06239 -0.230482 11.3557 -0.0121498 13.0232 0.0103502C12.8916 2.83785 13.3482 8.99618 10.0074 11.9887C7.61573 14.0995 4.86323 13.8637 3.26489 9.94202C-0.141774 9.52452 -0.92844 5.69535 1.12156 3.22535Z" fill="#8BC34A" transform="translate(12.81 12.5)" />
        <path d="M0 10.7625C0 10.7625 0.273334 10.66 0.786667 10.5308C1.08083 10.4833 1.22417 10.3667 1.4775 10.21C1.69667 10.1283 2.00417 9.95084 2.34667 9.6975C2.49 9.58167 2.68917 9.445 2.8325 9.32833C2.97583 9.2125 3.175 9.07584 3.3525 8.88417C3.67417 8.57667 4.03 8.19417 4.38583 7.81084C4.74167 7.42834 5.0775 6.99084 5.4125 6.55334C5.74833 6.11584 6.13833 5.6575 6.52833 5.2C6.91833 4.74167 7.30833 4.28417 7.71917 3.88083C8.13 3.4775 8.52 3.02 8.95083 2.67083C9.36167 2.2675 9.81333 1.97417 10.21 1.70083C10.6067 1.4275 11.0792 1.18833 11.4417 0.99C11.8592 0.771667 12.1875 0.648334 12.5708 0.504999C12.8783 0.327499 13.1933 0.334166 13.4667 0.231667C13.98 0.101666 14.2533 0 14.2533 0C14.2533 0 13.98 0.102499 13.5075 0.341666C13.2883 0.423333 12.96 0.546667 12.7067 0.703333C12.3992 0.880833 12.0358 1.07917 11.6942 1.33167C11.3517 1.58417 10.955 1.8575 10.5792 2.18583C10.2033 2.51417 9.82667 2.84167 9.49083 3.27917C9.135 3.66167 8.79917 4.09917 8.46417 4.53667C8.12833 4.97417 7.81417 5.46667 7.49917 5.95833C7.18417 6.45083 6.86917 6.9425 6.60917 7.41417C6.29417 7.90667 6.03417 8.37833 5.71917 8.87C5.40417 9.3625 5.06917 9.8 4.7125 10.1825C4.53417 10.3742 4.35667 10.565 4.17833 10.7567C4 10.9483 3.8225 11.1392 3.62417 11.2758C3.2475 11.6042 2.92583 11.9117 2.56333 12.1092C2.22083 12.3617 1.85833 12.56 1.64 12.6417C1.0925 12.8467 0.819167 12.9492 0.819167 12.9492C0.819167 12.9492 0 10.7625 0 10.7625Z" fill="#DCEDC8" transform="translate(10.383 15.086)" />
        <path d="M0.390469 4.03047C0.105467 3.95047 -0.0603657 3.65463 0.0204678 3.36964C0.0204678 3.36964 0.860468 0.390469 0.860468 0.390469C0.940468 0.105467 1.2363 -0.0603657 1.5213 0.0204678C1.5213 0.0204678 5.30213 1.0863 5.30213 1.0863C5.58713 1.1663 5.75297 1.46213 5.67213 1.74713C5.67213 1.74713 4.83213 4.7263 4.83213 4.7263C4.75214 5.01047 4.4563 5.1763 4.1713 5.0963C4.1713 5.0963 0.390469 4.03047 0.390469 4.03047Z" fill="#FFF3E0" transform="translate(16.32 17.025)" />
        <path d="M0 2.5C0 1.11929 0.932739 0 2.08333 0C3.23393 0 4.16667 1.11929 4.16667 2.5C4.16667 3.88071 3.23393 5 2.08333 5C0.932739 5 0 3.88071 0 2.5Z" fill="#212121" fill-rule="evenodd" transform="translate(24.167 16.667)" />
        <path d="M0 0.833332C0 0.373096 0.373096 0 0.833334 0C1.29357 0 1.66667 0.373096 1.66667 0.833332C1.66667 1.29357 1.29357 1.66667 0.833334 1.66667C0.373096 1.66667 0 1.29357 0 0.833332Z" fill="#424242" fill-rule="evenodd" transform="translate(25.833 17.5)" />
        <path d="M0 2.5C0 1.11929 0.93274 0 2.08333 0C3.23393 0 4.16667 1.11929 4.16667 2.5C4.16667 3.88071 3.23393 5 2.08333 5C0.93274 5 0 3.88071 0 2.5Z" fill="#212121" fill-rule="evenodd" transform="translate(8.333 13.333)" />
        <path d="M0 0.833334C0 0.373096 0.373096 0 0.833334 0C1.29357 0 1.66667 0.373096 1.66667 0.833334C1.66667 1.29357 1.29357 1.66667 0.833334 1.66667C0.373096 1.66667 0 1.29357 0 0.833334Z" fill="#424242" fill-rule="evenodd" transform="translate(10 14.167)" />
        <g transform="translate(4.503 13.692)">
          <path d="M14.0738 7.22583C12.0788 10.855 7.51799 12.1808 3.88882 10.1858C0.259653 8.19083 -1.06618 3.63 0.927987 0C0.927987 0 14.0738 7.22583 14.0738 7.22583Z" fill="#BF360C" />
          <path d="M10.9477 5.61916C9.39436 8.445 5.85186 9.475 3.02603 7.92167C0.200192 6.36833 -0.829808 2.82583 0.723526 0C0.723526 0 10.9477 5.61916 10.9477 5.61916Z" fill="#FF3D00" transform="translate(1.665 0.803)" />
          <path d="M4.69249 2.40833C4.02583 3.62083 2.50999 4.06167 1.29749 3.395C0.0849924 2.72833 -0.355841 1.2125 0.310825 0C0.310825 0 4.69249 2.40833 4.69249 2.40833Z" fill="#FF7043" transform="translate(5 2.409)" />
          <path d="M0.141228 1.48782C-0.060432 1.37697 -0.0441871 0.960156 0.177513 0.556836C0.399213 0.153514 0.742414 -0.08358 0.944075 0.0272703C1.14574 0.138121 1.12949 0.554938 0.90779 0.958258C0.68609 1.36158 0.342889 1.59867 0.141228 1.48782Z" fill="#FFB74D" fill-rule="evenodd" transform="translate(4.586 6.308)" />
          <path d="M0.403579 1.66648C0.17349 1.66282 -0.00710344 1.28681 0.000214577 0.826631C0.00753164 0.366452 0.199988 -0.00363016 0.430078 2.71797e-05C0.660168 0.00368595 0.84076 0.379701 0.833443 0.83988C0.826125 1.30006 0.633668 1.67014 0.403579 1.66648Z" fill="#FFB74D" fill-rule="evenodd" transform="translate(7.304 6.704)" />
          <path d="M0.203492 0.960814C-0.0349712 0.567173 -0.0687294 0.151407 0.128091 0.0321755C0.324912 -0.0870562 0.67778 0.135396 0.916243 0.529038C1.15471 0.92268 1.18846 1.33845 0.991644 1.45768C0.794823 1.57691 0.441955 1.35446 0.203492 0.960814Z" fill="#FFB74D" fill-rule="evenodd" transform="translate(9.425 6.134)" />
          <path d="M0.036854 1.03296C-0.0895603 0.840673 0.119719 0.479836 0.504291 0.227008C0.888864 -0.0258207 1.3031 -0.0749002 1.42952 0.117386C1.55593 0.309672 1.34665 0.670509 0.962078 0.923338C0.577505 1.17617 0.163268 1.22525 0.036854 1.03296Z" fill="#FFB74D" fill-rule="evenodd" transform="translate(2.795 4.656)" />
          <path d="M4.29153e-05 0.433591C-0.00455928 0.203517 0.364731 0.00954461 0.824876 0.000340223C1.28502 -0.0088644 1.66177 0.170185 1.66638 0.400257C1.67098 0.63033 1.30169 0.824302 0.841543 0.833507C0.381397 0.842711 0.00464511 0.663664 4.29153e-05 0.433591Z" fill="#FFB74D" fill-rule="evenodd" transform="translate(2.767 2.954)" />
        </g>
        <path d="M0 0C0 0 10 0 10 0L10 3.33333L0 3.33333C0 3.33333 0 0 0 0Z" fill="#006B6B" transform="translate(15 30)" />
        <path d="M0 0C0 6.58334 4.25 8.75 10.0833 10.8333C10.0833 10.8333 19.9167 10.8333 19.9167 10.8333C25.75 8.83333 30 6.58334 30 0C30 0 0 0 0 0Z" fill="#00BCD4" transform="translate(5 20.833)" />
        <path d="M29.25 4.16667C29.75 3 30 1.66667 30 0C30 0 0 0 0 0C0 1.66667 0.25 3 0.75 4.16667C0.75 4.16667 29.25 4.16667 29.25 4.16667Z" fill="#006B6B" transform="translate(5 20.833)" />
      </g>
      <g transform="translate(19 121)">
        <path d="M0 3.625C0 1.62297 1.35247 0 3.02084 0C4.68919 0 6.04167 1.62297 6.04167 3.625C6.04167 5.62703 4.68919 7.25 3.02084 7.25C1.35247 7.25 0 5.62703 0 3.625Z" fill="#212121" fill-rule="evenodd" transform="translate(43.5 18.125)" />
        <path d="M0 1.20833C0 0.540989 0.540989 0 1.20833 0C1.87568 0 2.41667 0.540989 2.41667 1.20833C2.41667 1.87568 1.87568 2.41667 1.20833 2.41667C0.540989 2.41667 0 1.87568 0 1.20833Z" fill="#424242" fill-rule="evenodd" transform="translate(45.917 19.333)" />
        <path d="M0 3.625C0 1.62297 1.35247 0 3.02083 0C4.68919 0 6.04167 1.62297 6.04167 3.625C6.04167 5.62703 4.68919 7.25 3.02083 7.25C1.35247 7.25 0 5.62703 0 3.625Z" fill="#212121" fill-rule="evenodd" transform="translate(22.958 15.708)" />
        <path d="M17.3698 6.04046C17.3698 4.03946 15.747 2.41667 13.746 2.41667C13.2119 2.41667 12.7092 2.53871 12.2525 2.74654C11.8586 1.17087 10.4448 0 8.74713 0C7.02888 0 5.597 1.19987 5.22483 2.80454C4.74029 2.56408 4.20138 2.41667 3.62379 2.41667C1.62279 2.41667 0 4.03946 0 6.04046C0 7.10017 0.462791 8.04509 1.189 8.70846C1.15033 8.97309 1.12496 9.24013 1.12496 9.512C1.12496 13.1008 4.53729 16.0104 8.74713 16.0104C12.957 16.0104 16.3693 13.1008 16.3693 9.512C16.3693 9.2075 16.3367 8.91146 16.2883 8.61784C16.9553 7.96171 17.3698 7.04942 17.3698 6.04046Z" fill="#AED581" transform="translate(9.063 14.5)" />
        <path d="M17.3698 6.04046C17.3698 4.03946 15.747 2.41667 13.746 2.41667C13.2119 2.41667 12.7092 2.53871 12.2525 2.74654C11.8586 1.17087 10.4448 0 8.74712 0C7.02887 0 5.597 1.19987 5.22483 2.80454C4.74029 2.56408 4.20137 2.41667 3.62379 2.41667C1.62279 2.41667 0 4.03946 0 6.04046C0 7.10017 0.462791 8.04509 1.189 8.70846C1.15033 8.97309 1.12496 9.24013 1.12496 9.512C1.12496 13.1008 4.53729 16.0104 8.74712 16.0104C12.957 16.0104 16.3693 13.1008 16.3693 9.512C16.3693 9.2075 16.3367 8.91146 16.2883 8.61784C16.9553 7.96171 17.3698 7.04942 17.3698 6.04046Z" fill="#689F38" transform="translate(27.188 14.5)" />
        <path d="M0.551102 5.61765C0.0871048 5.41585 -0.125565 4.87573 0.0762253 4.41173C0.0762253 4.41173 1.7534 0.551104 1.7534 0.551104C1.95518 0.0871029 2.49531 -0.125563 2.95931 0.0762291C2.95931 0.0762291 7.92798 2.23431 7.92798 2.23431C8.39198 2.4361 8.60464 2.97623 8.40285 3.44023C8.40285 3.44023 6.72569 7.30085 6.72569 7.30085C6.52389 7.76485 5.98377 7.97752 5.51977 7.77573C5.51977 7.77573 0.551102 5.61765 0.551102 5.61765Z" fill="#FFF3E0" transform="translate(39.261 20.845)" />
        <path d="M3.16678 7.88412C2.7052 8.10887 2.14816 7.91675 1.92341 7.45516C1.92341 7.45516 0.0939932 3.69604 0.0939932 3.69604C-0.130756 3.23445 0.061368 2.67741 0.522951 2.45266C0.522951 2.45266 5.36958 0.0939922 5.36958 0.0939922C5.83116 -0.130756 6.3882 0.061367 6.61295 0.522951C6.61295 0.522951 8.44237 4.28208 8.44237 4.28208C8.66833 4.74366 8.4762 5.3007 8.01341 5.52545C8.01341 5.52545 3.16678 7.88412 3.16678 7.88412Z" fill="#FFF3E0" transform="translate(15.065 18.366)" />
        <path d="M0 10.4763C2.89275 15.7385 9.50596 17.661 14.7683 14.7683C20.0305 11.8755 21.953 5.26229 19.0603 0C19.0603 0 0 10.4763 0 10.4763Z" fill="#BF360C" transform="translate(29.487 22.271)" />
        <path d="M7.62939e-06 8.14779C2.25234 12.2452 7.38896 13.7387 11.4864 11.4864C15.5839 9.23408 17.0774 4.09746 14.825 0C14.825 0 7.62939e-06 8.14779 7.62939e-06 8.14779Z" fill="#FF3D00" transform="translate(31.605 23.434)" />
        <path d="M0 3.49208C0.966667 5.25021 3.16462 5.88942 4.92275 4.92275C6.68088 3.95608 7.32008 1.75813 6.35341 0C6.35341 0 0 3.49208 0 3.49208Z" fill="#FF7043" transform="translate(35.84 25.763)" />
        <path d="M0.257393 1.38947C-0.0640717 0.804659 -0.0876236 0.200275 0.204784 0.0395412C0.497185 -0.121191 0.994827 0.222595 1.3163 0.807413C1.63776 1.39223 1.66131 1.99661 1.3689 2.15734C1.0765 2.31808 0.578861 1.97429 0.257393 1.38947Z" fill="#FFB74D" fill-rule="evenodd" transform="translate(41.67 31.412)" />
        <path d="M0.000312805 1.21782C-0.0102997 0.550566 0.25156 0.00534439 0.585186 4.00543e-05C0.918816 -0.00526619 1.19788 0.531355 1.20849 1.19861C1.2191 1.86587 0.957241 2.41109 0.623611 2.4164C0.289982 2.4217 0.0109215 1.88508 0.000312805 1.21782Z" fill="#FFB74D" fill-rule="evenodd" transform="translate(38.095 31.99)" />
        <path d="M0.73127 1.33882C0.173622 0.972252 -0.129856 0.449055 0.0534286 0.170231C0.236713 -0.108593 0.83736 -0.0374603 1.39501 0.329111C1.95266 0.695681 2.25614 1.21888 2.07285 1.4977C1.88957 1.77653 1.28892 1.70539 0.73127 1.33882Z" fill="#FFB74D" fill-rule="evenodd" transform="translate(43.715 29.025)" />
        <path d="M1.19545 1.20861C0.528255 1.1946 -0.00693893 0.912804 6.86646e-05 0.579206C0.00707626 0.245609 0.553623 -0.0134678 1.22082 0.000541687C1.88802 0.0145512 2.42321 0.296345 2.4162 0.629942C2.4092 0.963543 1.86265 1.22262 1.19545 1.20861Z" fill="#FFB74D" fill-rule="evenodd" transform="translate(43.465 26.55)" />
        <path d="M1.62626 4.67676C5.89047 -0.3342 16.4658 -0.0176182 18.8837 0.0150089C18.6928 4.11488 19.3549 13.0445 14.5107 17.3836C11.0428 20.4443 7.05168 20.1023 4.7341 14.4159C-0.205572 13.8106 -1.34624 8.25826 1.62626 4.67676Z" fill="#8BC34A" transform="translate(18.575 18.124)" />
        <path d="M0 15.6056C0 15.6056 0.396334 15.457 1.14067 15.2697C1.56721 15.2008 1.77504 15.0317 2.14237 14.8045C2.46017 14.6861 2.90604 14.4287 3.40267 14.0614C3.6105 13.8934 3.89929 13.6953 4.10713 13.5261C4.31496 13.3581 4.60375 13.16 4.86112 12.882C5.32754 12.4362 5.8435 11.8815 6.35946 11.3257C6.87542 10.7711 7.36237 10.1367 7.84812 9.50234C8.33508 8.86796 8.90058 8.20337 9.46608 7.54C10.0316 6.87542 10.5971 6.21204 11.1928 5.62721C11.7885 5.04238 12.354 4.379 12.9787 3.87271C13.5744 3.28788 14.2293 2.86254 14.8045 2.46621C15.3797 2.06988 16.0648 1.72308 16.5904 1.4355C17.1958 1.11892 17.6719 0.940083 18.2277 0.732248C18.6736 0.474874 19.1303 0.484541 19.5267 0.335917C20.271 0.147417 20.6673 0 20.6673 0C20.6673 0 20.271 0.148624 19.5859 0.495417C19.2681 0.613832 18.792 0.792667 18.4247 1.01983C17.9788 1.27721 17.452 1.56479 16.9565 1.93092C16.4599 2.29704 15.8848 2.69338 15.3398 3.16946C14.7948 3.64554 14.2487 4.12042 13.7617 4.75479C13.2458 5.30942 12.7588 5.94379 12.273 6.57817C11.7861 7.21254 11.3305 7.92667 10.8738 8.63959C10.417 9.35371 9.9603 10.0666 9.5833 10.7505C9.12654 11.4647 8.74955 12.1486 8.29279 12.8615C7.83604 13.5756 7.35029 14.21 6.83313 14.7646C6.57454 15.0425 6.31717 15.3193 6.05859 15.5972C5.8 15.8751 5.54263 16.1518 5.25504 16.35C4.70888 16.826 4.24246 17.2719 3.71683 17.5583C3.22021 17.9244 2.69458 18.212 2.378 18.3304C1.58413 18.6277 1.18779 18.7763 1.18779 18.7763C1.18779 18.7763 0 15.6056 0 15.6056Z" fill="#DCEDC8" transform="translate(15.056 21.874)" />
        <path d="M0.566177 5.84418C0.152927 5.72818 -0.0875301 5.29922 0.0296783 4.88597C0.0296783 4.88597 1.24768 0.566177 1.24768 0.566177C1.36368 0.152927 1.79264 -0.0875301 2.20588 0.0296783C2.20588 0.0296783 7.6881 1.57514 7.6881 1.57514C8.10135 1.69114 8.3418 2.12009 8.2246 2.53334C8.2246 2.53334 7.0066 6.85314 7.0066 6.85314C6.8906 7.26518 6.46164 7.50564 6.04839 7.38964C6.04839 7.38964 0.566177 5.84418 0.566177 5.84418Z" fill="#FFF3E0" transform="translate(23.665 24.687)" />
        <path d="M0 3.625C0 1.62297 1.35247 0 3.02083 0C4.68919 0 6.04167 1.62297 6.04167 3.625C6.04167 5.62703 4.68919 7.25 3.02083 7.25C1.35247 7.25 0 5.62703 0 3.625Z" fill="#212121" fill-rule="evenodd" transform="translate(35.042 24.167)" />
        <path d="M0 1.20833C0 0.540989 0.540989 0 1.20834 0C1.87568 0 2.41667 0.540989 2.41667 1.20833C2.41667 1.87568 1.87568 2.41667 1.20834 2.41667C0.540989 2.41667 0 1.87568 0 1.20833Z" fill="#424242" fill-rule="evenodd" transform="translate(37.458 25.375)" />
        <path d="M0 3.625C0 1.62297 1.35247 0 3.02083 0C4.68919 0 6.04167 1.62297 6.04167 3.625C6.04167 5.62703 4.68919 7.25 3.02083 7.25C1.35247 7.25 0 5.62703 0 3.625Z" fill="#212121" fill-rule="evenodd" transform="translate(12.083 19.333)" />
        <path d="M0 1.20833C0 0.540989 0.540989 0 1.20833 0C1.87568 0 2.41667 0.540989 2.41667 1.20833C2.41667 1.87568 1.87568 2.41667 1.20833 2.41667C0.540989 2.41667 0 1.87568 0 1.20833Z" fill="#424242" fill-rule="evenodd" transform="translate(14.5 20.542)" />
        <g transform="translate(6.529 19.853)">
          <path d="M20.407 10.4775C17.5143 15.7398 10.9011 17.6622 5.63879 14.7695C0.376497 11.8767 -1.54596 5.2635 1.34558 0C1.34558 0 20.407 10.4775 20.407 10.4775Z" fill="#BF360C" />
          <path d="M15.8742 8.14779C13.6218 12.2452 8.48519 13.7388 4.38774 11.4864C0.290279 9.23408 -1.20322 4.09746 1.04911 0C1.04911 0 15.8742 8.14779 15.8742 8.14779Z" fill="#FF3D00" transform="translate(2.415 1.165)" />
          <path d="M6.80411 3.49208C5.83745 5.25021 3.63949 5.88942 1.88136 4.92275C0.123239 3.95608 -0.51597 1.75813 0.450697 0C0.450697 0 6.80411 3.49208 6.80411 3.49208Z" fill="#FF7043" transform="translate(7.25 3.493)" />
          <path d="M0.204781 2.15734C-0.0876265 1.99661 -0.0640712 1.39223 0.257394 0.807412C0.578859 0.222596 1.0765 -0.121191 1.36891 0.0395422C1.66132 0.200274 1.63776 0.804661 1.3163 1.38947C0.994831 1.97429 0.497189 2.31808 0.204781 2.15734Z" fill="#FFB74D" fill-rule="evenodd" transform="translate(6.649 9.147)" />
          <path d="M0.58519 2.4164C0.251559 2.4111 -0.0102997 1.86588 0.000310898 1.19861C0.0109205 0.531356 0.289983 -0.00526428 0.623612 3.91006e-05C0.957243 0.00534439 1.2191 0.550566 1.20849 1.21783C1.19788 1.88509 0.918818 2.42171 0.58519 2.4164Z" fill="#FFB74D" fill-rule="evenodd" transform="translate(10.592 9.721)" />
          <path d="M0.295063 1.39318C-0.0507088 0.8224 -0.099658 0.21954 0.185732 0.0466547C0.471123 -0.126231 0.98278 0.196324 1.32855 0.767105C1.67432 1.33789 1.72327 1.94075 1.43788 2.11363C1.15249 2.28652 0.640835 1.96396 0.295063 1.39318Z" fill="#FFB74D" fill-rule="evenodd" transform="translate(13.666 8.895)" />
          <path d="M0.0534382 1.49779C-0.129863 1.21898 0.173592 0.695763 0.731222 0.329162C1.28885 -0.0374403 1.8895 -0.108605 2.0728 0.17021C2.2561 0.449025 1.95264 0.972239 1.39501 1.33884C0.837383 1.70544 0.236739 1.77661 0.0534382 1.49779Z" fill="#FFB74D" fill-rule="evenodd" transform="translate(4.052 6.752)" />
          <path d="M6.24657e-05 0.628707C-0.00661087 0.2951 0.52886 0.0138397 1.19607 0.00049305C1.86328 -0.0128536 2.40957 0.246768 2.41625 0.580373C2.42292 0.913978 1.88745 1.19524 1.22024 1.20859C0.553026 1.22193 0.00673532 0.962313 6.24657e-05 0.628707Z" fill="#FFB74D" fill-rule="evenodd" transform="translate(4.012 4.284)" />
        </g>
        <path d="M0 0C0 0 14.5 0 14.5 0L14.5 4.83333L0 4.83333C0 4.83333 0 0 0 0Z" fill="#006B6B" transform="translate(21.75 43.5)" />
        <path d="M0 0C0 9.54584 6.1625 12.6875 14.6208 15.7083C14.6208 15.7083 28.8792 15.7083 28.8792 15.7083C37.3375 12.8083 43.5 9.54584 43.5 0C43.5 0 0 0 0 0Z" fill="#00BCD4" transform="translate(7.25 30.208)" />
        <path d="M42.4125 6.04167C43.1375 4.35 43.5 2.41667 43.5 0C43.5 0 0 0 0 0C0 2.41667 0.3625 4.35 1.0875 6.04167C1.0875 6.04167 42.4125 6.04167 42.4125 6.04167Z" fill="#006B6B" transform="translate(7.25 30.208)" />
      </g>
    </g>
  </g>
</svg>