<?xml version="1.0" encoding="utf-8"?>
<svg width="88" height="88" viewBox="0 0 88 88" fill="none" xmlns="http://www.w3.org/2000/svg">
  <g>
    <path d="M44 88C19.6995 88 0 68.3005 0 44C0 19.6995 19.6995 0 44 0C68.3005 0 88 19.6995 88 44C88 68.3005 68.3005 88 44 88Z" fill="#94D82D" transform="translate(0 0)" />
    <g transform="translate(22 22)">
      <path d="M31.2577 0.00192213C28.728 0.0543137 26.1739 1.19199 24.2359 3.12969C21.3305 6.04115 20.3326 10.213 21.7526 13.5119C21.7418 13.4899 21.718 13.457 21.7097 13.4368C21.7097 13.4368 6.62764 27.9674 6.62764 27.9674C5.19581 29.3993 5.19581 31.7205 6.62764 33.1523C6.62764 33.1523 7.92387 34.4485 7.92387 34.4485C7.92387 34.4485 25.5966 17.3237 25.5966 17.3237C25.5908 17.3213 25.581 17.3138 25.5751 17.3112C28.8692 18.6959 33.0111 17.6878 35.9037 14.7975C38.587 12.1141 39.6684 8.32973 38.665 5.13432C37.6616 1.9389 34.7607 -0.0710797 31.2577 0.00192404C31.2577 0.00192404 31.2577 0.00192213 31.2577 0.00192213ZM3.06482 0.2096C3.06482 0.2096 2.41313 0.859503 2.41313 0.859503C-0.804375 4.08617 -0.804375 9.30243 2.41313 12.5291C2.41313 12.5291 10.3982 20.5141 10.3982 20.5141L16.9974 14.1512L3.06482 0.2096L3.06482 0.2096ZM24.7802 21.9339L20.8396 25.7653L29.5193 34.4467C29.5193 34.4467 30.8119 33.1541 30.8119 33.1541C32.2511 31.7241 32.2511 29.3956 30.8119 27.9656C30.8119 27.9656 24.7802 21.9339 24.7802 21.9339L24.7802 21.9339Z" fill="#FFFFFF" transform="translate(2.894 5.74)" />
    </g>
  </g>
</svg>