<?xml version="1.0" encoding="utf-8"?>
<svg width="110.967" height="126.586" viewBox="0 0 110.967 126.586" fill="none" xmlns="http://www.w3.org/2000/svg">
  <defs>
    <clipPath id="clip_path_1">
      <rect width="110.967" height="126.586" />
    </clipPath>
  </defs>
  <g clip-path="url(#clip_path_1)">
    <path d="M108.467 29.8169C108.467 29.8169 57.983 0.669873 57.983 0.669873C56.436 -0.223291 54.53 -0.223291 52.983 0.669873C52.983 0.669873 2.5 29.8169 2.5 29.8169C0.953033 30.71 4.52995e-05 32.3606 0 34.1469C0 34.1469 0 92.4399 0 92.4399C4.76837e-07 94.2274 0.953324 95.8783 2.50076 96.7713C2.50076 96.7713 52.9838 125.917 52.9838 125.917C54.5308 126.81 56.4368 126.81 57.9838 125.917C57.9838 125.917 108.468 96.7713 108.468 96.7713C110.015 95.878 110.968 94.227 110.968 92.4403C110.968 92.4403 110.968 34.1469 110.968 34.1469C110.968 32.3607 110.015 30.7101 108.468 29.8169C108.468 29.8169 108.467 29.8169 108.467 29.8169Z" fill="#F6F5FA" transform="translate(0 0)" />
    <g transform="translate(21.893 20.217)">
      <path d="M2.11211 5.00811C2.11211 5.00811 2.11211 1.05811 2.11211 1.05811C2.11619 0.777344 2.00646 0.506875 1.8079 0.308319C1.60935 0.109762 1.33888 2.74181e-05 1.05811 0.00411034C0.771267 -0.0223792 0.487507 0.0801263 0.283817 0.283818C0.0801239 0.487509 -0.0223808 0.771267 0.00410843 1.05811C0.00410843 1.05811 0.00410843 5.14011 0.00410843 5.14011C0.140354 5.63 0.554451 5.99224 1.05811 6.06211C1.62363 6.02388 2.07388 5.57363 2.11211 5.00811C2.11211 5.00811 2.11211 5.00811 2.11211 5.00811Z" fill="#549C22" transform="translate(32.532 0)" />
      <path d="M3.40943 5.38543C3.64378 5.2706 3.81991 5.0636 3.89575 4.8139C3.97159 4.56419 3.94033 4.2942 3.80943 4.06843C3.80943 4.06843 1.82843 0.511432 1.82843 0.511432C1.57383 0.0386758 0.984186 -0.138172 0.511431 0.116432C0.0386753 0.371035 -0.138172 0.960676 0.116432 1.43343C0.116432 1.43343 2.09243 4.99343 2.09243 4.99343C2.20872 5.2264 2.41635 5.40077 2.66592 5.47505C2.91548 5.54933 3.18467 5.51689 3.40943 5.38543Z" fill="#549C22" transform="translate(16.35 4.365)" />
      <path d="M4.06743 3.80643C4.54019 4.06104 5.12983 3.88419 5.38443 3.41143C5.63904 2.93868 5.46219 2.34904 4.98943 2.09443C4.98943 2.09443 1.43343 0.11643 1.43343 0.11643C0.960677 -0.138172 0.371036 0.0386753 0.116432 0.511431C-0.138171 0.984186 0.0386763 1.57383 0.511432 1.82843C0.511432 1.82843 4.06743 3.80643 4.06743 3.80643Z" fill="#549C22" transform="translate(4.363 16.352)" />
      <path d="M0.520805 1.85094C0.520805 1.85094 4.0778 3.82694 4.0778 3.82694C4.55056 4.08155 5.14021 3.9047 5.39481 3.43194C5.64941 2.95919 5.47256 2.36954 4.9998 2.11494C4.9998 2.11494 1.4428 0.138939 1.4428 0.138939C1.21909 -0.000980377 0.945801 -0.0372734 0.693329 0.0394058C0.440857 0.116089 0.233902 0.298244 0.125801 0.53894C-0.00376129 0.763653 -0.0348282 1.03188 0.0399551 1.28025C0.114731 1.52863 0.288719 1.73512 0.520805 1.85094C0.520805 1.85094 0.520805 1.85094 0.520805 1.85094Z" fill="#549C22" transform="translate(57.307 46.89)" />
      <path d="M0.00299931 1.05811C-0.00108528 1.33888 0.108648 1.60935 0.307203 1.8079C0.505758 2.00646 0.776226 2.1162 1.057 2.11211C1.057 2.11211 5.141 2.11211 5.141 2.11211C5.42177 2.1162 5.69224 2.00646 5.89079 1.80791C6.08935 1.60935 6.19908 1.33888 6.195 1.05811C6.22149 0.771271 6.11898 0.487511 5.91529 0.283817C5.7116 0.0801277 5.42784 -0.022377 5.141 0.00411224C5.141 0.00411224 1.054 0.00411224 1.054 0.00411224C0.395 0.136112 0 0.531113 0 1.05811C0 1.05811 0.00299931 1.05811 0.00299931 1.05811Z" fill="#549C22" transform="translate(0 32.535)" />
      <path d="M6.191 1.05411C6.19509 0.773346 6.08536 0.502876 5.8868 0.304317C5.68825 0.105762 5.41778 -0.0039711 5.13701 0.000110626C5.13701 0.000110626 1.054 0.000110626 1.054 0.000110626C0.471893 0.000110626 0 0.472004 0 1.05411C0 1.63622 0.471893 2.10811 1.054 2.10811C1.054 2.10811 5.138 2.10811 5.138 2.10811C5.41859 2.11193 5.6888 2.00207 5.88714 1.80355C6.08548 1.60502 6.19508 1.33471 6.19099 1.05411C6.19099 1.05411 6.191 1.05411 6.191 1.05411Z" fill="#549C22" transform="translate(60.989 32.539)" />
      <path d="M1.43343 3.80443C1.43343 3.80443 4.99043 1.82843 4.99043 1.82843C5.46319 1.57383 5.64004 0.984188 5.38543 0.511429C5.13083 0.0386734 4.54119 -0.138172 4.06843 0.116432C4.06843 0.116432 0.511433 2.09243 0.511433 2.09243C0.0386763 2.34704 -0.138171 2.93668 0.116432 3.40944C0.371036 3.88219 0.960678 4.05904 1.43343 3.80444C1.43343 3.80444 1.43343 3.80443 1.43343 3.80443Z" fill="#549C22" transform="translate(4.363 46.913)" />
      <path d="M1.43734 3.80643C1.43734 3.80643 4.99034 1.82843 4.99034 1.82843C5.4631 1.57383 5.63995 0.984188 5.38535 0.511433C5.13074 0.0386772 4.5411 -0.138172 4.06834 0.11643C4.06834 0.11643 0.511345 2.09243 0.511345 2.09243C0.205055 2.25778 0.0102768 2.574 0.000396729 2.92193C-0.00948334 3.26986 0.167046 3.59662 0.463463 3.77909C0.759872 3.96155 1.13113 3.97198 1.43732 3.80644C1.43732 3.80644 1.43734 3.80643 1.43734 3.80643Z" fill="#549C22" transform="translate(57.313 16.352)" />
      <path d="M1.85098 4.86068C1.85098 4.86068 3.82698 1.43568 3.82698 1.43568C3.99233 1.12984 3.98191 0.759015 3.79967 0.462937C3.61742 0.16686 3.29103 -0.00946999 2.9435 0.000392914C2.59597 0.0102558 2.28011 0.204813 2.11494 0.510749C2.11494 0.510749 0.138939 4.06775 0.138939 4.06775C-0.000980377 4.29146 -0.0372734 4.56475 0.0394058 4.81723C0.116089 5.0697 0.298244 5.27664 0.53894 5.38475C1.04715 5.53844 1.59404 5.3196 1.85594 4.85775C1.85594 4.85775 1.85098 4.86068 1.85098 4.86068Z" fill="#549C22" transform="translate(46.888 4.497)" />
      <path d="M39.3865 55.8603C40.4482 50.7826 42.5571 45.9821 45.5785 41.7653C48.6085 37.1553 51.7695 32.4123 51.2425 23.8503C50.4515 10.6773 39.1235 0.00834274 26.2145 0.00834274C16.3712 -0.242551 7.25877 5.1824 2.7876 13.9553C-1.68357 22.7281 -0.718565 33.2891 5.26851 41.1063C8.59186 45.3896 10.8499 50.4013 11.8565 55.7283C12.068 56.8669 12.7988 57.8414 13.8325 58.3633C13.8325 58.3633 13.8325 61.3933 13.8325 61.3933C13.8325 61.3933 12.6465 61.3933 12.6465 61.3933C12.0644 61.3933 11.5925 61.8652 11.5925 62.4473C11.5925 63.0294 12.0644 63.5013 12.6465 63.5013C12.6465 63.5013 13.7005 63.5013 13.7005 63.5013L13.7005 66.0014C13.7005 66.0014 12.5145 66.0014 12.5145 66.0014C12.2337 65.9973 11.9633 66.107 11.7647 66.3055C11.5662 66.5041 11.4564 66.7746 11.4605 67.0554C11.434 67.3422 11.5365 67.6259 11.7402 67.8296C11.9439 68.0333 12.2277 68.1358 12.5145 68.1094C12.5145 68.1094 13.7005 68.1094 13.7005 68.1094C13.7005 68.1094 13.7005 68.2414 13.7005 68.2414C13.699 69.5698 14.226 70.844 15.1652 71.7831C16.1044 72.7222 17.3786 73.249 18.7068 73.2473C18.7068 73.2473 19.7608 73.2473 19.7608 73.2473C20.2509 76.0652 22.6966 78.1223 25.5568 78.1223C28.417 78.1223 30.8627 76.0652 31.3528 73.2474C31.3528 73.2474 32.4068 73.2474 32.4068 73.2474C33.7349 73.2489 35.0092 72.722 35.9483 71.7829C36.8875 70.8437 37.4144 69.5695 37.4128 68.2414C37.4128 68.2414 37.4128 67.8414 37.4128 67.8414C37.4128 67.8414 38.4685 67.8414 38.4685 67.8414C38.7493 67.8454 39.0198 67.7357 39.2183 67.5371C39.4169 67.3386 39.5266 67.0681 39.5225 66.7874C39.5471 66.5015 39.4438 66.2195 39.2403 66.0172C39.0369 65.8149 38.7542 65.7131 38.4685 65.7393C38.4685 65.7393 37.4115 65.7393 37.4115 65.7393L37.4115 63.2393C37.4115 63.2393 38.4685 63.2393 38.4685 63.2393C39.0515 63.2393 39.524 62.7668 39.524 62.1838C39.524 61.6009 39.0515 61.1283 38.4685 61.1283C38.4685 61.1283 37.4115 61.1283 37.4115 61.1283C37.4115 61.1283 37.4115 58.0983 37.4115 58.0983C38.4345 57.7763 39.1951 56.9144 39.3875 55.8593C39.3875 55.8593 39.3865 55.8603 39.3865 55.8603ZM6.85051 40.0523C1.41458 32.9483 0.445473 23.3876 4.34533 15.3373C8.24518 7.28696 16.3484 2.12112 25.2925 1.98334C25.2925 1.98334 25.9515 1.98334 25.9515 1.98334C37.9385 1.98334 48.2135 11.8633 49.0035 23.9833C49.5305 31.8833 46.7645 36.1023 43.7345 40.7123C40.5822 45.1287 38.3839 50.1529 37.2795 55.4653C37.1558 56.2378 36.4806 56.8002 35.6985 56.7823C35.6985 56.7823 15.2805 56.7823 15.2805 56.7823C14.4984 56.8002 13.8233 56.2378 13.6995 55.4653C12.6643 49.8594 10.317 44.5781 6.8495 40.0533C6.8495 40.0533 6.85051 40.0523 6.85051 40.0523ZM25.5555 75.8823C23.7741 75.8871 22.2097 74.6995 21.7355 72.9823C21.7355 72.9823 29.2435 72.9823 29.2435 72.9823C28.8197 74.6771 27.3025 75.8702 25.5555 75.8823C25.5555 75.8823 25.5555 75.8823 25.5555 75.8823Z" fill="#333333" transform="translate(8.034 8.03)" />
      <path d="M12.2539 29.6379C12.5815 29.8023 12.9415 29.8921 13.3079 29.9009C13.672 29.8759 14.0288 29.7869 14.3619 29.6379C24.7679 24.6319 26.6129 13.0379 26.7439 6.58585C26.7921 5.40529 25.9378 4.38032 24.7679 4.21485C21.1564 3.6622 17.7003 2.36107 14.6209 0.394855C13.8708 -0.131618 12.8711 -0.131618 12.1209 0.394855C9.04281 2.36056 5.58805 3.66167 1.97794 4.21486C0.808043 4.38032 -0.0461731 5.40529 0.00194359 6.58585C0.133944 17.7859 4.61194 25.9499 12.2529 29.6379C12.2529 29.6379 12.2539 29.6379 12.2539 29.6379ZM8.69794 13.5669C9.10017 13.1718 9.7447 13.1718 10.1469 13.5669C10.1469 13.5669 12.1209 15.5429 12.1209 15.5429C12.1209 15.5429 16.7309 10.9329 16.7309 10.9329C17.1344 10.5579 17.7621 10.5689 18.1522 10.9577C18.5424 11.3465 18.5555 11.9741 18.1819 12.3789C18.1819 12.3789 12.9129 17.6479 12.9129 17.6479C12.6198 17.7793 12.3093 17.8678 11.9909 17.9109C11.7466 17.9061 11.5124 17.8127 11.3319 17.6479C11.3319 17.6479 8.69694 15.0129 8.69694 15.0129C8.30192 14.6106 8.30192 13.9661 8.69694 13.5639C8.69694 13.5639 8.69794 13.5669 8.69794 13.5669Z" fill="#549C22" transform="translate(20.282 21.079)" />
    </g>
  </g>
</svg>