<?xml version="1.0" encoding="utf-8"?>
<svg width="255" height="255" viewBox="0 0 255 255" fill="none" xmlns="http://www.w3.org/2000/svg">
  <defs>
    <linearGradient id="gradient_1" gradientUnits="userSpaceOnUse" x1="124.44" y1="-2.805" x2="130.56" y2="265.455">
      <stop offset="0" stop-color="#FAFFFF" />
      <stop offset="0.55" stop-color="#FAFFFF" />
      <stop offset="1" stop-color="#E5F9F6" />
    </linearGradient>
  </defs>
  <g>
    <g>
      <path d="M255 127.506C255 127.506 255 127.506 255 127.506C255.015 141.964 252.568 156.317 247.763 169.951C247.363 171.084 246.946 172.215 246.512 173.342C245.526 175.903 244.459 178.424 243.312 180.904C242.024 183.696 240.638 186.432 239.154 189.112C236.903 193.182 234.43 197.125 231.747 200.924C231.747 200.924 231.641 201.075 231.641 201.075L231.497 201.275L231.49 201.285C231.49 201.285 231.39 201.423 231.39 201.423C231.208 201.68 231.023 201.936 230.837 202.192C226.768 207.813 222.249 213.095 217.324 217.985C217.065 218.242 216.804 218.499 216.542 218.754C216.542 218.754 216.505 218.79 216.505 218.79C192.72 242.044 160.764 255.045 127.5 255C127.5 255 127.5 255 127.5 255C97.105 255.046 67.7014 244.189 44.6302 224.4C42.5242 222.6 40.4785 220.731 38.4932 218.794C38.4932 218.794 38.4562 218.758 38.4562 218.758C38.1949 218.503 37.9342 218.246 37.6742 217.989C32.7493 213.1 28.2295 207.82 24.1592 202.2C24.0092 201.994 23.8602 201.787 23.7122 201.579C23.7122 201.579 23.6062 201.431 23.6062 201.431C8.21253 179.858 -0.0420895 154.008 0.000162125 127.506C0.000162125 127.506 0.000169754 127.506 0.000169754 127.506C0.000169754 93.6838 13.434 61.2528 37.3462 37.3418C61.2584 13.4307 93.69 -0.00157547 127.506 3.8147e-06C127.506 3.8147e-06 127.506 3.8147e-06 127.506 3.8147e-06C197.922 0.00329208 255.003 57.0897 255 127.506C255 127.506 255 127.506 255 127.506Z" fill="url(#gradient_1)" />
      <g transform="translate(10.035 39.17)">
        <path d="M9.91821e-05 117.219C-0.0224457 134.669 3.86713 151.901 11.3827 167.649C11.3827 167.649 128.791 167.649 128.791 167.649C181.192 134.429 198.649 66.1405 168.62 11.8477C132.286 -5.85661 89.3948 -3.60007 55.1187 17.8192C20.8427 39.2385 0.0143509 76.8005 0.00108337 117.219C0.00108337 117.219 9.91821e-05 117.219 9.91821e-05 117.219Z" fill="#FFFFFF" transform="translate(45.084 0)" />
        <path d="M9.91821e-05 117.219C-0.0224457 134.669 3.86713 151.901 11.3827 167.649C11.3827 167.649 128.791 167.649 128.791 167.649C181.192 134.429 198.649 66.1405 168.62 11.8477C132.286 -5.85661 89.3948 -3.60007 55.1187 17.8192C20.8427 39.2385 0.0143509 76.8005 0.00108337 117.219C0.00108337 117.219 9.91821e-05 117.219 9.91821e-05 117.219Z" fill="#549C22" fill-opacity="0.1" transform="translate(45.084 0)" />
        <path d="M226.833 0.453003C226.833 0.453003 0.286314 0.453003 0.286314 0.453003C0.193352 0.476486 0.0955782 0.439835 0.0409622 0.361023C-0.0136538 0.282227 -0.0136538 0.177795 0.0409622 0.098999C0.0955782 0.0201874 0.193352 -0.0164642 0.286314 0.00701904C0.286314 0.00701904 226.832 0.00701904 226.832 0.00701904C226.925 -0.0164642 227.023 0.0201874 227.078 0.098999C227.132 0.177795 227.132 0.282227 227.078 0.361023C227.023 0.439835 226.925 0.476486 226.832 0.453003C226.832 0.453003 226.833 0.453003 226.833 0.453003Z" fill="#011721" transform="translate(0 167.289)" />
        <g transform="translate(78 76)">
          <path d="M31.948 52.603C31.948 52.603 3.00136 52.1897 3.00136 52.1897C1.9131 52.1751 0.915919 51.6185 0.385721 50.7296C-0.14446 49.8408 -0.127011 48.7549 0.431509 47.8813C0.431509 47.8813 15.2827 24.6348 15.2827 24.6348C15.2827 24.6348 30.1339 1.38831 30.1339 1.38831C30.692 0.514477 31.7062 -0.0146063 32.7945 0.000307419C33.8829 0.015229 34.88 0.571877 35.4105 1.46064C35.4105 1.46064 49.5127 25.1122 49.5127 25.1122C49.5127 25.1122 63.6148 48.7637 63.6148 48.7637C64.1443 49.6524 64.1269 50.7378 63.5691 51.6113C63.0114 52.4848 61.998 53.014 60.9102 52.9997C60.9102 52.9997 31.9635 52.5865 31.9635 52.5865L31.948 52.603Z" fill="#549C22" />
          <path d="M28.376 46.252C28.376 46.252 1.03137 45.8697 1.03137 45.8697C0.65699 45.8629 0.314697 45.6705 0.132659 45.3645C-0.0493784 45.0585 -0.0437307 44.6851 0.147495 44.384C0.147495 44.384 14.1789 22.431 14.1789 22.431C14.1789 22.431 28.2059 0.478067 28.2059 0.478067C28.3984 0.176813 28.7482 -0.0054152 29.1235 0.000126123C29.4987 0.00566745 29.8422 0.198135 30.0244 0.504931C30.0244 0.504931 43.3465 22.8381 43.3465 22.8381C43.3465 22.8381 56.6664 45.1734 56.6664 45.1734C56.8498 45.4797 56.8443 45.8544 56.6518 46.156C56.4594 46.4575 56.1094 46.6399 55.7339 46.6343C55.7339 46.6343 28.3893 46.252 28.3893 46.252L28.376 46.252Z" fill="#FFFFFF" transform="translate(3.614 3.764)" />
          <path d="M28.376 46.252C28.376 46.252 1.03137 45.8697 1.03137 45.8697C0.65699 45.8629 0.314697 45.6705 0.132659 45.3645C-0.0493784 45.0585 -0.0437307 44.6851 0.147495 44.384C0.147495 44.384 14.1789 22.431 14.1789 22.431C14.1789 22.431 28.2059 0.478067 28.2059 0.478067C28.3984 0.176813 28.7482 -0.0054152 29.1235 0.000126123C29.4987 0.00566745 29.8422 0.198135 30.0244 0.504931C30.0244 0.504931 43.3465 22.8381 43.3465 22.8381C43.3465 22.8381 56.6664 45.1734 56.6664 45.1734C56.8498 45.4797 56.8443 45.8544 56.6518 46.156C56.4594 46.4575 56.1094 46.6399 55.7339 46.6343C55.7339 46.6343 28.3893 46.252 28.3893 46.252L28.376 46.252Z" fill="#549C22" fill-opacity="0.1" transform="translate(3.614 3.764)" />
          <path d="M5.21482 17.0412L0.97226 16.9813L0 0L6.72844 0.0950546L5.21482 17.0412Z" fill="#549C22" transform="translate(29.12 19.066)" />
          <path d="M1.12051 5.49168C-0.264183 4.3323 -0.381641 2.34272 0.858156 1.04784C2.09795 -0.247047 4.22552 -0.356888 5.61021 0.802502C6.9949 1.96189 7.11236 3.95147 5.87256 5.24635C4.63276 6.54123 2.5052 6.65107 1.12051 5.49168Z" fill="#549C22" fill-rule="evenodd" transform="translate(28.774 37.302)" />
        </g>
      </g>
    </g>
  </g>
</svg>