<?xml version="1.0" encoding="utf-8"?>
<svg width="339" height="200" viewBox="0 0 339 200" fill="none" xmlns="http://www.w3.org/2000/svg">
  <g>
    <rect width="339" height="200" />
    <g transform="translate(32.021 60.226)">
      <path d="M36.4854 112.318C-13.5826 81.05 2.44031 18.1 2.44031 18.1C24.5023 7.766 54.8153 0 54.8153 0C54.8153 0 81.0863 17 98.7153 33.816C98.7153 33.816 93.8933 98.594 36.4823 112.322C36.4823 112.322 36.4854 112.318 36.4854 112.318Z" fill="#FFFFFF" transform="translate(81 0)" />
      <path d="M36.8714 113.061C36.8007 113.062 36.7314 113.043 36.6714 113.005C25.4981 106.159 16.3316 96.4818 10.0994 84.9544C5.02103 75.2941 1.83072 64.7543 0.699371 53.8994C-0.644257 42.0431 -0.0491638 30.0473 2.46133 18.3824C2.48831 18.2753 2.56155 18.1858 2.66129 18.1384C24.5124 7.90336 54.8084 0.089363 55.1114 0.011363C55.2111 -0.0139485 55.3169 0.00344462 55.4034 0.059363C55.6663 0.229363 81.9034 17.2744 99.3604 33.9174C99.4417 33.995 99.4833 34.1054 99.4734 34.2174C98.1452 46.075 94.8957 57.6375 89.8526 68.4513C85.3297 78.3818 78.9557 87.3593 71.0716 94.9033C61.498 103.851 49.7307 110.112 36.9606 113.051C36.9325 113.058 36.9036 113.061 36.8747 113.061C36.8747 113.061 36.8714 113.061 36.8714 113.061ZM3.14761 18.7334C0.700348 30.2682 0.126373 42.1219 1.44766 53.8393C3.49368 71.6453 11.3146 96.2253 36.9396 112.296C66.3396 105.206 81.5746 84.3873 89.1756 68.1563C94.1535 57.4669 97.3777 46.0457 98.7245 34.3313C81.9713 18.3934 57.2003 2.11436 55.1383 0.768364C52.7553 1.38936 24.0963 8.94836 3.14529 18.7324C3.14529 18.7324 3.14761 18.7334 3.14761 18.7334Z" fill="#000000" transform="translate(80 0)" />
      <path d="M27.6479 89.366C19.5812 83.9968 12.9469 76.7398 8.32092 68.225C4.16577 60.3576 1.54492 51.7717 0.5979 42.925C-0.439453 33.7586 -0.125732 24.4894 1.52893 15.414C17.2859 8.814 38.0399 0.0240021 42.2289 0C46.1909 1.354 63.0769 16.289 75.9199 27.556C74.6031 36.6864 71.9536 45.5741 68.0559 53.935C64.3453 62.0225 59.1304 69.3303 52.689 75.469C45.5959 82.0715 36.9984 86.8429 27.6431 89.369C27.6431 89.369 27.6479 89.366 27.6479 89.366Z" fill="#549C22" transform="translate(91 11.598)" />
      <path d="M16.2147 52.413C11.4835 49.2637 7.59265 45.0072 4.87976 40.013C2.44287 35.3986 0.905884 30.3628 0.350708 25.174C-0.25769 19.7982 -0.0737305 14.3623 0.896606 9.04001C10.1376 5.17102 22.3096 0.0140076 24.7686 0C27.0925 0.794006 36.9956 9.55301 44.5276 16.161C43.7554 21.5159 42.2015 26.7285 39.9155 31.6321C37.7395 36.3752 34.6812 40.661 30.9036 44.2611C26.7437 48.1333 21.7014 50.9316 16.2146 52.4131C16.2146 52.4131 16.2147 52.413 16.2147 52.413Z" fill="#FFFFFF" transform="translate(107 30.072)" />
      <path d="M13.382 45.195C9.84607 42.2123 6.94714 38.5481 4.85779 34.421C2.39758 29.4217 0.868408 24.0162 0.344849 18.469C-0.156982 13.5681 -0.111084 8.62662 0.481812 3.73596C6.91199 1.54556 13.6228 0.287445 20.4098 0C26.7889 2.33527 32.8007 5.57211 38.2618 9.612C37.3412 14.4517 35.8843 19.1738 33.918 23.6909C31.735 28.817 28.6368 33.5028 24.775 37.5189C21.5313 40.8166 17.6566 43.4275 13.3822 45.1959C13.3822 45.1959 13.382 45.195 13.382 45.195Z" fill="#FFFFFF" transform="translate(110 34.072)" />
      <path d="M4.45105 14.1141C4.45105 14.1141 4.35107 14.0961 4.35107 14.0961C3.87244 13.9945 3.45581 13.7024 3.19702 13.2871C3.19702 13.2871 0.273071 8.60007 0.273071 8.60007C-0.253296 7.75616 0.00415039 6.64539 0.848022 6.11905C1.69189 5.59271 2.80273 5.85016 3.3291 6.69406C3.3291 6.69406 5.26306 9.79407 5.26306 9.79407C5.26306 9.79407 19.2631 0.310059 19.2631 0.310059C20.0865 -0.247742 21.2063 -0.0324097 21.764 0.791046C22.3219 1.6145 22.1066 2.73425 21.2831 3.29205C21.2831 3.29205 5.7301 13.825 5.7301 13.825C5.35303 14.0804 4.89319 14.1833 4.44324 14.1131C4.44324 14.1131 4.45105 14.1141 4.45105 14.1141Z" fill="#549C22" transform="translate(119 46)" />
      <path d="M0.45 0.899994C0.45 0.899994 274.507 0.899994 274.507 0.899994C274.755 0.899078 274.955 0.697876 274.955 0.449997C274.955 0.202118 274.755 0.000915527 274.507 0C274.507 0 0.45 0 0.45 0C0.330572 -0.000274658 0.215959 0.0470428 0.13151 0.1315C0.04706 0.215942 -0.000265121 0.330566 9.53674e-07 0.449982C-0.000267029 0.569397 0.0470572 0.684006 0.131505 0.768463C0.215953 0.852905 0.330565 0.900238 0.449994 0.899979C0.449994 0.899979 0.45 0.899994 0.45 0.899994Z" fill="#000000" fill-rule="evenodd" transform="translate(0 138.509)" />
    </g>
  </g>
</svg>