<?xml version="1.0" encoding="utf-8"?>
<svg width="250" height="147" viewBox="0 0 250 147" fill="none" xmlns="http://www.w3.org/2000/svg">
  <defs>
    <clipPath id="clip_path_1">
      <rect width="100" height="100" />
    </clipPath>
  </defs>
  <g>
    <g>
      <rect width="250" height="147" />
      <g transform="translate(74 22.5)">
        <rect width="102" height="102" transform="translate(0 0.5)" />
        <g>
          <rect width="102" height="102" transform="translate(0 0.5)" />
          <g clip-path="url(#clip_path_1)" transform="translate(7 0)">
            <g transform="translate(8 2)">
              <path d="M68.1986 0.00419426C62.6792 0.118504 57.1066 2.60071 52.8783 6.82841C46.5393 13.1807 44.362 22.2829 47.4602 29.4804C47.4367 29.4325 47.3847 29.3607 47.3666 29.3167C47.3666 29.3167 14.4603 61.0198 14.4603 61.0198C11.3363 64.1438 11.3363 69.2083 14.4603 72.3323C14.4603 72.3323 17.2884 75.1604 17.2884 75.1604C17.2884 75.1604 55.847 37.7972 55.847 37.7972C55.8344 37.7919 55.8132 37.7755 55.8002 37.7698C62.9873 40.791 72.0243 38.5917 78.3353 32.2854C84.1899 26.4307 86.5492 18.174 84.36 11.2021C82.1707 4.23032 75.8415 -0.155083 68.1985 0.00419807C68.1985 0.00419807 68.1986 0.00419426 68.1986 0.00419426ZM6.68688 0.457319C6.68688 0.457319 5.265 1.87529 5.265 1.87529C-1.755 8.91529 -1.755 20.2962 5.265 27.3362C5.265 27.3362 22.6869 44.7581 22.6869 44.7581L37.0853 30.8753L6.68688 0.457319L6.68688 0.457319ZM54.0658 47.8558L45.4681 56.2151L64.4056 75.1565C64.4056 75.1565 67.2259 72.3362 67.2259 72.3362C70.3659 69.2162 70.3659 64.1359 67.2259 61.0159C67.2259 61.0159 54.0658 47.8558 54.0658 47.8558L54.0658 47.8558Z" fill="#94D82D" transform="translate(6.313 12.523)" />
            </g>
          </g>
        </g>
      </g>
    </g>
  </g>
</svg>