<?xml version="1.0" encoding="utf-8"?>
<svg width="150.059" height="150" viewBox="0 0 150.059 150" fill="none" xmlns="http://www.w3.org/2000/svg">
  <defs>
    <clipPath id="clip_path_1">
      <rect width="150.059" height="150" />
    </clipPath>
  </defs>
  <g clip-path="url(#clip_path_1)">
    <g transform="translate(-0 -0)">
      <path d="M103.86 1.46808C103.86 1.46808 116.082 2.71608 116.082 2.71608C132.596 4.398 145.655 17.4513 147.344 33.9641C147.344 33.9641 148.591 46.1831 148.591 46.1831C150.549 65.346 150.549 84.6583 148.591 103.821C148.591 103.821 147.344 116.037 147.344 116.037C145.654 132.55 132.596 145.603 116.082 147.287C116.082 147.287 103.86 148.532 103.86 148.532C84.6897 150.489 65.3698 150.489 46.1993 148.532C46.1993 148.532 33.9762 147.288 33.9762 147.288C17.4627 145.605 4.40433 132.551 2.71524 116.038C2.71524 116.038 1.46724 103.822 1.46724 103.822C-0.489099 84.659 -0.489068 65.3468 1.46726 46.1841C1.46726 46.1841 2.71526 33.9651 2.71526 33.9651C4.40367 17.4521 17.4626 4.39817 33.9762 2.71608C33.9762 2.71608 46.1982 1.46808 46.1982 1.46808C65.3691 -0.489358 84.6895 -0.489358 103.86 1.46807C103.86 1.46807 103.86 1.46808 103.86 1.46808Z" fill="#FFFFFF" fill-rule="evenodd" />
    </g>
    <g transform="translate(27 26)">
      <path d="M68.1986 0.00419426C62.6792 0.118504 57.1066 2.60071 52.8783 6.82841C46.5393 13.1807 44.362 22.2829 47.4602 29.4804C47.4367 29.4325 47.3847 29.3607 47.3666 29.3167C47.3666 29.3167 14.4603 61.0198 14.4603 61.0198C11.3363 64.1438 11.3363 69.2083 14.4603 72.3323C14.4603 72.3323 17.2884 75.1604 17.2884 75.1604C17.2884 75.1604 55.847 37.7972 55.847 37.7972C55.8344 37.7919 55.8132 37.7755 55.8002 37.7698C62.9873 40.791 72.0243 38.5917 78.3353 32.2854C84.1899 26.4307 86.5492 18.174 84.36 11.2021C82.1707 4.23032 75.8415 -0.155083 68.1985 0.00419807C68.1985 0.00419807 68.1986 0.00419426 68.1986 0.00419426ZM6.68688 0.457319C6.68688 0.457319 5.265 1.87529 5.265 1.87529C-1.755 8.91529 -1.755 20.2962 5.265 27.3362C5.265 27.3362 22.6869 44.7581 22.6869 44.7581L37.0853 30.8753L6.68688 0.457319L6.68688 0.457319ZM54.0658 47.8558L45.4681 56.2151L64.4056 75.1565C64.4056 75.1565 67.2259 72.3362 67.2259 72.3362C70.3659 69.2162 70.3659 64.1359 67.2259 61.0159C67.2259 61.0159 54.0658 47.8558 54.0658 47.8558L54.0658 47.8558Z" fill="#94D82D" transform="translate(6.313 12.523)" />
    </g>
  </g>
</svg>