<?xml version="1.0" encoding="utf-8"?><!-- Generator: Adobe Illustrator 17.1.0, SVG Export Plug-In . SVG Version: 6.00 Build 0)  --><!DOCTYPE svg PUBLIC "-//W3C//DTD SVG 1.1//EN" "http://www.w3.org/Graphics/SVG/1.1/DTD/svg11.dtd"><svg xmlns="http://www.w3.org/2000/svg" xmlns:xlink="http://www.w3.org/1999/xlink" viewBox="0 0 24 24" width="20px" height="20px"><circle fill="#549c22" cx="5" cy="5" r="4"/><circle fill="#549c22" cx="19" cy="5" r="1"/><path fill="#549c22" d="M22,12h-6l-1.6,3.5l-3.4-5C10.5,10,8.1,10,7.8,10L5,21L2.2,10C2,10,0.9,10,0,10.1V24h10.6v-8.4l2.7,3.3c0.3,0.3,0.7,0.5,1.1,0.5c0.4,0,0.8-0.2,1.1-0.5l2.5-4.7C18.6,13.5,22,13.1,22,12z"/><path fill="#549c22" d="M23,10c0-2.2-1.8-4-4-4s-4,1.8-4,4h-1v1h10v-1H23z"/></svg>