<?xml version="1.0" encoding="iso-8859-1"?>
<!-- Generator: Adobe Illustrator 28.2.0, SVG Export Plug-In . SVG Version: 6.00 Build 0)  -->
<svg version="1.1" baseProfile="basic" xmlns="http://www.w3.org/2000/svg" xmlns:xlink="http://www.w3.org/1999/xlink" x="0px"
    y="0px" viewBox="0 0 24 24" xml:space="preserve">
<g id="Layer_1">
	<path fill="#549c22" d="M20.804,17.682c-0.094-0.147-2.347-3.616-6.56-4.646C14.146,13.012,14.047,13,13.947,13h-3.895
		c-0.1,0-0.199,0.012-0.297,0.036c-4.213,1.03-6.466,4.499-6.56,4.646C3.068,17.882,3,18.115,3,18.354v1.396
		C3,20.44,3.56,21,4.25,21h15.5c0.69,0,1.25-0.56,1.25-1.25v-1.396C21,18.115,20.932,17.882,20.804,17.682z"/>
  <path fill="#549c22" d="M12,11c2.206,0,4-1.794,4-4V6c0-2.206-1.794-4-4-4S8,3.794,8,6v1C8,9.206,9.794,11,12,11z"/>
</g>
  <g id="Layer_2">
</g>
  <g id="Layer_3">
</g>
</svg>