<?xml version="1.0" encoding="utf-8"?>
<svg width="136.489" height="37.572" viewBox="0 0 136.489 37.572" fill="none" xmlns="http://www.w3.org/2000/svg">
  <defs>
    <clipPath id="clip_path_1">
      <rect width="134.731" height="37.572" />
    </clipPath>
  </defs>
  <g>
    <g clip-path="url(#clip_path_1)">
      <path d="M6.25 19.375L1.76136 19.375L1.76136 4.82955L6.44886 4.82955Q8.56534 4.82955 10.071 5.69957Q11.5767 6.5696 12.3793 8.19247Q13.1818 9.81534 13.1818 12.0739Q13.1818 14.3466 12.3722 15.9837Q11.5625 17.6207 10.0142 18.4979Q8.46591 19.375 6.25 19.375ZM3.52273 17.8125L6.13636 17.8125Q8.84233 17.8125 10.1598 16.2749Q11.4773 14.7372 11.4773 12.0739Q11.4773 9.43182 10.1847 7.91193Q8.89205 6.39205 6.33523 6.39205L3.52273 6.39205L3.52273 17.8125ZM15.6534 19.375L15.6534 18.0966L23.4943 6.39205L15.5682 6.39205L15.5682 4.82955L25.5966 4.82955L25.5966 6.10795L17.7557 17.8125L25.6818 17.8125L25.6818 19.375L15.6534 19.375ZM36.5909 8.46591Q36.4631 7.38636 35.554 6.78977Q34.6449 6.19318 33.3239 6.19318Q31.875 6.19318 30.9943 6.87855Q30.1136 7.56392 30.1136 8.60795Q30.1136 9.3892 30.593 9.86861Q31.0724 10.348 31.7294 10.6143Q32.3864 10.8807 32.9261 11.0227L34.4034 11.4205Q34.9716 11.5696 35.6712 11.8324Q36.3707 12.0952 37.0135 12.5462Q37.6563 12.9972 38.0753 13.7003Q38.4943 14.4034 38.4943 15.4261Q38.4943 16.6051 37.88 17.5568Q37.2656 18.5085 36.0902 19.0696Q34.9148 19.6307 33.2386 19.6307Q30.8949 19.6307 29.517 18.5227Q28.1392 17.4148 28.0114 15.625L29.8295 15.625Q29.9006 16.4489 30.3871 16.9851Q30.8736 17.5213 31.6229 17.7805Q32.3722 18.0398 33.2386 18.0398Q34.2472 18.0398 35.0497 17.7095Q35.8523 17.3793 36.321 16.7862Q36.7898 16.1932 36.7898 15.3977Q36.7898 14.6733 36.3849 14.2188Q35.9801 13.7642 35.3196 13.4801Q34.6591 13.196 33.892 12.983L32.1023 12.4716Q30.3977 11.9815 29.4034 11.0724Q28.4091 10.1634 28.4091 8.69318Q28.4091 7.47159 29.0732 6.55895Q29.7372 5.64631 30.8629 5.13849Q31.9886 4.63068 33.3807 4.63068Q34.7869 4.63068 35.8807 5.13139Q36.9744 5.6321 37.6172 6.49858Q38.2599 7.36506 38.2955 8.46591L36.5909 8.46591ZM45.9091 8.46591L45.9091 9.88636L43.5795 9.88636L43.5795 16.25Q43.5795 16.9602 43.7891 17.3118Q43.9986 17.6634 44.3288 17.7805Q44.6591 17.8977 45.0284 17.8977Q45.3054 17.8977 45.483 17.8658Q45.6605 17.8338 45.767 17.8125L46.108 19.3182Q45.9375 19.3821 45.6321 19.4496Q45.3267 19.517 44.858 19.517Q44.1477 19.517 43.4695 19.2116Q42.7912 18.9063 42.3473 18.2813Q41.9034 17.6563 41.9034 16.7045L41.9034 9.88636L40.2557 9.88636L40.2557 8.46591L41.9034 8.46591L41.9034 5.85227L43.5795 5.85227L43.5795 8.46591L45.9091 8.46591ZM51.6477 19.6307Q50.6108 19.6307 49.7656 19.2365Q48.9205 18.8423 48.4233 18.093Q47.9261 17.3438 47.9261 16.2784Q47.9261 15.3409 48.2955 14.755Q48.6648 14.169 49.2827 13.8352Q49.9006 13.5014 50.6499 13.3345Q51.3992 13.1676 52.1591 13.0682Q53.1534 12.9403 53.7749 12.8729Q54.3963 12.8054 54.684 12.642Q54.9716 12.4787 54.9716 12.0739L54.9716 12.017Q54.9716 10.9659 54.3999 10.3835Q53.8281 9.80114 52.6705 9.80114Q51.4702 9.80114 50.7884 10.3267Q50.1065 10.8523 49.8295 11.4489L48.2386 10.8807Q48.6648 9.88636 49.3786 9.32883Q50.0923 8.77131 50.9411 8.54758Q51.7898 8.32386 52.6136 8.32386Q53.1392 8.32386 53.8246 8.44815Q54.5099 8.57244 55.1527 8.95597Q55.7955 9.33949 56.2216 10.1136Q56.6477 10.8878 56.6477 12.1875L56.6477 19.375L54.9716 19.375L54.9716 17.8977L54.8864 17.8977Q54.7159 18.2528 54.3182 18.6577Q53.9205 19.0625 53.2599 19.3466Q52.5994 19.6307 51.6477 19.6307ZM51.9034 18.125Q52.8977 18.125 53.5831 17.7344Q54.2685 17.3438 54.62 16.7259Q54.9716 16.108 54.9716 15.4261L54.9716 13.892Q54.8651 14.0199 54.5064 14.1229Q54.1477 14.2259 53.6825 14.3004Q53.2173 14.375 52.7805 14.4283Q52.3438 14.4815 52.0739 14.517Q51.4205 14.6023 50.8558 14.7905Q50.2912 14.9787 49.9467 15.3516Q49.6023 15.7244 49.6023 16.3636Q49.6023 17.2372 50.2521 17.6811Q50.902 18.125 51.9034 18.125ZM59.7159 19.375L59.7159 8.46591L61.3352 8.46591L61.3352 10.1136L61.4489 10.1136Q61.7472 9.30398 62.5284 8.79972Q63.3097 8.29545 64.2898 8.29545Q64.4744 8.29545 64.7514 8.30256Q65.0284 8.30966 65.1705 8.32386L65.1705 10.0284Q65.0852 10.0071 64.7834 9.96094Q64.4815 9.91477 64.1477 9.91477Q62.9545 9.91477 62.1733 10.6392Q61.392 11.3636 61.392 12.4716L61.392 19.375L59.7159 19.375ZM72.5852 8.46591L72.5852 9.88636L70.2557 9.88636L70.2557 16.25Q70.2557 16.9602 70.4652 17.3118Q70.6747 17.6634 71.005 17.7805Q71.3352 17.8977 71.7046 17.8977Q71.9815 17.8977 72.1591 17.8658Q72.3367 17.8338 72.4432 17.8125L72.7841 19.3182Q72.6136 19.3821 72.3082 19.4496Q72.0028 19.517 71.5341 19.517Q70.8239 19.517 70.1456 19.2116Q69.4673 18.9063 69.0234 18.2813Q68.5796 17.6563 68.5796 16.7045L68.5796 9.88636L66.9318 9.88636L66.9318 8.46591L68.5796 8.46591L68.5796 5.85227L70.2557 5.85227L70.2557 8.46591L72.5852 8.46591ZM79.5739 19.6023Q77.9972 19.6023 76.8572 18.9027Q75.7173 18.2031 75.103 16.9425Q74.4886 15.6818 74.4886 14.0057Q74.4886 12.3295 75.103 11.0476Q75.7173 9.76563 76.8217 9.04474Q77.9261 8.32386 79.4034 8.32386Q80.2557 8.32386 81.0867 8.60795Q81.9176 8.89205 82.5994 9.5277Q83.2813 10.1634 83.6861 11.2074Q84.0909 12.2514 84.0909 13.7784L84.0909 14.4886L76.1719 14.4886Q76.2287 16.2358 77.1626 17.1662Q78.0966 18.0966 79.5739 18.0966Q80.5611 18.0966 81.2713 17.6705Q81.9815 17.2443 82.3011 16.392L83.9205 16.8466Q83.5369 18.0824 82.3864 18.8423Q81.2358 19.6023 79.5739 19.6023ZM76.1719 13.0398L82.3864 13.0398Q82.3864 11.6548 81.5767 10.7422Q80.7671 9.82955 79.4034 9.82955Q78.4446 9.82955 77.7415 10.277Q77.0384 10.7244 76.6335 11.4595Q76.2287 12.1946 76.1719 13.0398ZM86.6477 19.375L86.6477 8.46591L88.2671 8.46591L88.2671 10.1136L88.3807 10.1136Q88.679 9.30398 89.4602 8.79972Q90.2415 8.29545 91.2216 8.29545Q91.4063 8.29545 91.6832 8.30256Q91.9602 8.30966 92.1023 8.32386L92.1023 10.0284Q92.0171 10.0071 91.7152 9.96094Q91.4134 9.91477 91.0796 9.91477Q89.8864 9.91477 89.1051 10.6392Q88.3239 11.3636 88.3239 12.4716L88.3239 19.375L86.6477 19.375Z" fill="#FFFFFF" transform="translate(40 -1)" />
      <g transform="translate(-11 -12)">
        <path d="M12.0376 0L0 13.5423L1.65625 16.0267C1.65625 16.0267 17.3906 16.0267 17.3906 16.0267C18.8481 14.5733 21.5313 11.8861 21.5313 11.8861C21.5313 11.8861 12.0376 0 12.0376 0L12.0376 0Z" fill="#FF5722" fill-rule="evenodd" transform="translate(6.625 22.895)" />
        <path d="M0 7.4142C0 7.4142 9.07459 19.0469 9.07459 19.0469C9.07459 19.0469 14.8723 13.7477 17.7111 11.5838C17.7111 11.5838 8.24647 0.828125 8.24647 0.828125L6.59022 0L0 7.4142L0 7.4142Z" fill="#94D82D" fill-rule="evenodd" transform="translate(19.91 14.078)" />
        <path d="M0 12.0633L20.2377 12.0633L20.2377 8.7508C20.2377 8.7508 12.537 0 12.537 0C7.9235 3.48392 4.06361 7.89866 0 12.0633C0 12.0633 0 12.0633 0 12.0633Z" fill="#FFFFFF" fill-rule="evenodd" transform="translate(26.137 26.859)" />
      </g>
    </g>
    <g transform="translate(133.366 6.786)">
      <path d="M2.78711 1.56092C2.78662 0.883304 2.23779 0.333987 1.56006 0.332888C0.882081 0.333438 0.332521 0.882937 0.332032 1.56092C0.331788 1.88642 0.460939 2.19879 0.691163 2.42914C0.921144 2.65949 1.2334 2.78894 1.55908 2.78894C1.88477 2.78919 2.19727 2.65967 2.427 2.42896C2.46265 2.3927 2.49609 2.35425 2.5271 2.31397C2.69458 2.09857 2.7854 1.83362 2.7854 1.56098C2.7854 1.56098 2.78711 1.56092 2.78711 1.56092ZM1.01221 2.18994L1.01221 0.889956C1.01221 0.889956 1.68018 0.889956 1.68018 0.889956C1.77588 0.886416 1.87158 0.89722 1.96411 0.921939C2.02808 0.942508 2.08325 0.984073 2.12085 1.03992C2.1626 1.10181 2.18359 1.17536 2.18091 1.24994C2.1853 1.37824 2.11865 1.49854 2.00781 1.56293C1.96411 1.58704 1.91699 1.60425 1.86792 1.61396C1.90332 1.62525 1.93701 1.64136 1.96802 1.66193C1.99194 1.68219 2.01318 1.70496 2.03198 1.72992C2.05347 1.75495 2.07227 1.78211 2.08789 1.81092C2.08789 1.81092 2.28198 2.18689 2.28198 2.18689L1.82715 2.18689C1.82715 2.18689 1.61304 1.78687 1.61304 1.78687C1.59595 1.74884 1.57129 1.71479 1.54028 1.68689C1.51099 1.66657 1.47583 1.65601 1.44019 1.65686C1.44019 1.65686 1.40527 1.65686 1.40527 1.65686L1.40527 2.18286L1.00537 2.18286L1.01221 2.18994ZM1.41211 1.41895C1.41211 1.41895 1.58106 1.41895 1.58106 1.41895C1.6167 1.41602 1.65234 1.41004 1.68701 1.40094C1.71314 1.39582 1.73633 1.38123 1.75195 1.35993C1.7688 1.33863 1.77759 1.31208 1.77686 1.28491C1.78003 1.24707 1.76514 1.20996 1.73682 1.18494C1.6919 1.15753 1.63916 1.14557 1.58692 1.15094C1.58692 1.15094 1.41089 1.15094 1.41089 1.15094L1.41089 1.41394L1.41211 1.41895ZM3.11914 1.56098C3.11939 1.90814 3.00366 2.24536 2.79004 2.51898C2.75 2.57019 2.70703 2.61896 2.66113 2.66498C2.36939 2.95703 1.97388 3.1214 1.56104 3.12195C0.698976 3.12201 1.08312e-06 2.4231 1.08312e-06 1.56098C-0.000243057 1.14698 0.164064 0.749759 0.457032 0.456973C0.749757 0.164126 1.14697 -0.000241401 1.56104 2.74007e-06C1.97534 -0.000546576 2.3728 0.163699 2.66577 0.456546C2.95874 0.749392 3.12329 1.14673 3.12305 1.56098C3.12305 1.56098 3.11914 1.56098 3.11914 1.56098Z" fill="#FFFFFF" />
    </g>
    <path d="M1.05682 1.44886L1.05682 5.8125L0.528409 5.8125L0.528409 1.44886L1.05682 1.44886ZM2.04545 5.8125L2.04545 2.53977L2.53125 2.53977L2.53125 3.05114L2.57386 3.05114Q2.67614 2.78906 2.90412 2.64311Q3.1321 2.49716 3.4517 2.49716Q3.77557 2.49716 3.99183 2.64311Q4.2081 2.78906 4.32955 3.05114L4.36364 3.05114Q4.48935 2.79759 4.74077 2.64737Q4.99219 2.49716 5.34375 2.49716Q5.78267 2.49716 6.06179 2.77095Q6.34091 3.04474 6.34091 3.62216L6.34091 5.8125L5.83807 5.8125L5.83807 3.62216Q5.83807 3.25994 5.63991 3.1044Q5.44176 2.94886 5.1733 2.94886Q4.82813 2.94886 4.63849 3.15661Q4.44886 3.36435 4.44886 3.68182L4.44886 5.8125L3.9375 5.8125L3.9375 3.57102Q3.9375 3.2919 3.75639 3.12038Q3.57528 2.94886 3.28977 2.94886Q3.09375 2.94886 2.92436 3.05327Q2.75497 3.15767 2.65163 3.34197Q2.5483 3.52628 2.5483 3.76705L2.5483 5.8125L2.04545 5.8125ZM7.26136 7.03977L7.26136 2.53977L7.74716 2.53977L7.74716 3.05966L7.80682 3.05966Q7.86222 2.97443 7.96129 2.84126Q8.06037 2.7081 8.2468 2.60263Q8.43324 2.49716 8.75284 2.49716Q9.16619 2.49716 9.48153 2.70384Q9.79688 2.91051 9.97372 3.28977Q10.1506 3.66903 10.1506 4.18466Q10.1506 4.70455 9.97372 5.08487Q9.79688 5.4652 9.48367 5.67294Q9.17045 5.88068 8.76136 5.88068Q8.44602 5.88068 8.25639 5.77521Q8.06676 5.66974 7.96449 5.53445Q7.86222 5.39915 7.80682 5.30966L7.7642 5.30966L7.7642 7.03977L7.26136 7.03977ZM7.75568 4.17614Q7.75568 4.73224 7.99751 5.08061Q8.23935 5.42898 8.69318 5.42898Q9.00852 5.42898 9.22053 5.26172Q9.43253 5.09446 9.54013 4.81001Q9.64773 4.52557 9.64773 4.17614Q9.64773 3.83097 9.54226 3.55291Q9.43679 3.27486 9.22479 3.11186Q9.01278 2.94886 8.69318 2.94886Q8.23295 2.94886 7.99432 3.28764Q7.75568 3.62642 7.75568 4.17614ZM10.9176 5.8125L10.9176 2.53977L11.4034 2.53977L11.4034 3.03409L11.4375 3.03409Q11.527 2.79119 11.7614 2.63991Q11.9957 2.48864 12.2898 2.48864Q12.3452 2.48864 12.4283 2.49077Q12.5114 2.4929 12.554 2.49716L12.554 3.00852Q12.5284 3.00213 12.4379 2.98828Q12.3473 2.97443 12.2472 2.97443Q11.8892 2.97443 11.6548 3.19176Q11.4205 3.40909 11.4205 3.74148L11.4205 5.8125L10.9176 5.8125ZM14.3778 5.88068Q13.9347 5.88068 13.6012 5.66974Q13.2678 5.45881 13.0813 5.07955Q12.8949 4.70028 12.8949 4.19318Q12.8949 3.68182 13.0813 3.30043Q13.2678 2.91903 13.6012 2.7081Q13.9347 2.49716 14.3778 2.49716Q14.821 2.49716 15.1545 2.7081Q15.4879 2.91903 15.6744 3.30043Q15.8608 3.68182 15.8608 4.19318Q15.8608 4.70028 15.6744 5.07955Q15.4879 5.45881 15.1545 5.66974Q14.821 5.88068 14.3778 5.88068ZM14.3778 5.42898Q14.7145 5.42898 14.9318 5.25639Q15.1491 5.08381 15.2536 4.80256Q15.358 4.52131 15.358 4.19318Q15.358 3.86506 15.2536 3.58168Q15.1491 3.2983 14.9318 3.12358Q14.7145 2.94886 14.3778 2.94886Q14.0412 2.94886 13.8239 3.12358Q13.6065 3.2983 13.5021 3.58168Q13.3977 3.86506 13.3977 4.19318Q13.3977 4.52131 13.5021 4.80256Q13.6065 5.08381 13.8239 5.25639Q14.0412 5.42898 14.3778 5.42898ZM19.1847 2.53977L17.9744 5.8125L17.4631 5.8125L16.2528 2.53977L16.7983 2.53977L17.7017 5.14773L17.7358 5.14773L18.6392 2.53977L19.1847 2.53977ZM19.8494 5.8125L19.8494 2.53977L20.3523 2.53977L20.3523 5.8125L19.8494 5.8125ZM20.1051 1.99432Q19.9581 1.99432 19.8526 1.89418Q19.7472 1.79403 19.7472 1.65341Q19.7472 1.51278 19.8526 1.41264Q19.9581 1.3125 20.1051 1.3125Q20.2521 1.3125 20.3576 1.41264Q20.4631 1.51278 20.4631 1.65341Q20.4631 1.79403 20.3576 1.89418Q20.2521 1.99432 20.1051 1.99432ZM21.7756 3.84375L21.7756 5.8125L21.2727 5.8125L21.2727 2.53977L21.7585 2.53977L21.7585 3.05114L21.8011 3.05114Q21.9162 2.80185 22.1506 2.6495Q22.3849 2.49716 22.7557 2.49716Q23.2521 2.49716 23.5579 2.80185Q23.8636 3.10653 23.8636 3.73295L23.8636 5.8125L23.3608 5.8125L23.3608 3.76705Q23.3608 3.38139 23.1605 3.16513Q22.9602 2.94886 22.6108 2.94886Q22.2507 2.94886 22.0131 3.18217Q21.7756 3.41548 21.7756 3.84375ZM26.1051 7.10795Q25.5575 7.10795 25.239 6.90874Q24.9205 6.70952 24.767 6.4517L25.1676 6.17045Q25.2358 6.25994 25.3402 6.37607Q25.4446 6.49219 25.6268 6.57848Q25.809 6.66477 26.1051 6.66477Q26.5014 6.66477 26.7592 6.47301Q27.017 6.28125 27.017 5.87216L27.017 5.20739L26.9744 5.20739Q26.919 5.29688 26.8178 5.42791Q26.7166 5.55895 26.5281 5.66016Q26.3395 5.76136 26.0199 5.76136Q25.6236 5.76136 25.3093 5.57386Q24.995 5.38636 24.8129 5.02841Q24.6307 4.67045 24.6307 4.15909Q24.6307 3.65625 24.8075 3.28232Q24.9844 2.90838 25.2997 2.70277Q25.6151 2.49716 26.0284 2.49716Q26.348 2.49716 26.5366 2.60263Q26.7251 2.7081 26.8264 2.84126Q26.9276 2.97443 26.983 3.05966L27.0341 3.05966L27.0341 2.53977L27.5199 2.53977L27.5199 5.90625Q27.5199 6.32813 27.3292 6.59339Q27.1385 6.85866 26.8178 6.98331Q26.4972 7.10795 26.1051 7.10795ZM26.0881 5.30966Q26.5419 5.30966 26.7837 5.00178Q27.0256 4.69389 27.0256 4.15057Q27.0256 3.62003 26.7869 3.28445Q26.5483 2.94886 26.0881 2.94886Q25.7685 2.94886 25.5565 3.1108Q25.3445 3.27273 25.239 3.54545Q25.1335 3.81818 25.1335 4.15057Q25.1335 4.66193 25.3743 4.9858Q25.6151 5.30966 26.0881 5.30966ZM30.6307 1.44886L30.6307 5.8125L30.1278 5.8125L30.1278 1.44886L30.6307 1.44886ZM31.5511 5.8125L31.5511 2.53977L32.054 2.53977L32.054 5.8125L31.5511 5.8125ZM31.8068 1.99432Q31.6598 1.99432 31.5543 1.89418Q31.4489 1.79403 31.4489 1.65341Q31.4489 1.51278 31.5543 1.41264Q31.6598 1.3125 31.8068 1.3125Q31.9538 1.3125 32.0593 1.41264Q32.1648 1.51278 32.1648 1.65341Q32.1648 1.79403 32.0593 1.89418Q31.9538 1.99432 31.8068 1.99432ZM34.4318 2.53977L34.4318 2.96591L33.6989 2.96591L33.6989 5.8125L33.196 5.8125L33.196 2.96591L32.6676 2.96591L32.6676 2.53977L33.196 2.53977L33.196 2.08807Q33.196 1.80682 33.3281 1.61932Q33.4602 1.43182 33.6712 1.33807Q33.8821 1.24432 34.1165 1.24432Q34.3018 1.24432 34.419 1.27415Q34.5362 1.30398 34.5938 1.32955L34.4489 1.7642Q34.4105 1.75142 34.3434 1.73224Q34.2763 1.71307 34.1676 1.71307Q33.9183 1.71307 33.8086 1.83878Q33.6989 1.96449 33.6989 2.20739L33.6989 2.53977L34.4318 2.53977ZM36.375 5.88068Q35.902 5.88068 35.56 5.67081Q35.218 5.46094 35.0337 5.08274Q34.8494 4.70455 34.8494 4.2017Q34.8494 3.69886 35.0337 3.31428Q35.218 2.92969 35.5494 2.71342Q35.8807 2.49716 36.3239 2.49716Q36.5795 2.49716 36.8288 2.58239Q37.0781 2.66761 37.2827 2.85831Q37.4872 3.04901 37.6087 3.36222Q37.7301 3.67543 37.7301 4.13352L37.7301 4.34659L35.3544 4.34659Q35.3714 4.87074 35.6516 5.14986Q35.9318 5.42898 36.375 5.42898Q36.6712 5.42898 36.8842 5.30114Q37.0973 5.1733 37.1932 4.91761L37.679 5.05398Q37.5639 5.42472 37.2188 5.6527Q36.8736 5.88068 36.375 5.88068ZM35.3544 3.91193L37.2188 3.91193Q37.2188 3.49645 36.9759 3.22266Q36.733 2.94886 36.3239 2.94886Q36.0362 2.94886 35.8253 3.0831Q35.6143 3.21733 35.4929 3.43786Q35.3714 3.65838 35.3544 3.91193ZM40.9261 5.8125L39.929 2.53977L40.4574 2.53977L41.1648 5.04545L41.1989 5.04545L41.8977 2.53977L42.4347 2.53977L43.125 5.03693L43.1591 5.03693L43.8665 2.53977L44.3949 2.53977L43.3977 5.8125L42.9034 5.8125L42.1875 3.2983L42.1364 3.2983L41.4205 5.8125L40.9261 5.8125ZM45.0597 5.8125L45.0597 2.53977L45.5625 2.53977L45.5625 5.8125L45.0597 5.8125ZM45.3153 1.99432Q45.1683 1.99432 45.0629 1.89418Q44.9574 1.79403 44.9574 1.65341Q44.9574 1.51278 45.0629 1.41264Q45.1683 1.3125 45.3153 1.3125Q45.4624 1.3125 45.5678 1.41264Q45.6733 1.51278 45.6733 1.65341Q45.6733 1.79403 45.5678 1.89418Q45.4624 1.99432 45.3153 1.99432ZM47.9063 2.53977L47.9063 2.96591L47.2074 2.96591L47.2074 4.875Q47.2074 5.08807 47.2702 5.19354Q47.3331 5.29901 47.4322 5.33416Q47.5313 5.36932 47.642 5.36932Q47.7251 5.36932 47.7784 5.35973Q47.8317 5.35014 47.8636 5.34375L47.9659 5.79545Q47.9148 5.81463 47.8232 5.83487Q47.7315 5.85511 47.5909 5.85511Q47.3778 5.85511 47.1744 5.76349Q46.9709 5.67188 46.8377 5.48438Q46.7045 5.29688 46.7045 5.01136L46.7045 2.96591L46.2102 2.96591L46.2102 2.53977L46.7045 2.53977L46.7045 1.75568L47.2074 1.75568L47.2074 2.53977L47.9063 2.53977ZM49.2358 3.84375L49.2358 5.8125L48.733 5.8125L48.733 1.44886L49.2358 1.44886L49.2358 3.05114L49.2784 3.05114Q49.3935 2.79759 49.6246 2.64737Q49.8558 2.49716 50.2415 2.49716Q50.7443 2.49716 51.0511 2.79972Q51.358 3.10227 51.358 3.73295L51.358 5.8125L50.8551 5.8125L50.8551 3.76705Q50.8551 3.37713 50.6538 3.163Q50.4524 2.94886 50.0966 2.94886Q49.7237 2.94886 49.4798 3.18217Q49.2358 3.41548 49.2358 3.84375ZM55.3892 2.53977L55.3892 2.96591L54.6903 2.96591L54.6903 4.875Q54.6903 5.08807 54.7532 5.19354Q54.8161 5.29901 54.9151 5.33416Q55.0142 5.36932 55.125 5.36932Q55.2081 5.36932 55.2614 5.35973Q55.3146 5.35014 55.3466 5.34375L55.4489 5.79545Q55.3977 5.81463 55.3061 5.83487Q55.2145 5.85511 55.0739 5.85511Q54.8608 5.85511 54.6573 5.76349Q54.4538 5.67188 54.3207 5.48438Q54.1875 5.29688 54.1875 5.01136L54.1875 2.96591L53.6932 2.96591L53.6932 2.53977L54.1875 2.53977L54.1875 1.75568L54.6903 1.75568L54.6903 2.53977L55.3892 2.53977ZM57.4858 5.88068Q57.0128 5.88068 56.6708 5.67081Q56.3288 5.46094 56.1445 5.08274Q55.9602 4.70455 55.9602 4.2017Q55.9602 3.69886 56.1445 3.31428Q56.3288 2.92969 56.6602 2.71342Q56.9915 2.49716 57.4347 2.49716Q57.6903 2.49716 57.9396 2.58239Q58.1889 2.66761 58.3935 2.85831Q58.598 3.04901 58.7195 3.36222Q58.8409 3.67543 58.8409 4.13352L58.8409 4.34659L56.4652 4.34659Q56.4822 4.87074 56.7624 5.14986Q57.0426 5.42898 57.4858 5.42898Q57.782 5.42898 57.995 5.30114Q58.2081 5.1733 58.304 4.91761L58.7898 5.05398Q58.6747 5.42472 58.3295 5.6527Q57.9844 5.88068 57.4858 5.88068ZM56.4652 3.91193L58.3295 3.91193Q58.3295 3.49645 58.0867 3.22266Q57.8438 2.94886 57.4347 2.94886Q57.147 2.94886 56.9361 3.0831Q56.7251 3.21733 56.6037 3.43786Q56.4822 3.65838 56.4652 3.91193ZM60.9375 5.88068Q60.4773 5.88068 60.1449 5.66335Q59.8125 5.44602 59.6335 5.06463Q59.4546 4.68324 59.4546 4.19318Q59.4546 3.6946 59.6389 3.31214Q59.8232 2.92969 60.1545 2.71342Q60.4858 2.49716 60.929 2.49716Q61.2742 2.49716 61.5511 2.625Q61.8281 2.75284 62.005 2.98295Q62.1818 3.21307 62.2244 3.51989L61.7216 3.51989Q61.6641 3.29616 61.467 3.12251Q61.2699 2.94886 60.9375 2.94886Q60.4965 2.94886 60.2269 3.28445Q59.9574 3.62003 59.9574 4.17614Q59.9574 4.74503 60.2237 5.087Q60.4901 5.42898 60.9375 5.42898Q61.2315 5.42898 61.4414 5.2777Q61.6513 5.12642 61.7216 4.85795L62.2244 4.85795Q62.1818 5.14773 62.0146 5.37891Q61.8473 5.61009 61.5735 5.74538Q61.2997 5.88068 60.9375 5.88068ZM63.4602 3.84375L63.4602 5.8125L62.9574 5.8125L62.9574 1.44886L63.4602 1.44886L63.4602 3.05114L63.5028 3.05114Q63.6179 2.79759 63.8491 2.64737Q64.0803 2.49716 64.4659 2.49716Q64.9688 2.49716 65.2756 2.79972Q65.5824 3.10227 65.5824 3.73295L65.5824 5.8125L65.0796 5.8125L65.0796 3.76705Q65.0796 3.37713 64.8782 3.163Q64.6768 2.94886 64.321 2.94886Q63.9482 2.94886 63.7042 3.18217Q63.4602 3.41548 63.4602 3.84375ZM67.0057 3.84375L67.0057 5.8125L66.5028 5.8125L66.5028 2.53977L66.9886 2.53977L66.9886 3.05114L67.0313 3.05114Q67.1463 2.80185 67.3807 2.6495Q67.6151 2.49716 67.9858 2.49716Q68.4822 2.49716 68.788 2.80185Q69.0938 3.10653 69.0938 3.73295L69.0938 5.8125L68.5909 5.8125L68.5909 3.76705Q68.5909 3.38139 68.3906 3.16513Q68.1903 2.94886 67.8409 2.94886Q67.4808 2.94886 67.2433 3.18217Q67.0057 3.41548 67.0057 3.84375ZM71.3438 5.88068Q70.9006 5.88068 70.5671 5.66974Q70.2337 5.45881 70.0472 5.07955Q69.8608 4.70028 69.8608 4.19318Q69.8608 3.68182 70.0472 3.30043Q70.2337 2.91903 70.5671 2.7081Q70.9006 2.49716 71.3438 2.49716Q71.7869 2.49716 72.1204 2.7081Q72.4538 2.91903 72.6403 3.30043Q72.8267 3.68182 72.8267 4.19318Q72.8267 4.70028 72.6403 5.07955Q72.4538 5.45881 72.1204 5.66974Q71.7869 5.88068 71.3438 5.88068ZM71.3438 5.42898Q71.6804 5.42898 71.8977 5.25639Q72.1151 5.08381 72.2195 4.80256Q72.3239 4.52131 72.3239 4.19318Q72.3239 3.86506 72.2195 3.58168Q72.1151 3.2983 71.8977 3.12358Q71.6804 2.94886 71.3438 2.94886Q71.0071 2.94886 70.7898 3.12358Q70.5724 3.2983 70.468 3.58168Q70.3636 3.86506 70.3636 4.19318Q70.3636 4.52131 70.468 4.80256Q70.5724 5.08381 70.7898 5.25639Q71.0071 5.42898 71.3438 5.42898ZM74.0966 1.44886L74.0966 5.8125L73.5938 5.8125L73.5938 1.44886L74.0966 1.44886ZM76.3466 5.88068Q75.9034 5.88068 75.57 5.66974Q75.2365 5.45881 75.0501 5.07955Q74.8636 4.70028 74.8636 4.19318Q74.8636 3.68182 75.0501 3.30043Q75.2365 2.91903 75.57 2.7081Q75.9034 2.49716 76.3466 2.49716Q76.7898 2.49716 77.1232 2.7081Q77.4567 2.91903 77.6431 3.30043Q77.8295 3.68182 77.8295 4.19318Q77.8295 4.70028 77.6431 5.07955Q77.4567 5.45881 77.1232 5.66974Q76.7898 5.88068 76.3466 5.88068ZM76.3466 5.42898Q76.6832 5.42898 76.9006 5.25639Q77.1179 5.08381 77.2223 4.80256Q77.3267 4.52131 77.3267 4.19318Q77.3267 3.86506 77.2223 3.58168Q77.1179 3.2983 76.9006 3.12358Q76.6832 2.94886 76.3466 2.94886Q76.0099 2.94886 75.7926 3.12358Q75.5753 3.2983 75.4709 3.58168Q75.3665 3.86506 75.3665 4.19318Q75.3665 4.52131 75.4709 4.80256Q75.5753 5.08381 75.7926 5.25639Q76.0099 5.42898 76.3466 5.42898ZM79.9176 7.10795Q79.37 7.10795 79.0515 6.90874Q78.7329 6.70952 78.5795 6.4517L78.9801 6.17045Q79.0483 6.25994 79.1527 6.37607Q79.2571 6.49219 79.4393 6.57848Q79.6214 6.66477 79.9176 6.66477Q80.3139 6.66477 80.5717 6.47301Q80.8295 6.28125 80.8295 5.87216L80.8295 5.20739L80.7869 5.20739Q80.7315 5.29688 80.6303 5.42791Q80.5291 5.55895 80.3406 5.66016Q80.152 5.76136 79.8324 5.76136Q79.4361 5.76136 79.1218 5.57386Q78.8075 5.38636 78.6254 5.02841Q78.4432 4.67045 78.4432 4.15909Q78.4432 3.65625 78.62 3.28232Q78.7969 2.90838 79.1122 2.70277Q79.4276 2.49716 79.8409 2.49716Q80.1605 2.49716 80.3491 2.60263Q80.5376 2.7081 80.6388 2.84126Q80.7401 2.97443 80.7954 3.05966L80.8466 3.05966L80.8466 2.53977L81.3324 2.53977L81.3324 5.90625Q81.3324 6.32813 81.1417 6.59339Q80.951 6.85866 80.6303 6.98331Q80.3097 7.10795 79.9176 7.10795ZM79.9006 5.30966Q80.3544 5.30966 80.5962 5.00178Q80.8381 4.69389 80.8381 4.15057Q80.8381 3.62003 80.5994 3.28445Q80.3608 2.94886 79.9006 2.94886Q79.581 2.94886 79.369 3.1108Q79.157 3.27273 79.0515 3.54545Q78.946 3.81818 78.946 4.15057Q78.946 4.66193 79.1868 4.9858Q79.4276 5.30966 79.9006 5.30966ZM82.5767 7.03977Q82.4489 7.03977 82.3487 7.01953Q82.2486 6.99929 82.2102 6.98011L82.3381 6.53693Q82.5213 6.58381 82.6619 6.57102Q82.8026 6.55824 82.9123 6.44638Q83.022 6.33452 83.1136 6.08523L83.2074 5.82955L81.9972 2.53977L82.5426 2.53977L83.446 5.14773L83.4801 5.14773L84.3835 2.53977L84.929 2.53977L83.5398 6.28977Q83.2607 7.03977 82.5767 7.03977Z" fill="#FFFFFF" transform="translate(41.366 20.786)" />
  </g>
</svg>