<?xml version="1.0" encoding="utf-8"?>
<svg width="124.58" height="85.546" viewBox="0 0 124.58 85.546" fill="none" xmlns="http://www.w3.org/2000/svg">
  <defs>
    <clipPath id="clip_path_1">
      <rect width="124.58" height="85.546" />
    </clipPath>
  </defs>
  <g clip-path="url(#clip_path_1)">
    <g transform="translate(-2 -21)">
      <path d="M5.85938 0C2.62305 0 0 2.56391 0 5.72727C0 5.72727 0 78.2727 0 78.2727C0 81.4361 2.62305 84 5.85938 84C5.85938 84 119.141 84 119.141 84C122.377 84 125 81.4361 125 78.2727C125 78.2727 125 5.72727 125 5.72727C125 2.56391 122.377 0 119.141 0C119.141 0 5.85938 0 5.85938 0C5.85938 0 5.85938 0 5.85938 0ZM5.85938 3.81818C5.85938 3.81818 119.141 3.81818 119.141 3.81818C120.219 3.81818 121.094 4.67345 121.094 5.72727C121.094 5.72727 121.094 78.2727 121.094 78.2727C121.094 79.3266 120.219 80.1818 119.141 80.1818C119.141 80.1818 5.85938 80.1818 5.85938 80.1818C4.78125 80.1818 3.90625 79.3266 3.90625 78.2727C3.90625 78.2727 3.90625 5.72727 3.90625 5.72727C3.90625 4.67345 4.78125 3.81818 5.85938 3.81818C5.85938 3.81818 5.85938 3.81818 5.85938 3.81818ZM39.0625 15.2727C38.2813 15.2727 37.5706 15.7299 37.262 16.4286C37.262 16.4286 30.1247 32.8125 30.1247 32.8125C30.1247 32.8125 11.5662 34.2331 11.5662 34.2331C10.7752 34.2942 10.0974 34.818 9.85718 35.5568C9.615 36.2956 9.85435 37.1019 10.4637 37.6001C10.4637 37.6001 24.5705 49.133 24.5705 49.133C24.5705 49.133 20.2675 66.3633 20.2675 66.3633C20.08 67.1116 20.3729 67.8944 21.0037 68.3507C21.6404 68.8089 22.4812 68.8484 23.1628 68.4551C23.1628 68.4551 39.0625 59.1893 39.0625 59.1893C39.0625 59.1893 54.9584 68.4588 54.9584 68.4588C55.2689 68.6383 55.6159 68.7273 55.9616 68.7273C56.3718 68.7273 56.7775 68.6025 57.1213 68.3581C57.7521 67.9 58.045 67.1154 57.8575 66.367C57.8575 66.367 53.5507 49.1405 53.5507 49.1405C53.5507 49.1405 67.6575 37.6076 67.6575 37.6076C68.2669 37.1112 68.5062 36.3031 68.264 35.5643C68.0238 34.8255 67.3499 34.3017 66.5588 34.2406C66.5588 34.2406 48.0003 32.82 48.0003 32.82C48.0003 32.82 40.8592 16.4324 40.8592 16.4324C40.5526 15.7279 39.8438 15.2727 39.0625 15.2727C39.0625 15.2727 39.0625 15.2727 39.0625 15.2727ZM72.2656 17.1818C71.1875 17.1818 70.3125 18.0371 70.3125 19.0909C70.3125 20.1447 71.1875 21 72.2656 21C72.2656 21 95.7031 21 95.7031 21C96.7813 21 97.6563 20.1447 97.6563 19.0909C97.6563 18.0371 96.7813 17.1818 95.7031 17.1818C95.7031 17.1818 72.2656 17.1818 72.2656 17.1818C72.2656 17.1818 72.2656 17.1818 72.2656 17.1818ZM105.469 17.1818C104.391 17.1818 103.516 18.0371 103.516 19.0909C103.516 20.1447 104.391 21 105.469 21C105.469 21 111.328 21 111.328 21C112.406 21 113.281 20.1447 113.281 19.0909C113.281 18.0371 112.406 17.1818 111.328 17.1818C111.328 17.1818 105.469 17.1818 105.469 17.1818C105.469 17.1818 105.469 17.1818 105.469 17.1818ZM39.0625 22.0552C39.0625 22.0552 44.8723 35.3816 44.8723 35.3816C45.1574 36.0364 45.7918 36.4821 46.5164 36.5375C46.5164 36.5375 61.4815 37.6822 61.4815 37.6822C61.4815 37.6822 50.1137 46.9741 50.1137 46.9741C49.5434 47.4399 49.2932 48.1843 49.469 48.8906C49.469 48.8906 52.9594 62.8471 52.9594 62.8471C52.9594 62.8471 40.0658 55.3264 40.0658 55.3264C39.7552 55.1469 39.4082 55.0579 39.0625 55.0579C38.7168 55.0579 38.3698 55.1488 38.0592 55.3264C38.0592 55.3264 25.1656 62.8434 25.1656 62.8434C25.1656 62.8434 28.656 48.8869 28.656 48.8869C28.8318 48.1805 28.5816 47.4381 28.0113 46.9703C28.0113 46.9703 16.6435 37.6784 16.6435 37.6784C16.6435 37.6784 31.6086 36.5337 31.6086 36.5337C32.3332 36.4784 32.9676 36.0327 33.2527 35.3778C33.2527 35.3778 39.0625 22.0552 39.0625 22.0552L39.0625 22.0552ZM72.2656 24.8182C71.1875 24.8182 70.3125 25.6735 70.3125 26.7273C70.3125 27.7811 71.1875 28.6364 72.2656 28.6364C72.2656 28.6364 89.8438 28.6364 89.8438 28.6364C90.9219 28.6364 91.7969 27.7811 91.7969 26.7273C91.7969 25.6735 90.9219 24.8182 89.8438 24.8182C89.8438 24.8182 72.2656 24.8182 72.2656 24.8182C72.2656 24.8182 72.2656 24.8182 72.2656 24.8182ZM72.2656 59.1818C71.1875 59.1818 70.3125 60.0371 70.3125 61.0909C70.3125 61.0909 70.3125 64.9091 70.3125 64.9091C70.3125 65.9629 71.1875 66.8182 72.2656 66.8182C73.3438 66.8182 74.2188 65.9629 74.2188 64.9091C74.2188 64.9091 74.2188 61.0909 74.2188 61.0909C74.2188 60.0371 73.3438 59.1818 72.2656 59.1818C72.2656 59.1818 72.2656 59.1818 72.2656 59.1818ZM82.0313 59.1818C80.9531 59.1818 80.0781 60.0371 80.0781 61.0909C80.0781 61.0909 80.0781 64.9091 80.0781 64.9091C80.0781 65.9629 80.9531 66.8182 82.0313 66.8182C83.1094 66.8182 83.9844 65.9629 83.9844 64.9091C83.9844 64.9091 83.9844 61.0909 83.9844 61.0909C83.9844 60.0371 83.1094 59.1818 82.0313 59.1818C82.0313 59.1818 82.0313 59.1818 82.0313 59.1818ZM91.7969 59.1818C90.7188 59.1818 89.8438 60.0371 89.8438 61.0909C89.8438 61.0909 89.8438 64.9091 89.8438 64.9091C89.8438 65.9629 90.7188 66.8182 91.7969 66.8182C92.875 66.8182 93.75 65.9629 93.75 64.9091C93.75 64.9091 93.75 61.0909 93.75 61.0909C93.75 60.0371 92.875 59.1818 91.7969 59.1818C91.7969 59.1818 91.7969 59.1818 91.7969 59.1818ZM101.563 59.1818C100.484 59.1818 99.6094 60.0371 99.6094 61.0909C99.6094 61.0909 99.6094 64.9091 99.6094 64.9091C99.6094 65.9629 100.484 66.8182 101.563 66.8182C102.641 66.8182 103.516 65.9629 103.516 64.9091C103.516 64.9091 103.516 61.0909 103.516 61.0909C103.516 60.0371 102.641 59.1818 101.563 59.1818C101.563 59.1818 101.563 59.1818 101.563 59.1818ZM111.328 59.1818C110.25 59.1818 109.375 60.0371 109.375 61.0909C109.375 61.0909 109.375 64.9091 109.375 64.9091C109.375 65.9629 110.25 66.8182 111.328 66.8182C112.406 66.8182 113.281 65.9629 113.281 64.9091C113.281 64.9091 113.281 61.0909 113.281 61.0909C113.281 60.0371 112.406 59.1818 111.328 59.1818C111.328 59.1818 111.328 59.1818 111.328 59.1818Z" fill="#94D82D" transform="translate(1.29 20.773)" />
    </g>
  </g>
</svg>